<svg xmlns="http://www.w3.org/2000/svg" width="3840" height="2400" viewBox="0 0 3840 2400" role="img" aria-labelledby="title description">
  <title id="title">Voronoi diagram with 64 sites</title>
  <desc id="description">A high-resolution 3840x2400 clipped Voronoi diagram with 64 sites. Seed: 1791979009.</desc>
  <defs>
    <linearGradient id="background" x1="0" y1="0" x2="1" y2="1"><stop stop-color="#F8FAFC"/><stop offset="1" stop-color="#E0F2FE"/></linearGradient>
    <filter id="shadow" x="-5%" y="-5%" width="110%" height="110%"><feDropShadow dx="0" dy="15" stdDeviation="22" flood-color="#0F172A" flood-opacity=".12"/></filter>
  </defs>
  <rect width="3840" height="2400" fill="url(#background)"/>
  <rect x="120" y="120" width="3600" height="2160" rx="63" fill="#FFFFFF" filter="url(#shadow)"/>
  <g font-family="Arial, sans-serif"><text x="227" y="296" font-size="101" font-weight="700" fill="#0F172A">Voronoi Diagram</text><text x="227" y="397" font-size="56" fill="#475569">64 sites · generated with seed 1791979009 · Ultra HD (3840x2400)</text></g>
  <g stroke="#FFFFFF" stroke-width="7" stroke-linejoin="round">
    <polygon points="988.2,1457.0 816.1,1699.5 768.8,1716.1 741.7,1699.1 675.9,1474.0 787.6,1319.5" fill="#38BDF8" fill-opacity="0.65" />
    <polygon points="1800.8,1506.4 2077.7,1422.0 2059.7,1610.6 1949.5,1753.0 1902.1,1714.9" fill="#A78BFA" fill-opacity="0.65" />
    <polygon points="985.4,1792.6 1135.1,1680.4 1204.6,1716.8 1320.5,2013.5 1313.9,2053.0 1062.2,2053.0" fill="#F472B6" fill-opacity="0.65" />
    <polygon points="1031.6,1453.9 1362.4,1398.6 1380.5,1555.9 1204.6,1716.8 1135.1,1680.4" fill="#FB923C" fill-opacity="0.65" />
    <polygon points="500.7,1475.8 510.1,1484.9 528.3,1678.8 400.0,1775.4 120.0,1775.1 120.0,1422.8" fill="#FACC15" fill-opacity="0.65" />
    <polygon points="1577.4,1715.7 1579.1,1714.3 1902.1,1714.9 1949.5,1753.0 1973.1,1868.4 1951.3,2053.0 1816.4,2053.0" fill="#4ADE80" fill-opacity="0.65" />
    <polygon points="2168.2,1364.1 2447.0,1409.9 2509.4,1612.9 2367.8,1675.4 2363.2,1672.0" fill="#2DD4BF" fill-opacity="0.65" />
    <polygon points="2355.4,1707.5 2367.8,1675.4 2509.4,1612.9 2545.6,1618.5 2625.0,1853.0 2532.3,2053.0 2368.4,2053.0" fill="#60A5FA" fill-opacity="0.65" />
    <polygon points="2531.9,1174.7 2741.0,1190.5 2800.6,1511.6 2788.2,1523.7 2545.6,1618.5 2509.4,1612.9 2447.0,1409.9" fill="#E879F9" fill-opacity="0.65" />
    <polygon points="3188.9,2021.9 3720.0,1480.1 3720.0,2053.0 3182.0,2053.0" fill="#34D399" fill-opacity="0.65" />
    <polygon points="1593.3,1019.1 1743.7,1023.8 1866.7,1163.1 1701.1,1420.4 1478.1,1352.7" fill="#F87171" fill-opacity="0.65" />
    <polygon points="475.2,784.9 283.3,911.5 120.0,855.1 120.0,505.0 477.1,505.0" fill="#818CF8" fill-opacity="0.65" />
    <polygon points="537.7,1922.5 752.3,1800.5 823.0,2053.0 556.8,2053.0" fill="#FBBF24" fill-opacity="0.65" />
    <polygon points="283.3,911.5 342.3,1030.1 199.5,1333.7 120.0,1407.1 120.0,855.1" fill="#A3E635" fill-opacity="0.65" />
    <polygon points="1497.4,958.8 1218.3,966.0 1152.2,505.0 1593.2,505.0" fill="#C084FC" fill-opacity="0.65" />
    <polygon points="3264.7,1180.0 3427.3,967.2 3705.1,1447.2 3548.9,1423.8" fill="#FB7185" fill-opacity="0.65" />
    <polygon points="199.5,1333.7 342.3,1030.1 656.6,1132.5 656.9,1133.4 572.1,1213.3" fill="#22D3EE" fill-opacity="0.65" />
    <polygon points="634.4,903.9 680.6,995.5 656.6,1132.5 342.3,1030.1 283.3,911.5 475.2,784.9" fill="#86EFAC" fill-opacity="0.65" />
    <polygon points="1320.5,2013.5 1526.1,1723.7 1577.4,1715.7 1816.4,2053.0 1313.9,2053.0" fill="#FCD34D" fill-opacity="0.65" />
    <polygon points="855.1,896.6 680.6,995.5 634.4,903.9 816.8,505.0 916.9,505.0" fill="#38BDF8" fill-opacity="0.65" />
    <polygon points="3705.1,1447.2 3427.3,967.2 3421.0,900.3 3720.0,734.0 3720.0,1453.9" fill="#38BDF8" fill-opacity="0.65" />
    <polygon points="2515.5,821.3 2551.7,811.1 2837.5,911.4 2857.1,1051.8 2840.6,1087.1 2741.0,1190.5 2531.9,1174.7 2530.9,1174.0" fill="#A78BFA" fill-opacity="0.65" />
    <polygon points="3292.2,1476.1 3126.9,1764.1 2916.3,1529.4 3112.2,1392.5" fill="#F472B6" fill-opacity="0.65" />
    <polygon points="2894.6,779.7 2837.5,911.4 2551.7,811.1 2676.7,505.0 2796.8,505.0" fill="#FB923C" fill-opacity="0.65" />
    <polygon points="3126.9,1764.1 3292.2,1476.1 3548.9,1423.8 3705.1,1447.2 3720.0,1453.9 3720.0,1480.1 3188.9,2021.9" fill="#FACC15" fill-opacity="0.65" />
    <polygon points="2110.2,1240.4 2410.5,1146.9 2530.9,1174.0 2531.9,1174.7 2447.0,1409.9 2168.2,1364.1 2126.6,1334.1" fill="#4ADE80" fill-opacity="0.65" />
    <polygon points="2821.4,1850.4 2788.2,1523.7 2800.6,1511.6 2916.3,1529.4 3126.9,1764.1 3188.9,2021.9 3182.0,2053.0 3021.9,2053.0" fill="#2DD4BF" fill-opacity="0.65" />
    <polygon points="528.3,1678.8 510.1,1484.9 675.9,1474.0 741.7,1699.1" fill="#60A5FA" fill-opacity="0.65" />
    <polygon points="634.4,903.9 475.2,784.9 477.1,505.0 816.8,505.0" fill="#E879F9" fill-opacity="0.65" />
    <polygon points="855.1,896.6 1164.8,1007.6 1102.2,1075.0 733.1,1193.8 656.9,1133.4 656.6,1132.5 680.6,995.5" fill="#34D399" fill-opacity="0.65" />
    <polygon points="2551.7,811.1 2515.5,821.3 2392.2,791.6 2267.4,505.0 2676.7,505.0" fill="#F87171" fill-opacity="0.65" />
    <polygon points="2009.3,1182.4 2052.8,813.6 2227.1,914.1 2091.2,1221.3" fill="#818CF8" fill-opacity="0.65" />
    <polygon points="1579.1,1714.3 1710.4,1444.2 1800.8,1506.4 1902.1,1714.9" fill="#FBBF24" fill-opacity="0.65" />
    <polygon points="1710.4,1444.2 1579.1,1714.3 1577.4,1715.7 1526.1,1723.7 1380.5,1555.9 1362.4,1398.6 1373.2,1383.6 1478.1,1352.7 1701.1,1420.4" fill="#A3E635" fill-opacity="0.65" />
    <polygon points="752.3,1800.5 768.8,1716.1 816.1,1699.5 985.4,1792.6 1062.2,2053.0 823.0,2053.0" fill="#C084FC" fill-opacity="0.65" />
    <polygon points="1102.2,1075.0 1164.8,1007.6 1199.5,992.0 1373.2,1383.6 1362.4,1398.6 1031.6,1453.9 1030.9,1453.6" fill="#FB7185" fill-opacity="0.65" />
    <polygon points="3201.0,721.5 3276.4,844.0 3120.4,1040.8 2857.1,1051.8 2837.5,911.4 2894.6,779.7" fill="#22D3EE" fill-opacity="0.65" />
    <polygon points="1199.5,992.0 1218.3,966.0 1497.4,958.8 1593.3,1019.1 1478.1,1352.7 1373.2,1383.6" fill="#86EFAC" fill-opacity="0.65" />
    <polygon points="510.1,1484.9 500.7,1475.8 572.1,1213.3 656.9,1133.4 733.1,1193.8 787.6,1319.5 675.9,1474.0" fill="#FCD34D" fill-opacity="0.65" />
    <polygon points="816.1,1699.5 988.2,1457.0 1030.9,1453.6 1031.6,1453.9 1135.1,1680.4 985.4,1792.6" fill="#38BDF8" fill-opacity="0.65" />
    <polygon points="1526.1,1723.7 1320.5,2013.5 1204.6,1716.8 1380.5,1555.9" fill="#38BDF8" fill-opacity="0.65" />
    <polygon points="1218.3,966.0 1199.5,992.0 1164.8,1007.6 855.1,896.6 916.9,505.0 1152.2,505.0" fill="#A78BFA" fill-opacity="0.65" />
    <polygon points="733.1,1193.8 1102.2,1075.0 1030.9,1453.6 988.2,1457.0 787.6,1319.5" fill="#F472B6" fill-opacity="0.65" />
    <polygon points="120.0,1775.1 400.0,1775.4 537.7,1922.5 556.8,2053.0 120.0,2053.0" fill="#FB923C" fill-opacity="0.65" />
    <polygon points="2316.2,890.7 2392.2,791.6 2515.5,821.3 2530.9,1174.0 2410.5,1146.9" fill="#FACC15" fill-opacity="0.65" />
    <polygon points="3223.9,1175.4 3120.4,1040.8 3276.4,844.0 3421.0,900.3 3427.3,967.2 3264.7,1180.0" fill="#4ADE80" fill-opacity="0.65" />
    <polygon points="1973.1,1868.4 1949.5,1753.0 2059.7,1610.6 2363.2,1672.0 2367.8,1675.4 2355.4,1707.5" fill="#2DD4BF" fill-opacity="0.65" />
    <polygon points="2091.2,1221.3 2227.1,914.1 2316.2,890.7 2410.5,1146.9 2110.2,1240.4" fill="#60A5FA" fill-opacity="0.65" />
    <polygon points="1835.4,806.2 1743.7,1023.8 1593.3,1019.1 1497.4,958.8 1593.2,505.0 1624.9,505.0" fill="#E879F9" fill-opacity="0.65" />
    <polygon points="3201.0,721.5 2894.6,779.7 2796.8,505.0 3248.0,505.0" fill="#34D399" fill-opacity="0.65" />
    <polygon points="2025.7,769.8 1835.4,806.2 1624.9,505.0 2162.7,505.0" fill="#F87171" fill-opacity="0.65" />
    <polygon points="2625.0,1853.0 2545.6,1618.5 2788.2,1523.7 2821.4,1850.4" fill="#818CF8" fill-opacity="0.65" />
    <polygon points="3120.4,1040.8 3223.9,1175.4 3109.2,1322.2 2840.6,1087.1 2857.1,1051.8" fill="#FBBF24" fill-opacity="0.65" />
    <polygon points="2840.6,1087.1 3109.2,1322.2 3112.2,1392.5 2916.3,1529.4 2800.6,1511.6 2741.0,1190.5" fill="#A3E635" fill-opacity="0.65" />
    <polygon points="2059.7,1610.6 2077.7,1422.0 2126.6,1334.1 2168.2,1364.1 2363.2,1672.0" fill="#C084FC" fill-opacity="0.65" />
    <polygon points="3109.2,1322.2 3223.9,1175.4 3264.7,1180.0 3548.9,1423.8 3292.2,1476.1 3112.2,1392.5" fill="#FB7185" fill-opacity="0.65" />
    <polygon points="2392.2,791.6 2316.2,890.7 2227.1,914.1 2052.8,813.6 2025.7,769.8 2162.7,505.0 2267.4,505.0" fill="#22D3EE" fill-opacity="0.65" />
    <polygon points="3421.0,900.3 3276.4,844.0 3201.0,721.5 3248.0,505.0 3720.0,505.0 3720.0,734.0" fill="#86EFAC" fill-opacity="0.65" />
    <polygon points="500.7,1475.8 120.0,1422.8 120.0,1407.1 199.5,1333.7 572.1,1213.3" fill="#FCD34D" fill-opacity="0.65" />
    <polygon points="400.0,1775.4 528.3,1678.8 741.7,1699.1 768.8,1716.1 752.3,1800.5 537.7,1922.5" fill="#38BDF8" fill-opacity="0.65" />
    <polygon points="2625.0,1853.0 2821.4,1850.4 3021.9,2053.0 2532.3,2053.0" fill="#38BDF8" fill-opacity="0.65" />
    <polygon points="1973.1,1868.4 2355.4,1707.5 2368.4,2053.0 1951.3,2053.0" fill="#A78BFA" fill-opacity="0.65" />
    <polygon points="2025.7,769.8 2052.8,813.6 2009.3,1182.4 1866.7,1163.1 1743.7,1023.8 1835.4,806.2" fill="#F472B6" fill-opacity="0.65" />
    <polygon points="1710.4,1444.2 1701.1,1420.4 1866.7,1163.1 2009.3,1182.4 2091.2,1221.3 2110.2,1240.4 2126.6,1334.1 2077.7,1422.0 1800.8,1506.4" fill="#FB923C" fill-opacity="0.65" />
  </g>
  <g>
    <circle cx="774.9" cy="1516.7" r="19" fill="#0F172A" stroke="#FFFFFF" stroke-width="7" />
    <circle cx="1942.3" cy="1537.9" r="19" fill="#0F172A" stroke="#FFFFFF" stroke-width="7" />
    <circle cx="1100.0" cy="1808.6" r="19" fill="#0F172A" stroke="#FFFFFF" stroke-width="7" />
    <circle cx="1220.3" cy="1578.5" r="19" fill="#0F172A" stroke="#FFFFFF" stroke-width="7" />
    <circle cx="421.1" cy="1581.5" r="19" fill="#0F172A" stroke="#FFFFFF" stroke-width="7" />
    <circle cx="1737.9" cy="1792.0" r="19" fill="#0F172A" stroke="#FFFFFF" stroke-width="7" />
    <circle cx="2337.8" cy="1467.0" r="19" fill="#0F172A" stroke="#FFFFFF" stroke-width="7" />
    <circle cx="2501.4" cy="1838.0" r="19" fill="#0F172A" stroke="#FFFFFF" stroke-width="7" />
    <circle cx="2569.3" cy="1395.8" r="19" fill="#0F172A" stroke="#FFFFFF" stroke-width="7" />
    <circle cx="3559.0" cy="1891.2" r="19" fill="#0F172A" stroke="#FFFFFF" stroke-width="7" />
    <circle cx="1635.9" cy="1230.9" r="19" fill="#0F172A" stroke="#FFFFFF" stroke-width="7" />
    <circle cx="322.5" cy="728.7" r="19" fill="#0F172A" stroke="#FFFFFF" stroke-width="7" />
    <circle cx="663.3" cy="1933.9" r="19" fill="#0F172A" stroke="#FFFFFF" stroke-width="7" />
    <circle cx="201.3" cy="1079.5" r="19" fill="#0F172A" stroke="#FFFFFF" stroke-width="7" />
    <circle cx="1418.9" cy="761.8" r="19" fill="#0F172A" stroke="#FFFFFF" stroke-width="7" />
    <circle cx="3388.8" cy="1138.7" r="19" fill="#0F172A" stroke="#FFFFFF" stroke-width="7" />
    <circle cx="394.2" cy="1170.3" r="19" fill="#0F172A" stroke="#FFFFFF" stroke-width="7" />
    <circle cx="466.8" cy="947.4" r="19" fill="#0F172A" stroke="#FFFFFF" stroke-width="7" />
    <circle cx="1596.1" cy="1892.4" r="19" fill="#0F172A" stroke="#FFFFFF" stroke-width="7" />
    <circle cx="768.9" cy="795.0" r="19" fill="#0F172A" stroke="#FFFFFF" stroke-width="7" />
    <circle cx="3595.1" cy="1019.3" r="19" fill="#0F172A" stroke="#FFFFFF" stroke-width="7" />
    <circle cx="2602.3" cy="961.7" r="19" fill="#0F172A" stroke="#FFFFFF" stroke-width="7" />
    <circle cx="3132.5" cy="1546.1" r="19" fill="#0F172A" stroke="#FFFFFF" stroke-width="7" />
    <circle cx="2685.3" cy="725.2" r="19" fill="#0F172A" stroke="#FFFFFF" stroke-width="7" />
    <circle cx="3312.2" cy="1649.3" r="19" fill="#0F172A" stroke="#FFFFFF" stroke-width="7" />
    <circle cx="2361.8" cy="1320.9" r="19" fill="#0F172A" stroke="#FFFFFF" stroke-width="7" />
    <circle cx="2909.6" cy="1746.2" r="19" fill="#0F172A" stroke="#FFFFFF" stroke-width="7" />
    <circle cx="615.5" cy="1563.3" r="19" fill="#0F172A" stroke="#FFFFFF" stroke-width="7" />
    <circle cx="628.7" cy="730.8" r="19" fill="#0F172A" stroke="#FFFFFF" stroke-width="7" />
    <circle cx="898.0" cy="1022.8" r="19" fill="#0F172A" stroke="#FFFFFF" stroke-width="7" />
    <circle cx="2516.4" cy="656.2" r="19" fill="#0F172A" stroke="#FFFFFF" stroke-width="7" />
    <circle cx="2110.5" cy="959.9" r="19" fill="#0F172A" stroke="#FFFFFF" stroke-width="7" />
    <circle cx="1738.1" cy="1637.2" r="19" fill="#0F172A" stroke="#FFFFFF" stroke-width="7" />
    <circle cx="1541.6" cy="1541.7" r="19" fill="#0F172A" stroke="#FFFFFF" stroke-width="7" />
    <circle cx="897.7" cy="1868.3" r="19" fill="#0F172A" stroke="#FFFFFF" stroke-width="7" />
    <circle cx="1169.6" cy="1274.7" r="19" fill="#0F172A" stroke="#FFFFFF" stroke-width="7" />
    <circle cx="3077.5" cy="895.3" r="19" fill="#0F172A" stroke="#FFFFFF" stroke-width="7" />
    <circle cx="1429.2" cy="1159.6" r="19" fill="#0F172A" stroke="#FFFFFF" stroke-width="7" />
    <circle cx="604.3" cy="1393.4" r="19" fill="#0F172A" stroke="#FFFFFF" stroke-width="7" />
    <circle cx="1002.3" cy="1678.1" r="19" fill="#0F172A" stroke="#FFFFFF" stroke-width="7" />
    <circle cx="1343.8" cy="1713.4" r="19" fill="#0F172A" stroke="#FFFFFF" stroke-width="7" />
    <circle cx="968.4" cy="826.4" r="19" fill="#0F172A" stroke="#FFFFFF" stroke-width="7" />
    <circle cx="966.8" cy="1236.5" r="19" fill="#0F172A" stroke="#FFFFFF" stroke-width="7" />
    <circle cx="420.6" cy="1969.3" r="19" fill="#0F172A" stroke="#FFFFFF" stroke-width="7" />
    <circle cx="2441.3" cy="968.7" r="19" fill="#0F172A" stroke="#FFFFFF" stroke-width="7" />
    <circle cx="3271.9" cy="1049.4" r="19" fill="#0F172A" stroke="#FFFFFF" stroke-width="7" />
    <circle cx="2159.5" cy="1706.0" r="19" fill="#0F172A" stroke="#FFFFFF" stroke-width="7" />
    <circle cx="2271.6" cy="1031.2" r="19" fill="#0F172A" stroke="#FFFFFF" stroke-width="7" />
    <circle cx="1648.8" cy="810.4" r="19" fill="#0F172A" stroke="#FFFFFF" stroke-width="7" />
    <circle cx="3022.3" cy="605.1" r="19" fill="#0F172A" stroke="#FFFFFF" stroke-width="7" />
    <circle cx="1903.4" cy="632.5" r="19" fill="#0F172A" stroke="#FFFFFF" stroke-width="7" />
    <circle cx="2714.1" cy="1766.1" r="19" fill="#0F172A" stroke="#FFFFFF" stroke-width="7" />
    <circle cx="3089.8" cy="1189.3" r="19" fill="#0F172A" stroke="#FFFFFF" stroke-width="7" />
    <circle cx="2975.0" cy="1320.6" r="19" fill="#0F172A" stroke="#FFFFFF" stroke-width="7" />
    <circle cx="2188.7" cy="1561.4" r="19" fill="#0F172A" stroke="#FFFFFF" stroke-width="7" />
    <circle cx="3242.8" cy="1309.0" r="19" fill="#0F172A" stroke="#FFFFFF" stroke-width="7" />
    <circle cx="2208.4" cy="790.3" r="19" fill="#0F172A" stroke="#FFFFFF" stroke-width="7" />
    <circle cx="3411.8" cy="689.6" r="19" fill="#0F172A" stroke="#FFFFFF" stroke-width="7" />
    <circle cx="453.0" cy="1352.2" r="19" fill="#0F172A" stroke="#FFFFFF" stroke-width="7" />
    <circle cx="592.1" cy="1808.8" r="19" fill="#0F172A" stroke="#FFFFFF" stroke-width="7" />
    <circle cx="2716.3" cy="1937.6" r="19" fill="#0F172A" stroke="#FFFFFF" stroke-width="7" />
    <circle cx="2219.6" cy="1848.7" r="19" fill="#0F172A" stroke="#FFFFFF" stroke-width="7" />
    <circle cx="1962.7" cy="942.5" r="19" fill="#0F172A" stroke="#FFFFFF" stroke-width="7" />
    <circle cx="1900.7" cy="1401.3" r="19" fill="#0F172A" stroke="#FFFFFF" stroke-width="7" />
  </g>
  <g font-family="Arial, sans-serif" font-size="47" fill="#64748B"><text x="227" y="2205">Each region contains all points closest to its dark site marker.</text><text x="3083" y="2205">sites: 64</text></g>
</svg>
