<svg xmlns="http://www.w3.org/2000/svg" width="3840" height="2400" viewBox="0 0 3840 2400" role="img" aria-labelledby="title description">
  <title id="title">Voronoi diagram with 77 sites</title>
  <desc id="description">A high-resolution 3840x2400 clipped Voronoi diagram with 77 sites. Seed: 1790615433.</desc>
  <defs>
    <linearGradient id="background" x1="0" y1="0" x2="1" y2="1"><stop stop-color="#F8FAFC"/><stop offset="1" stop-color="#E0F2FE"/></linearGradient>
    <filter id="shadow" x="-5%" y="-5%" width="110%" height="110%"><feDropShadow dx="0" dy="15" stdDeviation="22" flood-color="#0F172A" flood-opacity=".12"/></filter>
  </defs>
  <rect width="3840" height="2400" fill="url(#background)"/>
  <rect x="120" y="120" width="3600" height="2160" rx="63" fill="#FFFFFF" filter="url(#shadow)"/>
  <g font-family="Arial, sans-serif"><text x="227" y="296" font-size="101" font-weight="700" fill="#0F172A">Voronoi Diagram</text><text x="227" y="397" font-size="56" fill="#475569">77 sites · generated with seed 1790615433 · Ultra HD (3840x2400)</text></g>
  <g stroke="#FFFFFF" stroke-width="7" stroke-linejoin="round">
    <polygon points="1070.1,966.0 915.6,1001.4 905.5,997.7 845.0,933.3 847.1,771.4 968.7,716.7 1118.7,918.8" fill="#38BDF8" fill-opacity="0.65" />
    <polygon points="2347.9,1126.5 2338.1,1445.6 2314.5,1459.0 2106.5,1159.3" fill="#A78BFA" fill-opacity="0.65" />
    <polygon points="689.3,1154.3 640.9,1309.3 414.4,1170.6 416.0,940.3 579.4,884.7 636.3,928.0" fill="#F472B6" fill-opacity="0.65" />
    <polygon points="1681.8,741.1 1785.7,901.0 1608.3,949.4 1453.0,778.2 1440.5,698.1 1444.3,690.9" fill="#FB923C" fill-opacity="0.65" />
    <polygon points="1444.3,690.9 1440.5,698.1 1225.2,748.6 1085.0,505.0 1460.8,505.0" fill="#FACC15" fill-opacity="0.65" />
    <polygon points="3514.0,1496.3 3485.6,1516.6 3157.7,1497.3 3050.5,1344.6 3311.0,1276.7" fill="#4ADE80" fill-opacity="0.65" />
    <polygon points="1681.8,741.1 1444.3,690.9 1460.8,505.0 1730.6,505.0" fill="#2DD4BF" fill-opacity="0.65" />
    <polygon points="2306.6,840.1 2122.4,830.2 2160.3,505.0 2468.2,505.0" fill="#60A5FA" fill-opacity="0.65" />
    <polygon points="1355.4,934.9 1241.1,960.5 1144.2,912.1 1225.2,748.6 1440.5,698.1 1453.0,778.2" fill="#E879F9" fill-opacity="0.65" />
    <polygon points="923.4,1859.5 957.8,1730.5 1017.5,1686.8 1210.4,1649.6 1306.2,1718.0 1306.6,1916.5" fill="#34D399" fill-opacity="0.65" />
    <polygon points="1520.2,1066.8 1504.7,1160.3 1314.0,1166.1 1241.1,960.5 1355.4,934.9" fill="#F87171" fill-opacity="0.65" />
    <polygon points="3443.5,1831.1 3720.0,1828.3 3720.0,2053.0 3418.9,2053.0" fill="#818CF8" fill-opacity="0.65" />
    <polygon points="3502.5,909.9 3263.7,716.7 3254.3,505.0 3720.0,505.0 3720.0,768.3" fill="#FBBF24" fill-opacity="0.65" />
    <polygon points="120.0,1769.4 120.0,1588.5 222.7,1588.2 490.0,1779.1 455.1,1921.2" fill="#A3E635" fill-opacity="0.65" />
    <polygon points="2050.4,879.5 2077.2,1147.0 1925.1,1283.4 1792.7,1097.6 1791.9,902.4 1865.0,876.4" fill="#C084FC" fill-opacity="0.65" />
    <polygon points="1865.0,876.4 1791.9,902.4 1785.7,901.0 1681.8,741.1 1730.6,505.0 1821.0,505.0" fill="#FB7185" fill-opacity="0.65" />
    <polygon points="1225.2,748.6 1144.2,912.1 1118.7,918.8 968.7,716.7 1032.8,505.0 1085.0,505.0" fill="#22D3EE" fill-opacity="0.65" />
    <polygon points="505.2,2034.4 455.1,1921.2 490.0,1779.1 624.1,1719.9 680.2,1801.5" fill="#86EFAC" fill-opacity="0.65" />
    <polygon points="649.1,1461.5 624.1,1719.9 490.0,1779.1 222.7,1588.2" fill="#FCD34D" fill-opacity="0.65" />
    <polygon points="287.1,850.3 120.0,868.0 120.0,505.0 405.1,505.0" fill="#38BDF8" fill-opacity="0.65" />
    <polygon points="1556.1,1236.1 1579.8,1335.6 1418.8,1421.5 1204.7,1384.5 1150.5,1319.0 1314.0,1166.1 1504.7,1160.3" fill="#38BDF8" fill-opacity="0.65" />
    <polygon points="636.3,928.0 579.4,884.7 611.5,790.0 734.5,705.4 847.1,771.4 845.0,933.3" fill="#A78BFA" fill-opacity="0.65" />
    <polygon points="689.3,1154.3 636.3,928.0 845.0,933.3 905.5,997.7" fill="#F472B6" fill-opacity="0.65" />
    <polygon points="3423.1,1810.3 3227.7,1850.6 3136.3,1741.6 3154.1,1710.7 3409.8,1645.8" fill="#FB923C" fill-opacity="0.65" />
    <polygon points="3227.7,1850.6 3423.1,1810.3 3443.5,1831.1 3418.9,2053.0 3242.9,2053.0" fill="#FACC15" fill-opacity="0.65" />
    <polygon points="1862.8,1769.6 1921.5,1704.7 2176.0,1699.7 2187.2,1721.2 2207.5,2053.0 1797.1,2053.0" fill="#4ADE80" fill-opacity="0.65" />
    <polygon points="2874.6,835.1 2712.8,756.7 2637.3,505.0 3134.2,505.0" fill="#2DD4BF" fill-opacity="0.65" />
    <polygon points="2930.2,1461.3 2811.3,1495.0 2606.6,1430.4 2765.2,1226.2 2802.1,1209.8 2957.8,1225.4 3005.6,1274.5 3036.0,1338.2" fill="#60A5FA" fill-opacity="0.65" />
    <polygon points="2202.3,1591.1 1920.5,1298.1 1925.1,1283.4 2077.2,1147.0 2106.5,1159.3 2314.5,1459.0" fill="#E879F9" fill-opacity="0.65" />
    <polygon points="3263.7,716.7 3191.1,906.9 2972.2,944.4 2886.3,859.7 2874.6,835.1 3134.2,505.0 3254.3,505.0" fill="#34D399" fill-opacity="0.65" />
    <polygon points="1791.9,902.4 1792.7,1097.6 1556.1,1236.1 1504.7,1160.3 1520.2,1066.8 1608.3,949.4 1785.7,901.0" fill="#F87171" fill-opacity="0.65" />
    <polygon points="1003.5,1341.9 1140.9,1316.5 1150.5,1319.0 1204.7,1384.5 1210.4,1649.6 1017.5,1686.8" fill="#818CF8" fill-opacity="0.65" />
    <polygon points="926.4,1328.8 685.2,1394.8 640.9,1309.3 689.3,1154.3 905.5,997.7 915.6,1001.4" fill="#FBBF24" fill-opacity="0.65" />
    <polygon points="3036.0,1338.2 3005.6,1274.5 3262.8,1020.1 3391.7,1086.2 3311.0,1276.7 3050.5,1344.6" fill="#A3E635" fill-opacity="0.65" />
    <polygon points="2531.2,1133.1 2459.1,997.9 2461.2,981.1 2492.8,967.8 2729.7,1045.4 2802.1,1209.8 2765.2,1226.2" fill="#C084FC" fill-opacity="0.65" />
    <polygon points="120.0,1769.4 455.1,1921.2 505.2,2034.4 506.4,2053.0 120.0,2053.0" fill="#FB7185" fill-opacity="0.65" />
    <polygon points="2712.8,756.7 2492.8,967.8 2461.2,981.1 2306.6,840.1 2468.2,505.0 2637.3,505.0" fill="#22D3EE" fill-opacity="0.65" />
    <polygon points="2729.7,1045.4 2886.3,859.7 2972.2,944.4 2957.8,1225.4 2802.1,1209.8" fill="#86EFAC" fill-opacity="0.65" />
    <polygon points="1140.9,1316.5 1003.5,1341.9 926.4,1328.8 915.6,1001.4 1070.1,966.0" fill="#FCD34D" fill-opacity="0.65" />
    <polygon points="1520.2,1066.8 1355.4,934.9 1453.0,778.2 1608.3,949.4" fill="#38BDF8" fill-opacity="0.65" />
    <polygon points="120.0,1308.2 120.0,868.0 287.1,850.3 416.0,940.3 414.4,1170.6" fill="#38BDF8" fill-opacity="0.65" />
    <polygon points="1715.7,1483.5 1711.8,1434.0 1920.5,1298.1 2202.3,1591.1 2176.0,1699.7 1921.5,1704.7" fill="#A78BFA" fill-opacity="0.65" />
    <polygon points="3409.8,1645.8 3154.1,1710.7 3157.7,1497.3 3485.6,1516.6" fill="#F472B6" fill-opacity="0.65" />
    <polygon points="2122.4,830.2 2100.0,839.3 1907.4,505.0 2160.3,505.0" fill="#FB923C" fill-opacity="0.65" />
    <polygon points="2960.8,1784.8 2930.2,1461.3 3036.0,1338.2 3050.5,1344.6 3157.7,1497.3 3154.1,1710.7 3136.3,1741.6" fill="#FACC15" fill-opacity="0.65" />
    <polygon points="3262.8,1020.1 3005.6,1274.5 2957.8,1225.4 2972.2,944.4 3191.1,906.9" fill="#4ADE80" fill-opacity="0.65" />
    <polygon points="2764.4,1685.4 2616.3,1664.4 2567.5,1443.2 2606.6,1430.4 2811.3,1495.0" fill="#2DD4BF" fill-opacity="0.65" />
    <polygon points="2187.2,1721.2 2546.2,1764.6 2667.9,2053.0 2207.5,2053.0" fill="#60A5FA" fill-opacity="0.65" />
    <polygon points="894.5,1896.7 680.2,1801.5 624.1,1719.9 649.1,1461.5 672.2,1436.1 957.8,1730.5 923.4,1859.5" fill="#E879F9" fill-opacity="0.65" />
    <polygon points="1306.6,1916.5 1306.2,1718.0 1414.6,1661.3 1454.0,1664.7 1598.6,1851.5 1552.6,2053.0 1369.2,2053.0" fill="#34D399" fill-opacity="0.65" />
    <polygon points="1314.0,1166.1 1150.5,1319.0 1140.9,1316.5 1070.1,966.0 1118.7,918.8 1144.2,912.1 1241.1,960.5" fill="#F87171" fill-opacity="0.65" />
    <polygon points="1414.6,1661.3 1306.2,1718.0 1210.4,1649.6 1204.7,1384.5 1418.8,1421.5" fill="#818CF8" fill-opacity="0.65" />
    <polygon points="2077.2,1147.0 2050.4,879.5 2100.0,839.3 2122.4,830.2 2306.6,840.1 2461.2,981.1 2459.1,997.9 2347.9,1126.5 2106.5,1159.3" fill="#FBBF24" fill-opacity="0.65" />
    <polygon points="2914.3,1824.2 2960.8,1784.8 3136.3,1741.6 3227.7,1850.6 3242.9,2053.0 2836.6,2053.0" fill="#A3E635" fill-opacity="0.65" />
    <polygon points="1920.5,1298.1 1711.8,1434.0 1579.8,1335.6 1556.1,1236.1 1792.7,1097.6 1925.1,1283.4" fill="#C084FC" fill-opacity="0.65" />
    <polygon points="2546.2,1764.6 2187.2,1721.2 2176.0,1699.7 2202.3,1591.1 2314.5,1459.0 2338.1,1445.6 2513.9,1425.0 2567.5,1443.2 2616.3,1664.4" fill="#FB7185" fill-opacity="0.65" />
    <polygon points="1711.8,1434.0 1715.7,1483.5 1630.2,1588.8 1454.0,1664.7 1414.6,1661.3 1418.8,1421.5 1579.8,1335.6" fill="#22D3EE" fill-opacity="0.65" />
    <polygon points="2459.1,997.9 2531.2,1133.1 2513.9,1425.0 2338.1,1445.6 2347.9,1126.5" fill="#86EFAC" fill-opacity="0.65" />
    <polygon points="3438.5,1074.7 3391.7,1086.2 3262.8,1020.1 3191.1,906.9 3263.7,716.7 3502.5,909.9" fill="#FCD34D" fill-opacity="0.65" />
    <polygon points="2914.3,1824.2 2764.4,1685.4 2811.3,1495.0 2930.2,1461.3 2960.8,1784.8" fill="#38BDF8" fill-opacity="0.65" />
    <polygon points="1598.6,1851.5 1659.6,1788.0 1862.8,1769.6 1797.1,2053.0 1552.6,2053.0" fill="#38BDF8" fill-opacity="0.65" />
    <polygon points="734.5,705.4 611.5,790.0 413.6,505.0 744.7,505.0" fill="#A78BFA" fill-opacity="0.65" />
    <polygon points="2531.2,1133.1 2765.2,1226.2 2606.6,1430.4 2567.5,1443.2 2513.9,1425.0" fill="#F472B6" fill-opacity="0.65" />
    <polygon points="2546.2,1764.6 2616.3,1664.4 2764.4,1685.4 2914.3,1824.2 2836.6,2053.0 2667.9,2053.0" fill="#FB923C" fill-opacity="0.65" />
    <polygon points="1659.6,1788.0 1630.2,1588.8 1715.7,1483.5 1921.5,1704.7 1862.8,1769.6" fill="#FACC15" fill-opacity="0.65" />
    <polygon points="3514.0,1496.3 3311.0,1276.7 3391.7,1086.2 3438.5,1074.7 3720.0,1248.6 3720.0,1466.2" fill="#4ADE80" fill-opacity="0.65" />
    <polygon points="2100.0,839.3 2050.4,879.5 1865.0,876.4 1821.0,505.0 1907.4,505.0" fill="#2DD4BF" fill-opacity="0.65" />
    <polygon points="685.2,1394.8 672.2,1436.1 649.1,1461.5 222.7,1588.2 120.0,1588.5 120.0,1308.2 414.4,1170.6 640.9,1309.3" fill="#60A5FA" fill-opacity="0.65" />
    <polygon points="3438.5,1074.7 3502.5,909.9 3720.0,768.3 3720.0,1248.6" fill="#E879F9" fill-opacity="0.65" />
    <polygon points="3443.5,1831.1 3423.1,1810.3 3409.8,1645.8 3485.6,1516.6 3514.0,1496.3 3720.0,1466.2 3720.0,1828.3" fill="#34D399" fill-opacity="0.65" />
    <polygon points="894.5,1896.7 923.4,1859.5 1306.6,1916.5 1369.2,2053.0 879.0,2053.0" fill="#F87171" fill-opacity="0.65" />
    <polygon points="672.2,1436.1 685.2,1394.8 926.4,1328.8 1003.5,1341.9 1017.5,1686.8 957.8,1730.5" fill="#818CF8" fill-opacity="0.65" />
    <polygon points="968.7,716.7 847.1,771.4 734.5,705.4 744.7,505.0 1032.8,505.0" fill="#FBBF24" fill-opacity="0.65" />
    <polygon points="1659.6,1788.0 1598.6,1851.5 1454.0,1664.7 1630.2,1588.8" fill="#A3E635" fill-opacity="0.65" />
    <polygon points="2712.8,756.7 2874.6,835.1 2886.3,859.7 2729.7,1045.4 2492.8,967.8" fill="#C084FC" fill-opacity="0.65" />
    <polygon points="611.5,790.0 579.4,884.7 416.0,940.3 287.1,850.3 405.1,505.0 413.6,505.0" fill="#FB7185" fill-opacity="0.65" />
    <polygon points="505.2,2034.4 680.2,1801.5 894.5,1896.7 879.0,2053.0 506.4,2053.0" fill="#22D3EE" fill-opacity="0.65" />
  </g>
  <g>
    <circle cx="941.6" cy="840.5" r="18" fill="#0F172A" stroke="#FFFFFF" stroke-width="7" />
    <circle cx="2253.3" cy="1227.3" r="18" fill="#0F172A" stroke="#FFFFFF" stroke-width="7" />
    <circle cx="580.2" cy="1062.6" r="18" fill="#0F172A" stroke="#FFFFFF" stroke-width="7" />
    <circle cx="1596.6" cy="795.9" r="18" fill="#0F172A" stroke="#FFFFFF" stroke-width="7" />
    <circle cx="1271.5" cy="625.0" r="18" fill="#0F172A" stroke="#FFFFFF" stroke-width="7" />
    <circle cx="3287.6" cy="1413.9" r="18" fill="#0F172A" stroke="#FFFFFF" stroke-width="7" />
    <circle cx="1626.1" cy="656.5" r="18" fill="#0F172A" stroke="#FFFFFF" stroke-width="7" />
    <circle cx="2253.1" cy="618.6" r="18" fill="#0F172A" stroke="#FFFFFF" stroke-width="7" />
    <circle cx="1321.6" cy="838.7" r="18" fill="#0F172A" stroke="#FFFFFF" stroke-width="7" />
    <circle cx="1135.1" cy="1805.1" r="18" fill="#0F172A" stroke="#FFFFFF" stroke-width="7" />
    <circle cx="1365.8" cy="1036.4" r="18" fill="#0F172A" stroke="#FFFFFF" stroke-width="7" />
    <circle cx="3520.6" cy="1923.5" r="18" fill="#0F172A" stroke="#FFFFFF" stroke-width="7" />
    <circle cx="3464.9" cy="772.6" r="18" fill="#0F172A" stroke="#FFFFFF" stroke-width="7" />
    <circle cx="395.0" cy="1807.9" r="18" fill="#0F172A" stroke="#FFFFFF" stroke-width="7" />
    <circle cx="1909.2" cy="1086.6" r="18" fill="#0F172A" stroke="#FFFFFF" stroke-width="7" />
    <circle cx="1766.5" cy="685.5" r="18" fill="#0F172A" stroke="#FFFFFF" stroke-width="7" />
    <circle cx="1095.1" cy="726.5" r="18" fill="#0F172A" stroke="#FFFFFF" stroke-width="7" />
    <circle cx="561.0" cy="1848.6" r="18" fill="#0F172A" stroke="#FFFFFF" stroke-width="7" />
    <circle cx="486.4" cy="1679.8" r="18" fill="#0F172A" stroke="#FFFFFF" stroke-width="7" />
    <circle cx="206.7" cy="652.7" r="18" fill="#0F172A" stroke="#FFFFFF" stroke-width="7" />
    <circle cx="1373.7" cy="1292.4" r="18" fill="#0F172A" stroke="#FFFFFF" stroke-width="7" />
    <circle cx="750.9" cy="838.0" r="18" fill="#0F172A" stroke="#FFFFFF" stroke-width="7" />
    <circle cx="746.3" cy="1023.7" r="18" fill="#0F172A" stroke="#FFFFFF" stroke-width="7" />
    <circle cx="3317.1" cy="1753.6" r="18" fill="#0F172A" stroke="#FFFFFF" stroke-width="7" />
    <circle cx="3348.1" cy="1904.3" r="18" fill="#0F172A" stroke="#FFFFFF" stroke-width="7" />
    <circle cx="1943.4" cy="1911.5" r="18" fill="#0F172A" stroke="#FFFFFF" stroke-width="7" />
    <circle cx="2872.4" cy="636.3" r="18" fill="#0F172A" stroke="#FFFFFF" stroke-width="7" />
    <circle cx="2786.0" cy="1377.2" r="18" fill="#0F172A" stroke="#FFFFFF" stroke-width="7" />
    <circle cx="2118.9" cy="1320.6" r="18" fill="#0F172A" stroke="#FFFFFF" stroke-width="7" />
    <circle cx="3068.3" cy="790.3" r="18" fill="#0F172A" stroke="#FFFFFF" stroke-width="7" />
    <circle cx="1676.1" cy="1087.6" r="18" fill="#0F172A" stroke="#FFFFFF" stroke-width="7" />
    <circle cx="1082.7" cy="1533.2" r="18" fill="#0F172A" stroke="#FFFFFF" stroke-width="7" />
    <circle cx="831.1" cy="1140.9" r="18" fill="#0F172A" stroke="#FFFFFF" stroke-width="7" />
    <circle cx="3223.6" cy="1168.3" r="18" fill="#0F172A" stroke="#FFFFFF" stroke-width="7" />
    <circle cx="2667.1" cy="1109.7" r="18" fill="#0F172A" stroke="#FFFFFF" stroke-width="7" />
    <circle cx="330.2" cy="1950.7" r="18" fill="#0F172A" stroke="#FFFFFF" stroke-width="7" />
    <circle cx="2513.2" cy="744.0" r="18" fill="#0F172A" stroke="#FFFFFF" stroke-width="7" />
    <circle cx="2819.4" cy="1042.6" r="18" fill="#0F172A" stroke="#FFFFFF" stroke-width="7" />
    <circle cx="1009.0" cy="1135.0" r="18" fill="#0F172A" stroke="#FFFFFF" stroke-width="7" />
    <circle cx="1456.7" cy="922.9" r="18" fill="#0F172A" stroke="#FFFFFF" stroke-width="7" />
    <circle cx="250.1" cy="1060.3" r="18" fill="#0F172A" stroke="#FFFFFF" stroke-width="7" />
    <circle cx="1935.2" cy="1497.3" r="18" fill="#0F172A" stroke="#FFFFFF" stroke-width="7" />
    <circle cx="3276.9" cy="1595.3" r="18" fill="#0F172A" stroke="#FFFFFF" stroke-width="7" />
    <circle cx="2043.9" cy="594.2" r="18" fill="#0F172A" stroke="#FFFFFF" stroke-width="7" />
    <circle cx="3035.2" cy="1591.2" r="18" fill="#0F172A" stroke="#FFFFFF" stroke-width="7" />
    <circle cx="3114.1" cy="1057.7" r="18" fill="#0F172A" stroke="#FFFFFF" stroke-width="7" />
    <circle cx="2723.0" cy="1576.9" r="18" fill="#0F172A" stroke="#FFFFFF" stroke-width="7" />
    <circle cx="2452.4" cy="1880.3" r="18" fill="#0F172A" stroke="#FFFFFF" stroke-width="7" />
    <circle cx="766.9" cy="1706.9" r="18" fill="#0F172A" stroke="#FFFFFF" stroke-width="7" />
    <circle cx="1477.6" cy="1804.5" r="18" fill="#0F172A" stroke="#FFFFFF" stroke-width="7" />
    <circle cx="1192.0" cy="1098.1" r="18" fill="#0F172A" stroke="#FFFFFF" stroke-width="7" />
    <circle cx="1333.0" cy="1527.9" r="18" fill="#0F172A" stroke="#FFFFFF" stroke-width="7" />
    <circle cx="2229.9" cy="1054.6" r="18" fill="#0F172A" stroke="#FFFFFF" stroke-width="7" />
    <circle cx="3116.7" cy="1921.7" r="18" fill="#0F172A" stroke="#FFFFFF" stroke-width="7" />
    <circle cx="1744.3" cy="1204.2" r="18" fill="#0F172A" stroke="#FFFFFF" stroke-width="7" />
    <circle cx="2482.7" cy="1629.9" r="18" fill="#0F172A" stroke="#FFFFFF" stroke-width="7" />
    <circle cx="1500.8" cy="1530.8" r="18" fill="#0F172A" stroke="#FFFFFF" stroke-width="7" />
    <circle cx="2436.1" cy="1232.9" r="18" fill="#0F172A" stroke="#FFFFFF" stroke-width="7" />
    <circle cx="3360.4" cy="901.8" r="18" fill="#0F172A" stroke="#FFFFFF" stroke-width="7" />
    <circle cx="2851.5" cy="1608.6" r="18" fill="#0F172A" stroke="#FFFFFF" stroke-width="7" />
    <circle cx="1727.9" cy="1861.5" r="18" fill="#0F172A" stroke="#FFFFFF" stroke-width="7" />
    <circle cx="616.6" cy="642.6" r="18" fill="#0F172A" stroke="#FFFFFF" stroke-width="7" />
    <circle cx="2613.9" cy="1243.4" r="18" fill="#0F172A" stroke="#FFFFFF" stroke-width="7" />
    <circle cx="2694.4" cy="1778.2" r="18" fill="#0F172A" stroke="#FFFFFF" stroke-width="7" />
    <circle cx="1713.6" cy="1703.4" r="18" fill="#0F172A" stroke="#FFFFFF" stroke-width="7" />
    <circle cx="3449.6" cy="1264.1" r="18" fill="#0F172A" stroke="#FFFFFF" stroke-width="7" />
    <circle cx="1916.1" cy="667.8" r="18" fill="#0F172A" stroke="#FFFFFF" stroke-width="7" />
    <circle cx="393.6" cy="1367.4" r="18" fill="#0F172A" stroke="#FFFFFF" stroke-width="7" />
    <circle cx="3612.8" cy="999.8" r="18" fill="#0F172A" stroke="#FFFFFF" stroke-width="7" />
    <circle cx="3518.7" cy="1737.2" r="18" fill="#0F172A" stroke="#FFFFFF" stroke-width="7" />
    <circle cx="1110.1" cy="1973.2" r="18" fill="#0F172A" stroke="#FFFFFF" stroke-width="7" />
    <circle cx="940.1" cy="1539.0" r="18" fill="#0F172A" stroke="#FFFFFF" stroke-width="7" />
    <circle cx="858.2" cy="654.9" r="18" fill="#0F172A" stroke="#FFFFFF" stroke-width="7" />
    <circle cx="1583.4" cy="1722.7" r="18" fill="#0F172A" stroke="#FFFFFF" stroke-width="7" />
    <circle cx="2717.3" cy="956.6" r="18" fill="#0F172A" stroke="#FFFFFF" stroke-width="7" />
    <circle cx="471.6" cy="743.3" r="18" fill="#0F172A" stroke="#FFFFFF" stroke-width="7" />
    <circle cx="668.1" cy="1929.2" r="18" fill="#0F172A" stroke="#FFFFFF" stroke-width="7" />
  </g>
  <g font-family="Arial, sans-serif" font-size="47" fill="#64748B"><text x="227" y="2205">Each region contains all points closest to its dark site marker.</text><text x="3083" y="2205">sites: 77</text></g>
</svg>
