<svg xmlns="http://www.w3.org/2000/svg" width="3840" height="2400" viewBox="0 0 3840 2400" role="img" aria-labelledby="title description">
  <title id="title">Voronoi diagram with 20 sites</title>
  <desc id="description">A high-resolution 3840x2400 clipped Voronoi diagram with 20 sites. Seed: 1791861476.</desc>
  <defs>
    <linearGradient id="background" x1="0" y1="0" x2="1" y2="1"><stop stop-color="#F8FAFC"/><stop offset="1" stop-color="#E0F2FE"/></linearGradient>
    <filter id="shadow" x="-5%" y="-5%" width="110%" height="110%"><feDropShadow dx="0" dy="15" stdDeviation="22" flood-color="#0F172A" flood-opacity=".12"/></filter>
  </defs>
  <rect width="3840" height="2400" fill="url(#background)"/>
  <rect x="120" y="120" width="3600" height="2160" rx="63" fill="#FFFFFF" filter="url(#shadow)"/>
  <g font-family="Arial, sans-serif"><text x="227" y="296" font-size="101" font-weight="700" fill="#0F172A">Voronoi Diagram</text><text x="227" y="397" font-size="56" fill="#475569">20 sites · generated with seed 1791861476 · Ultra HD (3840x2400)</text></g>
  <g stroke="#FFFFFF" stroke-width="7" stroke-linejoin="round">
    <polygon points="2120.8,1590.9 2497.6,1775.0 2476.5,2053.0 1833.7,2053.0" fill="#38BDF8" fill-opacity="0.65" />
    <polygon points="461.6,1517.6 557.5,1168.9 807.7,1055.3 1094.0,1094.1 1101.2,1205.4 691.4,1866.6" fill="#A78BFA" fill-opacity="0.65" />
    <polygon points="3049.8,1389.0 2711.0,1377.5 2631.2,1298.1 2579.6,1025.6 2931.8,917.9 3095.3,1004.6" fill="#F472B6" fill-opacity="0.65" />
    <polygon points="2603.8,1726.3 2497.6,1775.0 2120.8,1590.9 2109.0,1494.2 2631.2,1298.1 2711.0,1377.5" fill="#FB923C" fill-opacity="0.65" />
    <polygon points="2350.6,853.7 2579.6,1025.6 2631.2,1298.1 2109.0,1494.2 2078.4,1440.6" fill="#FACC15" fill-opacity="0.65" />
    <polygon points="807.7,1055.3 557.5,1168.9 120.0,1030.1 120.0,505.0 403.3,505.0" fill="#4ADE80" fill-opacity="0.65" />
    <polygon points="3095.3,1004.6 2931.8,917.9 2855.4,505.0 3720.0,505.0 3720.0,705.0" fill="#2DD4BF" fill-opacity="0.65" />
    <polygon points="691.4,1866.6 1101.2,1205.4 1428.4,1662.0 1474.9,2053.0 691.9,2053.0" fill="#60A5FA" fill-opacity="0.65" />
    <polygon points="3076.5,1910.8 3071.0,1414.1 3396.4,1404.1 3630.4,2053.0 3155.6,2053.0" fill="#E879F9" fill-opacity="0.65" />
    <polygon points="1428.4,1662.0 1845.2,1310.8 2078.4,1440.6 2109.0,1494.2 2120.8,1590.9 1833.7,2053.0 1474.9,2053.0" fill="#34D399" fill-opacity="0.65" />
    <polygon points="2497.6,1775.0 2603.8,1726.3 3076.5,1910.8 3155.6,2053.0 2476.5,2053.0" fill="#F87171" fill-opacity="0.65" />
    <polygon points="2603.8,1726.3 2711.0,1377.5 3049.8,1389.0 3071.0,1414.1 3076.5,1910.8" fill="#818CF8" fill-opacity="0.65" />
    <polygon points="3396.4,1404.1 3720.0,1114.5 3720.0,2053.0 3630.4,2053.0" fill="#FBBF24" fill-opacity="0.65" />
    <polygon points="120.0,1472.7 461.6,1517.6 691.4,1866.6 691.9,2053.0 120.0,2053.0" fill="#A3E635" fill-opacity="0.65" />
    <polygon points="120.0,1472.7 120.0,1030.1 557.5,1168.9 461.6,1517.6" fill="#C084FC" fill-opacity="0.65" />
    <polygon points="1477.1,663.5 1845.2,1310.8 1428.4,1662.0 1101.2,1205.4 1094.0,1094.1" fill="#FB7185" fill-opacity="0.65" />
    <polygon points="1845.2,1310.8 1477.1,663.5 1527.6,505.0 2198.4,505.0 2350.6,853.7 2078.4,1440.6" fill="#22D3EE" fill-opacity="0.65" />
    <polygon points="3396.4,1404.1 3071.0,1414.1 3049.8,1389.0 3095.3,1004.6 3720.0,705.0 3720.0,1114.5" fill="#86EFAC" fill-opacity="0.65" />
    <polygon points="2931.8,917.9 2579.6,1025.6 2350.6,853.7 2198.4,505.0 2855.4,505.0" fill="#FCD34D" fill-opacity="0.65" />
    <polygon points="1477.1,663.5 1094.0,1094.1 807.7,1055.3 403.3,505.0 1527.6,505.0" fill="#38BDF8" fill-opacity="0.65" />
  </g>
  <g>
    <circle cx="2279.2" cy="1927.8" r="23" fill="#0F172A" stroke="#FFFFFF" stroke-width="7" />
    <circle cx="680.2" cy="1413.4" r="23" fill="#0F172A" stroke="#FFFFFF" stroke-width="7" />
    <circle cx="2840.9" cy="1149.6" r="23" fill="#0F172A" stroke="#FFFFFF" stroke-width="7" />
    <circle cx="2483.9" cy="1508.8" r="23" fill="#0F172A" stroke="#FFFFFF" stroke-width="7" />
    <circle cx="2381.7" cy="1236.5" r="23" fill="#0F172A" stroke="#FFFFFF" stroke-width="7" />
    <circle cx="454.2" cy="915.6" r="23" fill="#0F172A" stroke="#FFFFFF" stroke-width="7" />
    <circle cx="3072.7" cy="712.7" r="23" fill="#0F172A" stroke="#FFFFFF" stroke-width="7" />
    <circle cx="1102.2" cy="1675.1" r="23" fill="#0F172A" stroke="#FFFFFF" stroke-width="7" />
    <circle cx="3321.2" cy="1608.2" r="23" fill="#0F172A" stroke="#FFFFFF" stroke-width="7" />
    <circle cx="1748.5" cy="1598.2" r="23" fill="#0F172A" stroke="#FFFFFF" stroke-width="7" />
    <circle cx="2690.4" cy="1959.1" r="23" fill="#0F172A" stroke="#FFFFFF" stroke-width="7" />
    <circle cx="2825.2" cy="1613.7" r="23" fill="#0F172A" stroke="#FFFFFF" stroke-width="7" />
    <circle cx="3584.7" cy="1513.2" r="23" fill="#0F172A" stroke="#FFFFFF" stroke-width="7" />
    <circle cx="279.5" cy="1677.3" r="23" fill="#0F172A" stroke="#FFFFFF" stroke-width="7" />
    <circle cx="327.0" cy="1316.3" r="23" fill="#0F172A" stroke="#FFFFFF" stroke-width="7" />
    <circle cx="1545.6" cy="1357.3" r="23" fill="#0F172A" stroke="#FFFFFF" stroke-width="7" />
    <circle cx="2038.3" cy="1077.2" r="23" fill="#0F172A" stroke="#FFFFFF" stroke-width="7" />
    <circle cx="3308.8" cy="1205.0" r="23" fill="#0F172A" stroke="#FFFFFF" stroke-width="7" />
    <circle cx="2726.8" cy="776.7" r="23" fill="#0F172A" stroke="#FFFFFF" stroke-width="7" />
    <circle cx="780.0" cy="676.2" r="23" fill="#0F172A" stroke="#FFFFFF" stroke-width="7" />
  </g>
  <g font-family="Arial, sans-serif" font-size="47" fill="#64748B"><text x="227" y="2205">Each region contains all points closest to its dark site marker.</text><text x="3083" y="2205">sites: 20</text></g>
</svg>
