<svg xmlns="http://www.w3.org/2000/svg" width="3840" height="2400" viewBox="0 0 3840 2400" role="img" aria-labelledby="title description">
  <title id="title">Voronoi diagram with 58 sites</title>
  <desc id="description">A high-resolution 3840x2400 clipped Voronoi diagram with 58 sites. Seed: 1789914474.</desc>
  <defs>
    <linearGradient id="background" x1="0" y1="0" x2="1" y2="1"><stop stop-color="#F8FAFC"/><stop offset="1" stop-color="#E0F2FE"/></linearGradient>
    <filter id="shadow" x="-5%" y="-5%" width="110%" height="110%"><feDropShadow dx="0" dy="15" stdDeviation="22" flood-color="#0F172A" flood-opacity=".12"/></filter>
  </defs>
  <rect width="3840" height="2400" fill="url(#background)"/>
  <rect x="120" y="120" width="3600" height="2160" rx="63" fill="#FFFFFF" filter="url(#shadow)"/>
  <g font-family="Arial, sans-serif"><text x="227" y="296" font-size="101" font-weight="700" fill="#0F172A">Voronoi Diagram</text><text x="227" y="397" font-size="56" fill="#475569">58 sites · generated with seed 1789914474 · Ultra HD (3840x2400)</text></g>
  <g stroke="#FFFFFF" stroke-width="7" stroke-linejoin="round">
    <polygon points="1403.6,924.7 1013.6,886.9 999.8,876.1 1134.0,579.5 1423.5,745.5 1425.9,750.3" fill="#38BDF8" fill-opacity="0.65" />
    <polygon points="2030.8,1348.4 1598.0,1380.8 1551.1,1042.7 1637.6,1009.2 2040.5,1224.6 2041.4,1320.0" fill="#A78BFA" fill-opacity="0.65" />
    <polygon points="3111.3,1053.1 3396.0,1023.5 3392.8,1244.1 3317.6,1270.6 3035.4,1159.7 3029.1,1133.8" fill="#F472B6" fill-opacity="0.65" />
    <polygon points="3003.6,1302.7 2713.8,1351.6 2588.5,1248.7 2589.9,1225.1 2655.9,1120.4 2825.7,1024.7 3029.1,1133.8 3035.4,1159.7" fill="#FB923C" fill-opacity="0.65" />
    <polygon points="697.3,1765.0 751.2,1665.6 1063.1,1931.3 1107.7,2053.0 851.0,2053.0" fill="#FACC15" fill-opacity="0.65" />
    <polygon points="362.5,999.5 494.9,710.1 597.0,726.7 740.4,902.2" fill="#4ADE80" fill-opacity="0.65" />
    <polygon points="1172.5,1442.5 1093.0,1603.7 753.7,1617.6 649.9,1385.9 655.6,1381.4 823.9,1342.6" fill="#2DD4BF" fill-opacity="0.65" />
    <polygon points="2556.5,1278.1 2041.4,1320.0 2040.5,1224.6 2117.3,1031.2 2250.6,983.8 2589.9,1225.1 2588.5,1248.7" fill="#60A5FA" fill-opacity="0.65" />
    <polygon points="1677.4,1711.7 1518.2,1498.0 1598.0,1380.8 2030.8,1348.4 2038.9,1380.6 1881.4,1691.9" fill="#E879F9" fill-opacity="0.65" />
    <polygon points="3233.3,708.3 3212.7,745.4 3100.9,775.8 2916.8,589.0 2904.7,505.0 3238.6,505.0" fill="#34D399" fill-opacity="0.65" />
    <polygon points="3293.3,1628.2 3059.0,1636.8 2996.3,1533.1 3051.3,1394.2 3195.6,1401.8" fill="#F87171" fill-opacity="0.65" />
    <polygon points="2334.9,1683.3 2020.1,1853.5 1881.4,1691.9 2038.9,1380.6" fill="#818CF8" fill-opacity="0.65" />
    <polygon points="2420.0,1741.8 2563.4,1719.2 2816.6,1819.7 2715.6,2053.0 2451.4,2053.0" fill="#FBBF24" fill-opacity="0.65" />
    <polygon points="3034.3,1692.9 3059.0,1636.8 3293.3,1628.2 3385.2,1674.4 3545.2,2053.0 3159.3,2053.0" fill="#A3E635" fill-opacity="0.65" />
    <polygon points="3195.6,1401.8 3051.3,1394.2 3003.6,1302.7 3035.4,1159.7 3317.6,1270.6" fill="#C084FC" fill-opacity="0.65" />
    <polygon points="2020.1,1853.5 2334.9,1683.3 2375.3,1693.2 2420.0,1741.8 2451.4,2053.0 1984.1,2053.0" fill="#FB7185" fill-opacity="0.65" />
    <polygon points="787.5,598.3 949.0,872.8 841.1,928.0 740.4,902.2 597.0,726.7" fill="#22D3EE" fill-opacity="0.65" />
    <polygon points="1338.6,1724.4 1507.6,1499.9 1518.2,1498.0 1677.4,1711.7 1598.1,2053.0 1339.7,2053.0" fill="#86EFAC" fill-opacity="0.65" />
    <polygon points="2443.8,663.7 2250.6,983.8 2117.3,1031.2 1888.0,738.7 1890.8,525.8 1897.3,505.0 2403.2,505.0" fill="#FCD34D" fill-opacity="0.65" />
    <polygon points="2470.8,686.7 2655.9,1120.4 2589.9,1225.1 2250.6,983.8 2443.8,663.7" fill="#38BDF8" fill-opacity="0.65" />
    <polygon points="1070.7,1161.3 823.9,1342.6 655.6,1381.4 841.1,928.0 949.0,872.8 999.8,876.1 1013.6,886.9" fill="#38BDF8" fill-opacity="0.65" />
    <polygon points="3519.0,1362.4 3385.2,1674.4 3293.3,1628.2 3195.6,1401.8 3317.6,1270.6 3392.8,1244.1" fill="#A78BFA" fill-opacity="0.65" />
    <polygon points="120.0,1867.9 382.6,1752.1 627.0,1825.4 522.7,2053.0 120.0,2053.0" fill="#F472B6" fill-opacity="0.65" />
    <polygon points="949.0,872.8 787.5,598.3 783.3,505.0 1132.5,505.0 1134.0,579.5 999.8,876.1" fill="#FB923C" fill-opacity="0.65" />
    <polygon points="3385.2,1674.4 3519.0,1362.4 3720.0,1348.3 3720.0,2053.0 3545.2,2053.0" fill="#FACC15" fill-opacity="0.65" />
    <polygon points="3409.2,998.6 3405.8,987.5 3544.5,654.6 3720.0,519.3 3720.0,980.1" fill="#4ADE80" fill-opacity="0.65" />
    <polygon points="2816.6,1819.7 2830.3,1814.1 3140.0,2053.0 2715.6,2053.0" fill="#2DD4BF" fill-opacity="0.65" />
    <polygon points="3034.3,1692.9 2853.3,1774.8 2805.2,1534.7 2996.3,1533.1 3059.0,1636.8" fill="#60A5FA" fill-opacity="0.65" />
    <polygon points="787.5,598.3 597.0,726.7 494.9,710.1 418.2,505.0 783.3,505.0" fill="#E879F9" fill-opacity="0.65" />
    <polygon points="494.9,710.1 362.5,999.5 177.0,1184.4 120.0,1185.7 120.0,505.0 418.2,505.0" fill="#34D399" fill-opacity="0.65" />
    <polygon points="2773.2,775.2 2847.2,926.6 2825.7,1024.7 2655.9,1120.4 2470.8,686.7" fill="#F87171" fill-opacity="0.65" />
    <polygon points="2783.7,1522.2 2563.4,1719.2 2420.0,1741.8 2375.3,1693.2 2556.5,1278.1 2588.5,1248.7 2713.8,1351.6" fill="#818CF8" fill-opacity="0.65" />
    <polygon points="1890.8,525.8 1425.9,750.3 1423.5,745.5 1415.8,505.0 1897.3,505.0" fill="#FBBF24" fill-opacity="0.65" />
    <polygon points="1205.8,1256.2 1070.7,1161.3 1013.6,886.9 1403.6,924.7 1457.3,996.6" fill="#A3E635" fill-opacity="0.65" />
    <polygon points="2783.7,1522.2 2805.2,1534.7 2853.3,1774.8 2830.3,1814.1 2816.6,1819.7 2563.4,1719.2" fill="#C084FC" fill-opacity="0.65" />
    <polygon points="1205.8,1256.2 1232.7,1399.9 1172.5,1442.5 823.9,1342.6 1070.7,1161.3" fill="#FB7185" fill-opacity="0.65" />
    <polygon points="1890.8,525.8 1888.0,738.7 1637.6,1009.2 1551.1,1042.7 1457.3,996.6 1403.6,924.7 1425.9,750.3" fill="#22D3EE" fill-opacity="0.65" />
    <polygon points="627.0,1825.4 697.3,1765.0 851.0,2053.0 522.7,2053.0" fill="#86EFAC" fill-opacity="0.65" />
    <polygon points="3544.5,654.6 3233.3,708.3 3238.6,505.0 3720.0,505.0 3720.0,519.3" fill="#FCD34D" fill-opacity="0.65" />
    <polygon points="2375.3,1693.2 2334.9,1683.3 2038.9,1380.6 2030.8,1348.4 2041.4,1320.0 2556.5,1278.1" fill="#38BDF8" fill-opacity="0.65" />
    <polygon points="577.5,1370.4 382.6,1752.1 120.0,1867.9 120.0,1185.7 177.0,1184.4" fill="#38BDF8" fill-opacity="0.65" />
    <polygon points="2916.8,589.0 2773.2,775.2 2470.8,686.7 2443.8,663.7 2403.2,505.0 2904.7,505.0" fill="#A78BFA" fill-opacity="0.65" />
    <polygon points="2830.3,1814.1 2853.3,1774.8 3034.3,1692.9 3159.3,2053.0 3140.0,2053.0" fill="#F472B6" fill-opacity="0.65" />
    <polygon points="2847.2,926.6 3093.8,786.7 3111.3,1053.1 3029.1,1133.8 2825.7,1024.7" fill="#FB923C" fill-opacity="0.65" />
    <polygon points="3544.5,654.6 3405.8,987.5 3212.7,745.4 3233.3,708.3" fill="#FACC15" fill-opacity="0.65" />
    <polygon points="1888.0,738.7 2117.3,1031.2 2040.5,1224.6 1637.6,1009.2" fill="#4ADE80" fill-opacity="0.65" />
    <polygon points="2805.2,1534.7 2783.7,1522.2 2713.8,1351.6 3003.6,1302.7 3051.3,1394.2 2996.3,1533.1" fill="#2DD4BF" fill-opacity="0.65" />
    <polygon points="1677.4,1711.7 1881.4,1691.9 2020.1,1853.5 1984.1,2053.0 1598.1,2053.0" fill="#60A5FA" fill-opacity="0.65" />
    <polygon points="1124.4,1665.3 1063.1,1931.3 751.2,1665.6 753.7,1617.6 1093.0,1603.7" fill="#E879F9" fill-opacity="0.65" />
    <polygon points="3405.8,987.5 3409.2,998.6 3396.0,1023.5 3111.3,1053.1 3093.8,786.7 3100.9,775.8 3212.7,745.4" fill="#34D399" fill-opacity="0.65" />
    <polygon points="3519.0,1362.4 3392.8,1244.1 3396.0,1023.5 3409.2,998.6 3720.0,980.1 3720.0,1348.3" fill="#F87171" fill-opacity="0.65" />
    <polygon points="1423.5,745.5 1134.0,579.5 1132.5,505.0 1415.8,505.0" fill="#818CF8" fill-opacity="0.65" />
    <polygon points="627.0,1825.4 382.6,1752.1 577.5,1370.4 649.9,1385.9 753.7,1617.6 751.2,1665.6 697.3,1765.0" fill="#FBBF24" fill-opacity="0.65" />
    <polygon points="1518.2,1498.0 1507.6,1499.9 1232.7,1399.9 1205.8,1256.2 1457.3,996.6 1551.1,1042.7 1598.0,1380.8" fill="#A3E635" fill-opacity="0.65" />
    <polygon points="655.6,1381.4 649.9,1385.9 577.5,1370.4 177.0,1184.4 362.5,999.5 740.4,902.2 841.1,928.0" fill="#C084FC" fill-opacity="0.65" />
    <polygon points="1063.1,1931.3 1124.4,1665.3 1338.6,1724.4 1339.7,2053.0 1107.7,2053.0" fill="#FB7185" fill-opacity="0.65" />
    <polygon points="2916.8,589.0 3100.9,775.8 3093.8,786.7 2847.2,926.6 2773.2,775.2" fill="#22D3EE" fill-opacity="0.65" />
    <polygon points="1507.6,1499.9 1338.6,1724.4 1124.4,1665.3 1093.0,1603.7 1172.5,1442.5 1232.7,1399.9" fill="#86EFAC" fill-opacity="0.65" />
  </g>
  <g>
    <circle cx="1239.2" cy="731.7" r="20" fill="#0F172A" stroke="#FFFFFF" stroke-width="7" />
    <circle cx="1773.1" cy="1196.8" r="20" fill="#0F172A" stroke="#FFFFFF" stroke-width="7" />
    <circle cx="3209.0" cy="1145.3" r="20" fill="#0F172A" stroke="#FFFFFF" stroke-width="7" />
    <circle cx="2874.5" cy="1226.6" r="20" fill="#0F172A" stroke="#FFFFFF" stroke-width="7" />
    <circle cx="858.1" cy="1904.9" r="20" fill="#0F172A" stroke="#FFFFFF" stroke-width="7" />
    <circle cx="589.0" cy="841.3" r="20" fill="#0F172A" stroke="#FFFFFF" stroke-width="7" />
    <circle cx="994.2" cy="1482.1" r="20" fill="#0F172A" stroke="#FFFFFF" stroke-width="7" />
    <circle cx="2307.3" cy="1191.7" r="20" fill="#0F172A" stroke="#FFFFFF" stroke-width="7" />
    <circle cx="1798.6" cy="1536.6" r="20" fill="#0F172A" stroke="#FFFFFF" stroke-width="7" />
    <circle cx="3091.4" cy="587.7" r="20" fill="#0F172A" stroke="#FFFFFF" stroke-width="7" />
    <circle cx="3141.1" cy="1510.0" r="20" fill="#0F172A" stroke="#FFFFFF" stroke-width="7" />
    <circle cx="2055.5" cy="1666.7" r="20" fill="#0F172A" stroke="#FFFFFF" stroke-width="7" />
    <circle cx="2676.5" cy="1877.7" r="20" fill="#0F172A" stroke="#FFFFFF" stroke-width="7" />
    <circle cx="3150.2" cy="1757.2" r="20" fill="#0F172A" stroke="#FFFFFF" stroke-width="7" />
    <circle cx="3152.7" cy="1288.5" r="20" fill="#0F172A" stroke="#FFFFFF" stroke-width="7" />
    <circle cx="2195.9" cy="1926.2" r="20" fill="#0F172A" stroke="#FFFFFF" stroke-width="7" />
    <circle cx="710.8" cy="741.7" r="20" fill="#0F172A" stroke="#FFFFFF" stroke-width="7" />
    <circle cx="1475.0" cy="1777.7" r="20" fill="#0F172A" stroke="#FFFFFF" stroke-width="7" />
    <circle cx="2163.4" cy="786.8" r="20" fill="#0F172A" stroke="#FFFFFF" stroke-width="7" />
    <circle cx="2465.6" cy="969.1" r="20" fill="#0F172A" stroke="#FFFFFF" stroke-width="7" />
    <circle cx="916.0" cy="1142.7" r="20" fill="#0F172A" stroke="#FFFFFF" stroke-width="7" />
    <circle cx="3311.7" cy="1436.3" r="20" fill="#0F172A" stroke="#FFFFFF" stroke-width="7" />
    <circle cx="449.3" cy="1850.5" r="20" fill="#0F172A" stroke="#FFFFFF" stroke-width="7" />
    <circle cx="950.1" cy="601.0" r="20" fill="#0F172A" stroke="#FFFFFF" stroke-width="7" />
    <circle cx="3608.4" cy="1563.6" r="20" fill="#0F172A" stroke="#FFFFFF" stroke-width="7" />
    <circle cx="3560.2" cy="827.5" r="20" fill="#0F172A" stroke="#FFFFFF" stroke-width="7" />
    <circle cx="2870.2" cy="1961.6" r="20" fill="#0F172A" stroke="#FFFFFF" stroke-width="7" />
    <circle cx="2908.6" cy="1650.6" r="20" fill="#0F172A" stroke="#FFFFFF" stroke-width="7" />
    <circle cx="625.8" cy="615.6" r="20" fill="#0F172A" stroke="#FFFFFF" stroke-width="7" />
    <circle cx="334.0" cy="724.6" r="20" fill="#0F172A" stroke="#FFFFFF" stroke-width="7" />
    <circle cx="2678.2" cy="878.3" r="20" fill="#0F172A" stroke="#FFFFFF" stroke-width="7" />
    <circle cx="2622.2" cy="1533.5" r="20" fill="#0F172A" stroke="#FFFFFF" stroke-width="7" />
    <circle cx="1518.5" cy="587.1" r="20" fill="#0F172A" stroke="#FFFFFF" stroke-width="7" />
    <circle cx="1205.1" cy="1082.5" r="20" fill="#0F172A" stroke="#FFFFFF" stroke-width="7" />
    <circle cx="2754.4" cy="1681.4" r="20" fill="#0F172A" stroke="#FFFFFF" stroke-width="7" />
    <circle cx="1042.2" cy="1314.6" r="20" fill="#0F172A" stroke="#FFFFFF" stroke-width="7" />
    <circle cx="1611.3" cy="779.3" r="20" fill="#0F172A" stroke="#FFFFFF" stroke-width="7" />
    <circle cx="724.0" cy="1976.4" r="20" fill="#0F172A" stroke="#FFFFFF" stroke-width="7" />
    <circle cx="3381.3" cy="595.3" r="20" fill="#0F172A" stroke="#FFFFFF" stroke-width="7" />
    <circle cx="2324.5" cy="1403.6" r="20" fill="#0F172A" stroke="#FFFFFF" stroke-width="7" />
    <circle cx="354.9" cy="1636.5" r="20" fill="#0F172A" stroke="#FFFFFF" stroke-width="7" />
    <circle cx="2748.8" cy="637.1" r="20" fill="#0F172A" stroke="#FFFFFF" stroke-width="7" />
    <circle cx="2983.1" cy="1815.2" r="20" fill="#0F172A" stroke="#FFFFFF" stroke-width="7" />
    <circle cx="3020.9" cy="953.7" r="20" fill="#0F172A" stroke="#FFFFFF" stroke-width="7" />
    <circle cx="3410.6" cy="765.1" r="20" fill="#0F172A" stroke="#FFFFFF" stroke-width="7" />
    <circle cx="1868.9" cy="1017.6" r="20" fill="#0F172A" stroke="#FFFFFF" stroke-width="7" />
    <circle cx="2906.7" cy="1417.0" r="20" fill="#0F172A" stroke="#FFFFFF" stroke-width="7" />
    <circle cx="1830.0" cy="1860.2" r="20" fill="#0F172A" stroke="#FFFFFF" stroke-width="7" />
    <circle cx="1004.5" cy="1733.0" r="20" fill="#0F172A" stroke="#FFFFFF" stroke-width="7" />
    <circle cx="3187.9" cy="942.7" r="20" fill="#0F172A" stroke="#FFFFFF" stroke-width="7" />
    <circle cx="3579.4" cy="1150.7" r="20" fill="#0F172A" stroke="#FFFFFF" stroke-width="7" />
    <circle cx="1318.6" cy="593.4" r="20" fill="#0F172A" stroke="#FFFFFF" stroke-width="7" />
    <circle cx="492.4" cy="1706.7" r="20" fill="#0F172A" stroke="#FFFFFF" stroke-width="7" />
    <circle cx="1379.4" cy="1251.4" r="20" fill="#0F172A" stroke="#FFFFFF" stroke-width="7" />
    <circle cx="637.3" cy="1028.7" r="20" fill="#0F172A" stroke="#FFFFFF" stroke-width="7" />
    <circle cx="1202.6" cy="1778.7" r="20" fill="#0F172A" stroke="#FFFFFF" stroke-width="7" />
    <circle cx="2913.0" cy="763.6" r="20" fill="#0F172A" stroke="#FFFFFF" stroke-width="7" />
    <circle cx="1249.7" cy="1608.0" r="20" fill="#0F172A" stroke="#FFFFFF" stroke-width="7" />
  </g>
  <g font-family="Arial, sans-serif" font-size="47" fill="#64748B"><text x="227" y="2205">Each region contains all points closest to its dark site marker.</text><text x="3083" y="2205">sites: 58</text></g>
</svg>
