<svg xmlns="http://www.w3.org/2000/svg" width="3840" height="2400" viewBox="0 0 3840 2400" role="img" aria-labelledby="title description">
  <title id="title">Voronoi diagram with 86 sites</title>
  <desc id="description">A high-resolution 3840x2400 clipped Voronoi diagram with 86 sites. Seed: 1790157912.</desc>
  <defs>
    <linearGradient id="background" x1="0" y1="0" x2="1" y2="1"><stop stop-color="#F8FAFC"/><stop offset="1" stop-color="#E0F2FE"/></linearGradient>
    <filter id="shadow" x="-5%" y="-5%" width="110%" height="110%"><feDropShadow dx="0" dy="15" stdDeviation="22" flood-color="#0F172A" flood-opacity=".12"/></filter>
  </defs>
  <rect width="3840" height="2400" fill="url(#background)"/>
  <rect x="120" y="120" width="3600" height="2160" rx="63" fill="#FFFFFF" filter="url(#shadow)"/>
  <g font-family="Arial, sans-serif"><text x="227" y="296" font-size="101" font-weight="700" fill="#0F172A">Voronoi Diagram</text><text x="227" y="397" font-size="56" fill="#475569">86 sites · generated with seed 1790157912 · Ultra HD (3840x2400)</text></g>
  <g stroke="#FFFFFF" stroke-width="7" stroke-linejoin="round">
    <polygon points="144.1,1003.7 168.9,987.6 441.7,913.1 471.7,1092.0" fill="#38BDF8" fill-opacity="0.65" />
    <polygon points="120.0,1672.0 314.9,1599.4 435.8,1879.0 382.0,2053.0 120.0,2053.0" fill="#A78BFA" fill-opacity="0.65" />
    <polygon points="521.2,1782.7 511.8,1663.4 626.1,1580.4 677.3,1596.9 769.2,1755.6" fill="#F472B6" fill-opacity="0.65" />
    <polygon points="3362.8,1147.2 3316.0,1122.9 3315.4,1120.4 3400.7,911.8 3720.0,981.7 3720.0,1099.8" fill="#FB923C" fill-opacity="0.65" />
    <polygon points="928.9,806.0 897.9,931.3 701.4,1035.5 662.7,1035.0 610.5,854.3 680.4,694.8 818.7,551.9" fill="#FACC15" fill-opacity="0.65" />
    <polygon points="3105.0,939.3 3083.4,881.9 3135.1,784.0 3204.2,757.0 3380.9,842.5 3400.7,911.8 3315.4,1120.4" fill="#4ADE80" fill-opacity="0.65" />
    <polygon points="1164.3,1086.5 1244.5,923.2 1272.0,920.2 1508.2,1120.9 1406.2,1218.8 1298.7,1228.6" fill="#2DD4BF" fill-opacity="0.65" />
    <polygon points="791.8,1338.5 801.2,1349.8 817.6,1402.1 677.3,1596.9 626.1,1580.4 566.5,1497.2 607.9,1291.9" fill="#60A5FA" fill-opacity="0.65" />
    <polygon points="259.6,1402.7 331.0,1582.3 314.9,1599.4 120.0,1672.0 120.0,1367.6" fill="#E879F9" fill-opacity="0.65" />
    <polygon points="363.6,749.4 363.8,726.8 680.4,694.8 610.5,854.3 450.9,896.2" fill="#34D399" fill-opacity="0.65" />
    <polygon points="3124.1,1628.2 3065.3,1446.5 3276.8,1421.3 3328.2,1452.3 3404.3,1660.1 3352.6,1680.3 3334.6,1681.9" fill="#F87171" fill-opacity="0.65" />
    <polygon points="1588.2,1115.0 1700.6,1176.2 1722.7,1199.3 1699.4,1333.4 1456.6,1571.4 1406.2,1218.8 1508.2,1120.9" fill="#818CF8" fill-opacity="0.65" />
    <polygon points="1139.9,2007.8 1442.0,1646.2 1455.4,1639.6 1494.2,1675.2 1513.5,1793.1 1440.1,2053.0 1139.7,2053.0" fill="#FBBF24" fill-opacity="0.65" />
    <polygon points="1806.4,1704.8 1891.2,1626.8 2073.3,1692.2 2146.7,1931.2 2146.1,2053.0 1871.1,2053.0" fill="#A3E635" fill-opacity="0.65" />
    <polygon points="396.0,1273.1 259.6,1402.7 120.0,1367.6 120.0,1120.5" fill="#C084FC" fill-opacity="0.65" />
    <polygon points="535.7,1224.5 607.9,1291.9 566.5,1497.2 413.7,1517.3 436.3,1271.6" fill="#FB7185" fill-opacity="0.65" />
    <polygon points="3204.2,757.0 3135.1,784.0 3123.6,770.8 3024.2,505.0 3319.4,505.0" fill="#22D3EE" fill-opacity="0.65" />
    <polygon points="2689.1,961.4 2735.0,1094.1 2552.8,1216.7 2459.9,1196.7 2378.9,973.3 2522.9,894.9" fill="#86EFAC" fill-opacity="0.65" />
    <polygon points="1436.2,656.6 1410.5,792.6 1272.0,920.2 1244.5,923.2 1234.3,914.4 1163.9,505.0 1395.9,505.0" fill="#FCD34D" fill-opacity="0.65" />
    <polygon points="1631.9,713.0 1653.9,838.8 1590.9,891.9 1410.5,792.6 1436.2,656.6" fill="#38BDF8" fill-opacity="0.65" />
    <polygon points="2196.3,1395.4 2233.6,1317.5 2314.2,1298.6 2458.4,1442.5 2407.9,1543.9 2293.8,1587.6 2241.7,1557.7" fill="#38BDF8" fill-opacity="0.65" />
    <polygon points="962.4,1530.0 834.0,1747.0 780.9,1763.7 769.2,1755.6 677.3,1596.9 817.6,1402.1" fill="#A78BFA" fill-opacity="0.65" />
    <polygon points="2475.0,1783.0 2549.6,1767.1 2785.6,1978.7 2789.7,2053.0 2298.4,2053.0" fill="#F472B6" fill-opacity="0.65" />
    <polygon points="1137.4,1391.8 1201.3,1391.8 1454.2,1576.0 1455.4,1639.6 1442.0,1646.2 1128.0,1654.2 1025.0,1525.7" fill="#FB923C" fill-opacity="0.65" />
    <polygon points="2336.6,1684.9 2146.7,1931.2 2073.3,1692.2 2241.7,1557.7 2293.8,1587.6" fill="#FACC15" fill-opacity="0.65" />
    <polygon points="1893.2,1553.3 1891.2,1626.8 1806.4,1704.8 1494.2,1675.2 1455.4,1639.6 1454.2,1576.0 1456.6,1571.4 1699.4,1333.4" fill="#4ADE80" fill-opacity="0.65" />
    <polygon points="436.3,1271.6 413.7,1517.3 352.7,1575.9 331.0,1582.3 259.6,1402.7 396.0,1273.1" fill="#2DD4BF" fill-opacity="0.65" />
    <polygon points="3352.6,1680.3 3404.3,1660.1 3720.0,1718.7 3720.0,2053.0 3265.9,2053.0" fill="#60A5FA" fill-opacity="0.65" />
    <polygon points="540.3,1171.4 662.7,1035.0 701.4,1035.5 848.6,1179.1 791.8,1338.5 607.9,1291.9 535.7,1224.5" fill="#E879F9" fill-opacity="0.65" />
    <polygon points="2875.3,655.1 2804.7,800.3 2785.3,808.1 2589.4,635.0 2604.5,505.0 2862.2,505.0" fill="#34D399" fill-opacity="0.65" />
    <polygon points="818.7,551.9 680.4,694.8 363.8,726.8 209.3,505.0 825.9,505.0" fill="#F87171" fill-opacity="0.65" />
    <polygon points="1454.2,1576.0 1201.3,1391.8 1298.7,1228.6 1406.2,1218.8 1456.6,1571.4" fill="#818CF8" fill-opacity="0.65" />
    <polygon points="3145.8,1872.9 3334.6,1681.9 3352.6,1680.3 3265.9,2053.0 3176.8,2053.0" fill="#FBBF24" fill-opacity="0.65" />
    <polygon points="1234.3,914.4 1244.5,923.2 1164.3,1086.5 1068.1,1139.6 966.4,1098.4 897.9,931.3 928.9,806.0" fill="#A3E635" fill-opacity="0.65" />
    <polygon points="2234.5,691.7 2334.2,960.1 2096.4,1081.9 2050.5,1065.7 1960.5,767.2 2038.5,506.0" fill="#C084FC" fill-opacity="0.65" />
    <polygon points="2038.5,506.0 1960.5,767.2 1813.7,846.2 1653.9,838.8 1631.9,713.0 1857.6,505.0 2038.3,505.0" fill="#FB7185" fill-opacity="0.65" />
    <polygon points="3436.4,1315.7 3362.8,1147.2 3720.0,1099.8 3720.0,1413.6" fill="#22D3EE" fill-opacity="0.65" />
    <polygon points="2952.8,1288.7 3235.5,1198.9 3276.8,1421.3 3065.3,1446.5 2947.2,1341.3" fill="#86EFAC" fill-opacity="0.65" />
    <polygon points="1513.5,1793.1 1494.2,1675.2 1806.4,1704.8 1871.1,2053.0 1764.8,2053.0" fill="#FCD34D" fill-opacity="0.65" />
    <polygon points="352.7,1575.9 413.7,1517.3 566.5,1497.2 626.1,1580.4 511.8,1663.4" fill="#38BDF8" fill-opacity="0.65" />
    <polygon points="834.0,1747.0 962.4,1530.0 1025.0,1525.7 1128.0,1654.2 1053.2,1838.9" fill="#38BDF8" fill-opacity="0.65" />
    <polygon points="1590.9,891.9 1588.2,1115.0 1508.2,1120.9 1272.0,920.2 1410.5,792.6" fill="#A78BFA" fill-opacity="0.65" />
    <polygon points="2993.4,1743.1 2815.6,1467.4 2947.2,1341.3 3065.3,1446.5 3124.1,1628.2" fill="#F472B6" fill-opacity="0.65" />
    <polygon points="2610.2,1412.4 2458.4,1442.5 2314.2,1298.6 2459.9,1196.7 2552.8,1216.7" fill="#FB923C" fill-opacity="0.65" />
    <polygon points="435.8,1879.0 314.9,1599.4 331.0,1582.3 352.7,1575.9 511.8,1663.4 521.2,1782.7" fill="#FACC15" fill-opacity="0.65" />
    <polygon points="450.9,896.2 610.5,854.3 662.7,1035.0 540.3,1171.4 471.7,1092.0 441.7,913.1" fill="#4ADE80" fill-opacity="0.65" />
    <polygon points="2518.2,725.5 2522.9,894.9 2378.9,973.3 2334.2,960.1 2234.5,691.7" fill="#2DD4BF" fill-opacity="0.65" />
    <polygon points="363.6,749.4 450.9,896.2 441.7,913.1 168.9,987.6" fill="#60A5FA" fill-opacity="0.65" />
    <polygon points="435.8,1879.0 521.2,1782.7 769.2,1755.6 780.9,1763.7 728.9,2053.0 382.0,2053.0" fill="#E879F9" fill-opacity="0.65" />
    <polygon points="3002.2,891.1 2797.5,1121.5 2735.0,1094.1 2689.1,961.4 2785.3,808.1 2804.7,800.3" fill="#34D399" fill-opacity="0.65" />
    <polygon points="2785.6,1978.7 2840.8,1880.3 2988.5,1756.6 3145.8,1872.9 3176.8,2053.0 2789.7,2053.0" fill="#F87171" fill-opacity="0.65" />
    <polygon points="540.3,1171.4 535.7,1224.5 436.3,1271.6 396.0,1273.1 120.0,1120.5 120.0,1010.7 144.1,1003.7 471.7,1092.0" fill="#818CF8" fill-opacity="0.65" />
    <polygon points="1869.7,1180.9 2050.5,1065.7 2096.4,1081.9 2233.6,1317.5 2196.3,1395.4 2017.7,1418.2" fill="#FBBF24" fill-opacity="0.65" />
    <polygon points="1234.3,914.4 928.9,806.0 818.7,551.9 825.9,505.0 1163.9,505.0" fill="#A3E635" fill-opacity="0.65" />
    <polygon points="966.4,1098.4 1068.1,1139.6 1063.9,1271.2 801.2,1349.8 791.8,1338.5 848.6,1179.1" fill="#C084FC" fill-opacity="0.65" />
    <polygon points="3235.5,1198.9 2952.8,1288.7 2948.4,1279.3 3105.0,939.3 3315.4,1120.4 3316.0,1122.9" fill="#FB7185" fill-opacity="0.65" />
    <polygon points="2146.7,1931.2 2336.6,1684.9 2475.0,1783.0 2298.4,2053.0 2146.1,2053.0" fill="#22D3EE" fill-opacity="0.65" />
    <polygon points="2017.7,1418.2 2196.3,1395.4 2241.7,1557.7 2073.3,1692.2 1891.2,1626.8 1893.2,1553.3" fill="#86EFAC" fill-opacity="0.65" />
    <polygon points="1813.7,846.2 1960.5,767.2 2050.5,1065.7 1869.7,1180.9 1722.7,1199.3 1700.6,1176.2" fill="#FCD34D" fill-opacity="0.65" />
    <polygon points="1631.9,713.0 1436.2,656.6 1395.9,505.0 1857.6,505.0" fill="#38BDF8" fill-opacity="0.65" />
    <polygon points="1513.5,1793.1 1764.8,2053.0 1440.1,2053.0" fill="#38BDF8" fill-opacity="0.65" />
    <polygon points="3123.6,770.8 2875.3,655.1 2862.2,505.0 3024.2,505.0" fill="#A78BFA" fill-opacity="0.65" />
    <polygon points="3002.2,891.1 2804.7,800.3 2875.3,655.1 3123.6,770.8 3135.1,784.0 3083.4,881.9" fill="#F472B6" fill-opacity="0.65" />
    <polygon points="3404.3,1660.1 3328.2,1452.3 3436.4,1315.7 3720.0,1413.6 3720.0,1718.7" fill="#FB923C" fill-opacity="0.65" />
    <polygon points="2988.5,1756.6 2993.4,1743.1 3124.1,1628.2 3334.6,1681.9 3145.8,1872.9" fill="#FACC15" fill-opacity="0.65" />
    <polygon points="1053.2,1838.9 1128.0,1654.2 1442.0,1646.2 1139.9,2007.8" fill="#4ADE80" fill-opacity="0.65" />
    <polygon points="1201.3,1391.8 1137.4,1391.8 1063.9,1271.2 1068.1,1139.6 1164.3,1086.5 1298.7,1228.6" fill="#2DD4BF" fill-opacity="0.65" />
    <polygon points="2948.4,1279.3 2797.5,1121.5 3002.2,891.1 3083.4,881.9 3105.0,939.3" fill="#60A5FA" fill-opacity="0.65" />
    <polygon points="3516.9,710.6 3443.7,505.0 3720.0,505.0 3720.0,793.4" fill="#E879F9" fill-opacity="0.65" />
    <polygon points="966.4,1098.4 848.6,1179.1 701.4,1035.5 897.9,931.3" fill="#34D399" fill-opacity="0.65" />
    <polygon points="780.9,1763.7 834.0,1747.0 1053.2,1838.9 1139.9,2007.8 1139.7,2053.0 728.9,2053.0" fill="#F87171" fill-opacity="0.65" />
    <polygon points="2610.2,1412.4 2705.7,1504.1 2595.6,1620.6 2407.9,1543.9 2458.4,1442.5" fill="#818CF8" fill-opacity="0.65" />
    <polygon points="3400.7,911.8 3380.9,842.5 3516.9,710.6 3720.0,793.4 3720.0,981.7" fill="#FBBF24" fill-opacity="0.65" />
    <polygon points="2589.4,635.0 2518.2,725.5 2234.5,691.7 2038.5,506.0 2038.3,505.0 2604.5,505.0" fill="#A3E635" fill-opacity="0.65" />
    <polygon points="2988.5,1756.6 2840.8,1880.3 2726.1,1503.7 2815.6,1467.4 2993.4,1743.1" fill="#C084FC" fill-opacity="0.65" />
    <polygon points="2595.6,1620.6 2549.6,1767.1 2475.0,1783.0 2336.6,1684.9 2293.8,1587.6 2407.9,1543.9" fill="#FB7185" fill-opacity="0.65" />
    <polygon points="2726.1,1503.7 2840.8,1880.3 2785.6,1978.7 2549.6,1767.1 2595.6,1620.6 2705.7,1504.1" fill="#22D3EE" fill-opacity="0.65" />
    <polygon points="1813.7,846.2 1700.6,1176.2 1588.2,1115.0 1590.9,891.9 1653.9,838.8" fill="#86EFAC" fill-opacity="0.65" />
    <polygon points="2815.6,1467.4 2726.1,1503.7 2705.7,1504.1 2610.2,1412.4 2552.8,1216.7 2735.0,1094.1 2797.5,1121.5 2948.4,1279.3 2952.8,1288.7 2947.2,1341.3" fill="#FCD34D" fill-opacity="0.65" />
    <polygon points="3516.9,710.6 3380.9,842.5 3204.2,757.0 3319.4,505.0 3443.7,505.0" fill="#38BDF8" fill-opacity="0.65" />
    <polygon points="1063.9,1271.2 1137.4,1391.8 1025.0,1525.7 962.4,1530.0 817.6,1402.1 801.2,1349.8" fill="#38BDF8" fill-opacity="0.65" />
    <polygon points="2314.2,1298.6 2233.6,1317.5 2096.4,1081.9 2334.2,960.1 2378.9,973.3 2459.9,1196.7" fill="#A78BFA" fill-opacity="0.65" />
    <polygon points="3436.4,1315.7 3328.2,1452.3 3276.8,1421.3 3235.5,1198.9 3316.0,1122.9 3362.8,1147.2" fill="#F472B6" fill-opacity="0.65" />
    <polygon points="363.8,726.8 363.6,749.4 168.9,987.6 144.1,1003.7 120.0,1010.7 120.0,505.0 209.3,505.0" fill="#FB923C" fill-opacity="0.65" />
    <polygon points="1869.7,1180.9 2017.7,1418.2 1893.2,1553.3 1699.4,1333.4 1722.7,1199.3" fill="#FACC15" fill-opacity="0.65" />
    <polygon points="2689.1,961.4 2522.9,894.9 2518.2,725.5 2589.4,635.0 2785.3,808.1" fill="#4ADE80" fill-opacity="0.65" />
  </g>
  <g>
    <circle cx="380.3" cy="996.2" r="17" fill="#0F172A" stroke="#FFFFFF" stroke-width="7" />
    <circle cx="306.9" cy="1762.0" r="17" fill="#0F172A" stroke="#FFFFFF" stroke-width="7" />
    <circle cx="590.5" cy="1693.2" r="17" fill="#0F172A" stroke="#FFFFFF" stroke-width="7" />
    <circle cx="3486.8" cy="1016.5" r="17" fill="#0F172A" stroke="#FFFFFF" stroke-width="7" />
    <circle cx="743.9" cy="908.9" r="17" fill="#0F172A" stroke="#FFFFFF" stroke-width="7" />
    <circle cx="3265.9" cy="926.2" r="17" fill="#0F172A" stroke="#FFFFFF" stroke-width="7" />
    <circle cx="1319.2" cy="1118.4" r="17" fill="#0F172A" stroke="#FFFFFF" stroke-width="7" />
    <circle cx="663.2" cy="1468.1" r="17" fill="#0F172A" stroke="#FFFFFF" stroke-width="7" />
    <circle cx="202.4" cy="1481.5" r="17" fill="#0F172A" stroke="#FFFFFF" stroke-width="7" />
    <circle cx="480.0" cy="793.2" r="17" fill="#0F172A" stroke="#FFFFFF" stroke-width="7" />
    <circle cx="3214.2" cy="1511.5" r="17" fill="#0F172A" stroke="#FFFFFF" stroke-width="7" />
    <circle cx="1502.9" cy="1309.9" r="17" fill="#0F172A" stroke="#FFFFFF" stroke-width="7" />
    <circle cx="1369.6" cy="1911.7" r="17" fill="#0F172A" stroke="#FFFFFF" stroke-width="7" />
    <circle cx="1972.8" cy="1806.7" r="17" fill="#0F172A" stroke="#FFFFFF" stroke-width="7" />
    <circle cx="246.5" cy="1306.2" r="17" fill="#0F172A" stroke="#FFFFFF" stroke-width="7" />
    <circle cx="488.7" cy="1433.0" r="17" fill="#0F172A" stroke="#FFFFFF" stroke-width="7" />
    <circle cx="3135.1" cy="590.8" r="17" fill="#0F172A" stroke="#FFFFFF" stroke-width="7" />
    <circle cx="2536.7" cy="1047.3" r="17" fill="#0F172A" stroke="#FFFFFF" stroke-width="7" />
    <circle cx="1274.2" cy="716.4" r="17" fill="#0F172A" stroke="#FFFFFF" stroke-width="7" />
    <circle cx="1565.3" cy="771.2" r="17" fill="#0F172A" stroke="#FFFFFF" stroke-width="7" />
    <circle cx="2380.5" cy="1452.6" r="17" fill="#0F172A" stroke="#FFFFFF" stroke-width="7" />
    <circle cx="804.0" cy="1569.5" r="17" fill="#0F172A" stroke="#FFFFFF" stroke-width="7" />
    <circle cx="2512.9" cy="1933.4" r="17" fill="#0F172A" stroke="#FFFFFF" stroke-width="7" />
    <circle cx="1187.8" cy="1540.6" r="17" fill="#0F172A" stroke="#FFFFFF" stroke-width="7" />
    <circle cx="2220.8" cy="1730.5" r="17" fill="#0F172A" stroke="#FFFFFF" stroke-width="7" />
    <circle cx="1718.9" cy="1530.4" r="17" fill="#0F172A" stroke="#FFFFFF" stroke-width="7" />
    <circle cx="355.3" cy="1420.7" r="17" fill="#0F172A" stroke="#FFFFFF" stroke-width="7" />
    <circle cx="3365.5" cy="1898.3" r="17" fill="#0F172A" stroke="#FFFFFF" stroke-width="7" />
    <circle cx="740.4" cy="1163.2" r="17" fill="#0F172A" stroke="#FFFFFF" stroke-width="7" />
    <circle cx="2753.4" cy="663.6" r="17" fill="#0F172A" stroke="#FFFFFF" stroke-width="7" />
    <circle cx="464.4" cy="638.5" r="17" fill="#0F172A" stroke="#FFFFFF" stroke-width="7" />
    <circle cx="1338.8" cy="1333.3" r="17" fill="#0F172A" stroke="#FFFFFF" stroke-width="7" />
    <circle cx="3244.8" cy="1870.2" r="17" fill="#0F172A" stroke="#FFFFFF" stroke-width="7" />
    <circle cx="1044.4" cy="983.5" r="17" fill="#0F172A" stroke="#FFFFFF" stroke-width="7" />
    <circle cx="2178.5" cy="883.7" r="17" fill="#0F172A" stroke="#FFFFFF" stroke-width="7" />
    <circle cx="1714.3" cy="745.2" r="17" fill="#0F172A" stroke="#FFFFFF" stroke-width="7" />
    <circle cx="3516.7" cy="1241.0" r="17" fill="#0F172A" stroke="#FFFFFF" stroke-width="7" />
    <circle cx="3194.8" cy="1348.4" r="17" fill="#0F172A" stroke="#FFFFFF" stroke-width="7" />
    <circle cx="1687.7" cy="1859.6" r="17" fill="#0F172A" stroke="#FFFFFF" stroke-width="7" />
    <circle cx="507.9" cy="1579.4" r="17" fill="#0F172A" stroke="#FFFFFF" stroke-width="7" />
    <circle cx="1004.0" cy="1687.9" r="17" fill="#0F172A" stroke="#FFFFFF" stroke-width="7" />
    <circle cx="1475.3" cy="934.8" r="17" fill="#0F172A" stroke="#FFFFFF" stroke-width="7" />
    <circle cx="2982.6" cy="1586.4" r="17" fill="#0F172A" stroke="#FFFFFF" stroke-width="7" />
    <circle cx="2468.4" cy="1364.6" r="17" fill="#0F172A" stroke="#FFFFFF" stroke-width="7" />
    <circle cx="438.8" cy="1705.0" r="17" fill="#0F172A" stroke="#FFFFFF" stroke-width="7" />
    <circle cx="526.8" cy="971.6" r="17" fill="#0F172A" stroke="#FFFFFF" stroke-width="7" />
    <circle cx="2402.4" cy="800.6" r="17" fill="#0F172A" stroke="#FFFFFF" stroke-width="7" />
    <circle cx="346.6" cy="872.7" r="17" fill="#0F172A" stroke="#FFFFFF" stroke-width="7" />
    <circle cx="608.2" cy="1855.2" r="17" fill="#0F172A" stroke="#FFFFFF" stroke-width="7" />
    <circle cx="2861.9" cy="934.6" r="17" fill="#0F172A" stroke="#FFFFFF" stroke-width="7" />
    <circle cx="3051.6" cy="1903.5" r="17" fill="#0F172A" stroke="#FFFFFF" stroke-width="7" />
    <circle cx="344.5" cy="1128.9" r="17" fill="#0F172A" stroke="#FFFFFF" stroke-width="7" />
    <circle cx="2036.3" cy="1287.7" r="17" fill="#0F172A" stroke="#FFFFFF" stroke-width="7" />
    <circle cx="1130.5" cy="741.1" r="17" fill="#0F172A" stroke="#FFFFFF" stroke-width="7" />
    <circle cx="942.4" cy="1235.2" r="17" fill="#0F172A" stroke="#FFFFFF" stroke-width="7" />
    <circle cx="3116.0" cy="1100.3" r="17" fill="#0F172A" stroke="#FFFFFF" stroke-width="7" />
    <circle cx="2322.0" cy="1808.5" r="17" fill="#0F172A" stroke="#FFFFFF" stroke-width="7" />
    <circle cx="2068.5" cy="1539.9" r="17" fill="#0F172A" stroke="#FFFFFF" stroke-width="7" />
    <circle cx="1843.3" cy="984.8" r="17" fill="#0F172A" stroke="#FFFFFF" stroke-width="7" />
    <circle cx="1606.5" cy="628.2" r="17" fill="#0F172A" stroke="#FFFFFF" stroke-width="7" />
    <circle cx="1574.1" cy="1969.5" r="17" fill="#0F172A" stroke="#FFFFFF" stroke-width="7" />
    <circle cx="2996.8" cy="642.5" r="17" fill="#0F172A" stroke="#FFFFFF" stroke-width="7" />
    <circle cx="2943.9" cy="756.3" r="17" fill="#0F172A" stroke="#FFFFFF" stroke-width="7" />
    <circle cx="3453.5" cy="1423.9" r="17" fill="#0F172A" stroke="#FFFFFF" stroke-width="7" />
    <circle cx="3147.4" cy="1773.9" r="17" fill="#0F172A" stroke="#FFFFFF" stroke-width="7" />
    <circle cx="1193.6" cy="1764.6" r="17" fill="#0F172A" stroke="#FFFFFF" stroke-width="7" />
    <circle cx="1187.5" cy="1242.9" r="17" fill="#0F172A" stroke="#FFFFFF" stroke-width="7" />
    <circle cx="2975.5" cy="1035.6" r="17" fill="#0F172A" stroke="#FFFFFF" stroke-width="7" />
    <circle cx="3620.4" cy="613.1" r="17" fill="#0F172A" stroke="#FFFFFF" stroke-width="7" />
    <circle cx="830.1" cy="1071.3" r="17" fill="#0F172A" stroke="#FFFFFF" stroke-width="7" />
    <circle cx="911.0" cy="1909.7" r="17" fill="#0F172A" stroke="#FFFFFF" stroke-width="7" />
    <circle cx="2497.3" cy="1510.7" r="17" fill="#0F172A" stroke="#FFFFFF" stroke-width="7" />
    <circle cx="3522.7" cy="852.6" r="17" fill="#0F172A" stroke="#FFFFFF" stroke-width="7" />
    <circle cx="2423.3" cy="625.3" r="17" fill="#0F172A" stroke="#FFFFFF" stroke-width="7" />
    <circle cx="2855.1" cy="1668.7" r="17" fill="#0F172A" stroke="#FFFFFF" stroke-width="7" />
    <circle cx="2448.4" cy="1630.2" r="17" fill="#0F172A" stroke="#FFFFFF" stroke-width="7" />
    <circle cx="2710.9" cy="1712.6" r="17" fill="#0F172A" stroke="#FFFFFF" stroke-width="7" />
    <circle cx="1705.4" cy="937.6" r="17" fill="#0F172A" stroke="#FFFFFF" stroke-width="7" />
    <circle cx="2703.7" cy="1295.5" r="17" fill="#0F172A" stroke="#FFFFFF" stroke-width="7" />
    <circle cx="3375.1" cy="700.5" r="17" fill="#0F172A" stroke="#FFFFFF" stroke-width="7" />
    <circle cx="982.1" cy="1368.0" r="17" fill="#0F172A" stroke="#FFFFFF" stroke-width="7" />
    <circle cx="2305.2" cy="1131.2" r="17" fill="#0F172A" stroke="#FFFFFF" stroke-width="7" />
    <circle cx="3327.2" cy="1323.9" r="17" fill="#0F172A" stroke="#FFFFFF" stroke-width="7" />
    <circle cx="246.1" cy="790.6" r="17" fill="#0F172A" stroke="#FFFFFF" stroke-width="7" />
    <circle cx="1892.4" cy="1377.5" r="17" fill="#0F172A" stroke="#FFFFFF" stroke-width="7" />
    <circle cx="2638.1" cy="794.2" r="17" fill="#0F172A" stroke="#FFFFFF" stroke-width="7" />
  </g>
  <g font-family="Arial, sans-serif" font-size="47" fill="#64748B"><text x="227" y="2205">Each region contains all points closest to its dark site marker.</text><text x="3083" y="2205">sites: 86</text></g>
</svg>
