<svg xmlns="http://www.w3.org/2000/svg" width="3840" height="2400" viewBox="0 0 3840 2400" role="img" aria-labelledby="title description">
  <title id="title">Voronoi diagram with 18 sites</title>
  <desc id="description">A high-resolution 3840x2400 clipped Voronoi diagram with 18 sites. Seed: 1790799974.</desc>
  <defs>
    <linearGradient id="background" x1="0" y1="0" x2="1" y2="1"><stop stop-color="#F8FAFC"/><stop offset="1" stop-color="#E0F2FE"/></linearGradient>
    <filter id="shadow" x="-5%" y="-5%" width="110%" height="110%"><feDropShadow dx="0" dy="15" stdDeviation="22" flood-color="#0F172A" flood-opacity=".12"/></filter>
  </defs>
  <rect width="3840" height="2400" fill="url(#background)"/>
  <rect x="120" y="120" width="3600" height="2160" rx="63" fill="#FFFFFF" filter="url(#shadow)"/>
  <g font-family="Arial, sans-serif"><text x="227" y="296" font-size="101" font-weight="700" fill="#0F172A">Voronoi Diagram</text><text x="227" y="397" font-size="56" fill="#475569">18 sites · generated with seed 1790799974 · Ultra HD (3840x2400)</text></g>
  <g stroke="#FFFFFF" stroke-width="7" stroke-linejoin="round">
    <polygon points="3255.1,1114.7 2961.8,1283.0 2852.9,1242.8 2840.6,1227.2 2803.8,505.0 3568.1,505.0" fill="#38BDF8" fill-opacity="0.65" />
    <polygon points="2438.4,1911.5 2852.9,1242.8 2961.8,1283.0 3048.7,1395.5 3118.4,2053.0 2464.5,2053.0" fill="#A78BFA" fill-opacity="0.65" />
    <polygon points="3048.7,1395.5 2961.8,1283.0 3255.1,1114.7 3720.0,1165.0 3720.0,1636.0" fill="#F472B6" fill-opacity="0.65" />
    <polygon points="1977.8,1586.4 1697.8,1786.8 1383.7,1465.8 1365.3,1313.6 1490.5,1073.2 1503.0,1070.4" fill="#FB923C" fill-opacity="0.65" />
    <polygon points="3255.1,1114.7 3568.1,505.0 3720.0,505.0 3720.0,1165.0" fill="#FACC15" fill-opacity="0.65" />
    <polygon points="2115.9,1009.1 1622.9,989.9 1716.2,505.0 2208.9,505.0" fill="#4ADE80" fill-opacity="0.65" />
    <polygon points="2212.4,1154.7 2115.9,1009.1 2208.9,505.0 2803.8,505.0 2840.6,1227.2" fill="#2DD4BF" fill-opacity="0.65" />
    <polygon points="576.3,1883.1 993.6,1332.0 1365.3,1313.6 1383.7,1465.8 787.4,2053.0 531.0,2053.0" fill="#60A5FA" fill-opacity="0.65" />
    <polygon points="3048.7,1395.5 3720.0,1636.0 3720.0,2053.0 3118.4,2053.0" fill="#E879F9" fill-opacity="0.65" />
    <polygon points="547.6,1291.9 880.6,983.0 993.6,1332.0 576.3,1883.1" fill="#34D399" fill-opacity="0.65" />
    <polygon points="1697.8,1786.8 1977.8,1586.4 2001.1,1581.2 2438.4,1911.5 2464.5,2053.0 1608.5,2053.0" fill="#F87171" fill-opacity="0.65" />
    <polygon points="953.0,651.6 880.6,983.0 547.6,1291.9 120.0,720.9 120.0,505.0 891.7,505.0" fill="#818CF8" fill-opacity="0.65" />
    <polygon points="993.6,1332.0 880.6,983.0 953.0,651.6 1490.5,1073.2 1365.3,1313.6" fill="#FBBF24" fill-opacity="0.65" />
    <polygon points="1383.7,1465.8 1697.8,1786.8 1608.5,2053.0 787.4,2053.0" fill="#A3E635" fill-opacity="0.65" />
    <polygon points="2001.1,1581.2 2212.4,1154.7 2840.6,1227.2 2852.9,1242.8 2438.4,1911.5" fill="#C084FC" fill-opacity="0.65" />
    <polygon points="120.0,720.9 547.6,1291.9 576.3,1883.1 531.0,2053.0 120.0,2053.0" fill="#FB7185" fill-opacity="0.65" />
    <polygon points="1622.9,989.9 1503.0,1070.4 1490.5,1073.2 953.0,651.6 891.7,505.0 1716.2,505.0" fill="#22D3EE" fill-opacity="0.65" />
    <polygon points="2001.1,1581.2 1977.8,1586.4 1503.0,1070.4 1622.9,989.9 2115.9,1009.1 2212.4,1154.7" fill="#86EFAC" fill-opacity="0.65" />
  </g>
  <g>
    <circle cx="3209.0" cy="819.8" r="23" fill="#0F172A" stroke="#FFFFFF" stroke-width="7" />
    <circle cx="2848.7" cy="1795.8" r="23" fill="#0F172A" stroke="#FFFFFF" stroke-width="7" />
    <circle cx="3486.5" cy="1303.1" r="23" fill="#0F172A" stroke="#FFFFFF" stroke-width="7" />
    <circle cx="1645.2" cy="1435.0" r="23" fill="#0F172A" stroke="#FFFFFF" stroke-width="7" />
    <circle cx="3521.5" cy="980.2" r="23" fill="#0F172A" stroke="#FFFFFF" stroke-width="7" />
    <circle cx="1873.4" cy="756.2" r="23" fill="#0F172A" stroke="#FFFFFF" stroke-width="7" />
    <circle cx="2432.6" cy="859.3" r="23" fill="#0F172A" stroke="#FFFFFF" stroke-width="7" />
    <circle cx="1122.4" cy="1498.3" r="23" fill="#0F172A" stroke="#FFFFFF" stroke-width="7" />
    <circle cx="3328.2" cy="1744.9" r="23" fill="#0F172A" stroke="#FFFFFF" stroke-width="7" />
    <circle cx="798.6" cy="1253.1" r="23" fill="#0F172A" stroke="#FFFFFF" stroke-width="7" />
    <circle cx="2013.8" cy="1950.1" r="23" fill="#0F172A" stroke="#FFFFFF" stroke-width="7" />
    <circle cx="605.2" cy="1044.6" r="23" fill="#0F172A" stroke="#FFFFFF" stroke-width="7" />
    <circle cx="1105.4" cy="1153.7" r="23" fill="#0F172A" stroke="#FFFFFF" stroke-width="7" />
    <circle cx="1347.2" cy="1726.6" r="23" fill="#0F172A" stroke="#FFFFFF" stroke-width="7" />
    <circle cx="2359.5" cy="1492.5" r="23" fill="#0F172A" stroke="#FFFFFF" stroke-width="7" />
    <circle cx="294.1" cy="1277.5" r="23" fill="#0F172A" stroke="#FFFFFF" stroke-width="7" />
    <circle cx="1477.0" cy="679.9" r="23" fill="#0F172A" stroke="#FFFFFF" stroke-width="7" />
    <circle cx="1854.5" cy="1242.4" r="23" fill="#0F172A" stroke="#FFFFFF" stroke-width="7" />
  </g>
  <g font-family="Arial, sans-serif" font-size="47" fill="#64748B"><text x="227" y="2205">Each region contains all points closest to its dark site marker.</text><text x="3083" y="2205">sites: 18</text></g>
</svg>
