<svg xmlns="http://www.w3.org/2000/svg" width="3840" height="2400" viewBox="0 0 3840 2400" role="img" aria-labelledby="title description">
  <title id="title">Voronoi diagram with 96 sites</title>
  <desc id="description">A high-resolution 3840x2400 clipped Voronoi diagram with 96 sites. Seed: 1790304181.</desc>
  <defs>
    <linearGradient id="background" x1="0" y1="0" x2="1" y2="1"><stop stop-color="#F8FAFC"/><stop offset="1" stop-color="#E0F2FE"/></linearGradient>
    <filter id="shadow" x="-5%" y="-5%" width="110%" height="110%"><feDropShadow dx="0" dy="15" stdDeviation="22" flood-color="#0F172A" flood-opacity=".12"/></filter>
  </defs>
  <rect width="3840" height="2400" fill="url(#background)"/>
  <rect x="120" y="120" width="3600" height="2160" rx="63" fill="#FFFFFF" filter="url(#shadow)"/>
  <g font-family="Arial, sans-serif"><text x="227" y="296" font-size="101" font-weight="700" fill="#0F172A">Voronoi Diagram</text><text x="227" y="397" font-size="56" fill="#475569">96 sites · generated with seed 1790304181 · Ultra HD (3840x2400)</text></g>
  <g stroke="#FFFFFF" stroke-width="7" stroke-linejoin="round">
    <polygon points="3232.4,767.5 3277.0,840.9 3234.3,934.5 3047.9,977.3 3012.4,773.7" fill="#38BDF8" fill-opacity="0.65" />
    <polygon points="2591.2,1779.8 2595.7,1777.2 2945.2,1970.1 2955.9,1990.6 2968.1,2053.0 2529.2,2053.0" fill="#A78BFA" fill-opacity="0.65" />
    <polygon points="596.2,1823.4 579.2,1809.4 603.6,1582.6 904.6,1543.5 922.5,1646.2 896.3,1843.6" fill="#F472B6" fill-opacity="0.65" />
    <polygon points="1882.4,1416.5 1803.9,1298.0 1804.6,1251.2 1826.8,1231.8 1972.1,1239.7 1990.7,1256.2 1992.1,1427.0" fill="#FB923C" fill-opacity="0.65" />
    <polygon points="599.8,1579.8 566.3,1279.7 585.9,1275.7 761.7,1337.5 914.3,1516.0 904.6,1543.5 603.6,1582.6" fill="#FACC15" fill-opacity="0.65" />
    <polygon points="3344.9,1883.2 3425.3,1794.3 3492.1,1770.6 3720.0,1904.7 3720.0,2053.0 3284.4,2053.0" fill="#4ADE80" fill-opacity="0.65" />
    <polygon points="1521.6,709.3 1672.7,834.6 1672.3,987.7 1350.8,1046.6 1342.6,1034.0 1370.0,920.7" fill="#2DD4BF" fill-opacity="0.65" />
    <polygon points="375.4,854.4 531.4,955.7 532.9,959.3 463.9,1104.4 200.0,1077.0 120.0,1022.5 120.0,873.1" fill="#60A5FA" fill-opacity="0.65" />
    <polygon points="3173.3,1722.3 3174.2,1707.3 3297.4,1642.2 3425.3,1794.3 3344.9,1883.2" fill="#E879F9" fill-opacity="0.65" />
    <polygon points="896.3,1843.6 922.5,1646.2 1190.9,1698.1 1346.8,1980.2 1325.9,2053.0 990.7,2053.0" fill="#34D399" fill-opacity="0.65" />
    <polygon points="1346.8,1980.2 1190.9,1698.1 1269.3,1529.1 1369.6,1526.4 1391.3,1537.7 1419.8,1861.3" fill="#F87171" fill-opacity="0.65" />
    <polygon points="3521.4,1643.2 3393.3,1515.8 3534.8,1373.6 3720.0,1384.8 3720.0,1510.2" fill="#818CF8" fill-opacity="0.65" />
    <polygon points="461.8,1811.8 579.2,1809.4 596.2,1823.4 578.4,2053.0 318.0,2053.0" fill="#FBBF24" fill-opacity="0.65" />
    <polygon points="1025.3,1234.7 1071.8,1098.5 1205.5,1023.0 1342.6,1034.0 1350.8,1046.6 1379.8,1148.7 1335.0,1222.4 1056.2,1377.8" fill="#A3E635" fill-opacity="0.65" />
    <polygon points="1606.1,1772.8 1639.5,1646.4 1831.6,1611.8 1845.6,1624.1 1740.3,1826.3" fill="#C084FC" fill-opacity="0.65" />
    <polygon points="2781.0,1361.7 2945.7,1329.6 2978.7,1385.7 2874.3,1572.5 2768.7,1548.3 2756.9,1388.3" fill="#FB7185" fill-opacity="0.65" />
    <polygon points="2387.3,1738.1 2591.2,1779.8 2529.2,2053.0 2316.0,2053.0" fill="#22D3EE" fill-opacity="0.65" />
    <polygon points="2764.4,1008.2 2696.6,1213.0 2543.1,1280.7 2418.2,1239.8 2519.3,1071.3 2696.4,968.6 2722.5,962.8" fill="#86EFAC" fill-opacity="0.65" />
    <polygon points="1419.8,1861.3 1391.3,1537.7 1552.2,1486.2 1639.5,1646.4 1606.1,1772.8" fill="#FCD34D" fill-opacity="0.65" />
    <polygon points="3063.5,1437.8 3011.7,1640.1 2937.4,1678.6 2874.3,1572.5 2978.7,1385.7" fill="#38BDF8" fill-opacity="0.65" />
    <polygon points="2564.2,1524.5 2625.8,1403.0 2756.9,1388.3 2768.7,1548.3 2653.4,1631.9" fill="#38BDF8" fill-opacity="0.65" />
    <polygon points="2625.8,1403.0 2564.2,1524.5 2444.4,1512.4 2390.5,1250.1 2418.2,1239.8 2543.1,1280.7" fill="#A78BFA" fill-opacity="0.65" />
    <polygon points="1042.0,1421.0 1269.3,1529.1 1190.9,1698.1 922.5,1646.2 904.6,1543.5 914.3,1516.0" fill="#F472B6" fill-opacity="0.65" />
    <polygon points="3556.5,978.6 3307.3,835.3 3466.8,721.4 3523.3,774.9" fill="#FB923C" fill-opacity="0.65" />
    <polygon points="740.0,1030.6 792.5,1014.0 848.8,1162.7 761.7,1337.5 585.9,1275.7" fill="#FACC15" fill-opacity="0.65" />
    <polygon points="3318.3,1531.1 3335.3,1515.7 3393.3,1515.8 3521.4,1643.2 3492.1,1770.6 3425.3,1794.3 3297.4,1642.2" fill="#4ADE80" fill-opacity="0.65" />
    <polygon points="3523.3,774.9 3466.8,721.4 3483.3,505.0 3720.0,505.0 3720.0,750.4" fill="#2DD4BF" fill-opacity="0.65" />
    <polygon points="2346.3,824.7 2454.9,597.0 2730.2,868.4 2722.5,962.8 2696.4,968.6" fill="#60A5FA" fill-opacity="0.65" />
    <polygon points="1735.5,826.3 1934.3,976.8 1842.1,1049.6 1686.9,1007.7 1672.3,987.7 1672.7,834.6" fill="#E879F9" fill-opacity="0.65" />
    <polygon points="3165.5,1522.7 3318.3,1531.1 3297.4,1642.2 3174.2,1707.3 3132.4,1657.3" fill="#34D399" fill-opacity="0.65" />
    <polygon points="1628.0,1208.1 1545.8,1236.3 1379.8,1148.7 1350.8,1046.6 1672.3,987.7 1686.9,1007.7" fill="#F87171" fill-opacity="0.65" />
    <polygon points="2135.8,1533.6 2236.9,1274.5 2279.7,1232.0 2390.5,1250.1 2444.4,1512.4 2304.8,1642.2 2200.2,1626.4" fill="#818CF8" fill-opacity="0.65" />
    <polygon points="2260.8,1187.7 2328.0,906.7 2519.3,1071.3 2418.2,1239.8 2390.5,1250.1 2279.7,1232.0" fill="#FBBF24" fill-opacity="0.65" />
    <polygon points="1842.1,1049.6 1934.3,976.8 2016.3,952.9 2053.1,1026.9 1972.1,1239.7 1826.8,1231.8" fill="#A3E635" fill-opacity="0.65" />
    <polygon points="3082.7,1440.1 3271.0,1304.7 3335.3,1515.7 3318.3,1531.1 3165.5,1522.7" fill="#C084FC" fill-opacity="0.65" />
    <polygon points="3541.1,1056.1 3393.0,1249.6 3285.3,1257.0 3255.7,1219.8 3280.5,1019.5" fill="#FB7185" fill-opacity="0.65" />
    <polygon points="1570.4,1461.4 1552.2,1486.2 1391.3,1537.7 1369.6,1526.4 1335.0,1222.4 1379.8,1148.7 1545.8,1236.3" fill="#22D3EE" fill-opacity="0.65" />
    <polygon points="2143.7,1728.8 2200.2,1626.4 2304.8,1642.2 2387.3,1738.1 2316.0,2053.0 2186.9,2053.0" fill="#86EFAC" fill-opacity="0.65" />
    <polygon points="354.8,1373.1 549.5,1276.0 566.3,1279.7 599.8,1579.8 257.2,1547.5" fill="#FCD34D" fill-opacity="0.65" />
    <polygon points="627.8,775.6 531.4,955.7 375.4,854.4 529.0,651.8" fill="#38BDF8" fill-opacity="0.65" />
    <polygon points="841.9,952.8 1071.8,1098.5 1025.3,1234.7 848.8,1162.7 792.5,1014.0" fill="#38BDF8" fill-opacity="0.65" />
    <polygon points="3280.5,1019.5 3255.7,1219.8 2984.2,1162.8 2949.4,1078.2 3047.9,977.3 3234.3,934.5" fill="#A78BFA" fill-opacity="0.65" />
    <polygon points="200.0,1077.0 463.9,1104.4 549.5,1276.0 354.8,1373.1" fill="#F472B6" fill-opacity="0.65" />
    <polygon points="1092.8,881.8 1129.4,716.9 1152.4,703.0 1370.0,920.7 1342.6,1034.0 1205.5,1023.0" fill="#FB923C" fill-opacity="0.65" />
    <polygon points="2949.4,1078.2 2764.4,1008.2 2722.5,962.8 2730.2,868.4 2806.8,768.7 2983.2,740.7 3012.4,773.7 3047.9,977.3" fill="#FACC15" fill-opacity="0.65" />
    <polygon points="3534.8,1373.6 3393.0,1249.6 3541.1,1056.1 3590.0,1030.9 3720.0,1054.4 3720.0,1384.8" fill="#4ADE80" fill-opacity="0.65" />
    <polygon points="2071.7,568.8 1991.9,838.9 1841.7,744.4 1847.4,505.0 2066.0,505.0" fill="#2DD4BF" fill-opacity="0.65" />
    <polygon points="2806.8,768.7 2730.2,868.4 2454.9,597.0 2450.2,505.0 2779.4,505.0" fill="#60A5FA" fill-opacity="0.65" />
    <polygon points="2247.0,845.7 2022.0,940.2 1991.9,838.9 2071.7,568.8" fill="#E879F9" fill-opacity="0.65" />
    <polygon points="252.4,1615.0 461.8,1811.8 318.0,2053.0 285.4,2053.0" fill="#34D399" fill-opacity="0.65" />
    <polygon points="3466.8,721.4 3307.3,835.3 3277.0,840.9 3232.4,767.5 3205.4,505.0 3483.3,505.0" fill="#F87171" fill-opacity="0.65" />
    <polygon points="1862.7,1992.7 1957.5,1795.8 2143.7,1728.8 2186.9,2053.0 1869.0,2053.0" fill="#818CF8" fill-opacity="0.65" />
    <polygon points="2236.9,1274.5 2135.8,1533.6 2105.2,1527.5 1992.1,1427.0 1990.7,1256.2" fill="#FBBF24" fill-opacity="0.65" />
    <polygon points="1369.6,1526.4 1269.3,1529.1 1042.0,1421.0 1056.2,1377.8 1335.0,1222.4" fill="#A3E635" fill-opacity="0.65" />
    <polygon points="1152.4,703.0 1129.4,716.9 878.0,684.8 841.7,505.0 1263.5,505.0" fill="#C084FC" fill-opacity="0.65" />
    <polygon points="848.8,1162.7 1025.3,1234.7 1056.2,1377.8 1042.0,1421.0 914.3,1516.0 761.7,1337.5" fill="#FB7185" fill-opacity="0.65" />
    <polygon points="1628.0,1208.1 1686.9,1007.7 1842.1,1049.6 1826.8,1231.8 1804.6,1251.2" fill="#22D3EE" fill-opacity="0.65" />
    <polygon points="2652.0,1661.5 2653.4,1631.9 2768.7,1548.3 2874.3,1572.5 2937.4,1678.6 2917.2,1750.0" fill="#86EFAC" fill-opacity="0.65" />
    <polygon points="2955.9,1990.6 2945.2,1970.1 2917.2,1750.0 2937.4,1678.6 3011.7,1640.1 3132.4,1657.3 3174.2,1707.3 3173.3,1722.3" fill="#FCD34D" fill-opacity="0.65" />
    <polygon points="596.2,1823.4 896.3,1843.6 990.7,2053.0 578.4,2053.0" fill="#38BDF8" fill-opacity="0.65" />
    <polygon points="2022.0,940.2 2247.0,845.7 2317.4,851.3 2328.0,906.7 2260.8,1187.7 2053.1,1026.9 2016.3,952.9" fill="#38BDF8" fill-opacity="0.65" />
    <polygon points="2955.9,1990.6 3173.3,1722.3 3344.9,1883.2 3284.4,2053.0 2968.1,2053.0" fill="#A78BFA" fill-opacity="0.65" />
    <polygon points="1841.7,744.4 1735.5,826.3 1672.7,834.6 1521.6,709.3 1506.7,505.0 1847.4,505.0" fill="#F472B6" fill-opacity="0.65" />
    <polygon points="1740.3,1826.3 1845.6,1624.1 1859.0,1627.5 1957.5,1795.8 1862.7,1992.7" fill="#FB923C" fill-opacity="0.65" />
    <polygon points="1957.5,1795.8 1859.0,1627.5 2105.2,1527.5 2135.8,1533.6 2200.2,1626.4 2143.7,1728.8" fill="#FACC15" fill-opacity="0.65" />
    <polygon points="2949.4,1078.2 2984.2,1162.8 2945.7,1329.6 2781.0,1361.7 2696.6,1213.0 2764.4,1008.2" fill="#4ADE80" fill-opacity="0.65" />
    <polygon points="1684.4,1448.3 1570.4,1461.4 1545.8,1236.3 1628.0,1208.1 1804.6,1251.2 1803.9,1298.0" fill="#2DD4BF" fill-opacity="0.65" />
    <polygon points="2984.2,1162.8 3255.7,1219.8 3285.3,1257.0 3271.0,1304.7 3082.7,1440.1 3063.5,1437.8 2978.7,1385.7 2945.7,1329.6" fill="#60A5FA" fill-opacity="0.65" />
    <polygon points="3590.0,1030.9 3541.1,1056.1 3280.5,1019.5 3234.3,934.5 3277.0,840.9 3307.3,835.3 3556.5,978.6" fill="#E879F9" fill-opacity="0.65" />
    <polygon points="3232.4,767.5 3012.4,773.7 2983.2,740.7 3066.1,505.0 3205.4,505.0" fill="#34D399" fill-opacity="0.65" />
    <polygon points="461.8,1811.8 252.4,1615.0 224.7,1571.9 257.2,1547.5 599.8,1579.8 603.6,1582.6 579.2,1809.4" fill="#F87171" fill-opacity="0.65" />
    <polygon points="1841.7,744.4 1991.9,838.9 2022.0,940.2 2016.3,952.9 1934.3,976.8 1735.5,826.3" fill="#818CF8" fill-opacity="0.65" />
    <polygon points="529.0,651.8 375.4,854.4 120.0,873.1 120.0,505.0 512.0,505.0" fill="#FBBF24" fill-opacity="0.65" />
    <polygon points="828.3,807.1 878.0,684.8 1129.4,716.9 1092.8,881.8 851.6,905.5" fill="#A3E635" fill-opacity="0.65" />
    <polygon points="1810.2,1535.5 1831.6,1611.8 1639.5,1646.4 1552.2,1486.2 1570.4,1461.4 1684.4,1448.3" fill="#C084FC" fill-opacity="0.65" />
    <polygon points="2983.2,740.7 2806.8,768.7 2779.4,505.0 3066.1,505.0" fill="#FB7185" fill-opacity="0.65" />
    <polygon points="2652.0,1661.5 2917.2,1750.0 2945.2,1970.1 2595.7,1777.2" fill="#22D3EE" fill-opacity="0.65" />
    <polygon points="1521.6,709.3 1370.0,920.7 1152.4,703.0 1263.5,505.0 1506.7,505.0" fill="#86EFAC" fill-opacity="0.65" />
    <polygon points="3082.7,1440.1 3165.5,1522.7 3132.4,1657.3 3011.7,1640.1 3063.5,1437.8" fill="#FCD34D" fill-opacity="0.65" />
    <polygon points="851.6,905.5 1092.8,881.8 1205.5,1023.0 1071.8,1098.5 841.9,952.8" fill="#38BDF8" fill-opacity="0.65" />
    <polygon points="2781.0,1361.7 2756.9,1388.3 2625.8,1403.0 2543.1,1280.7 2696.6,1213.0" fill="#38BDF8" fill-opacity="0.65" />
    <polygon points="3285.3,1257.0 3393.0,1249.6 3534.8,1373.6 3393.3,1515.8 3335.3,1515.7 3271.0,1304.7" fill="#A78BFA" fill-opacity="0.65" />
    <polygon points="878.0,684.8 828.3,807.1 627.8,775.6 529.0,651.8 512.0,505.0 841.7,505.0" fill="#F472B6" fill-opacity="0.65" />
    <polygon points="2454.9,597.0 2346.3,824.7 2317.4,851.3 2247.0,845.7 2071.7,568.8 2066.0,505.0 2450.2,505.0" fill="#FB923C" fill-opacity="0.65" />
    <polygon points="1810.2,1535.5 1684.4,1448.3 1803.9,1298.0 1882.4,1416.5" fill="#FACC15" fill-opacity="0.65" />
    <polygon points="3590.0,1030.9 3556.5,978.6 3523.3,774.9 3720.0,750.4 3720.0,1054.4" fill="#4ADE80" fill-opacity="0.65" />
    <polygon points="740.0,1030.6 585.9,1275.7 566.3,1279.7 549.5,1276.0 463.9,1104.4 532.9,959.3" fill="#2DD4BF" fill-opacity="0.65" />
    <polygon points="2053.1,1026.9 2260.8,1187.7 2279.7,1232.0 2236.9,1274.5 1990.7,1256.2 1972.1,1239.7" fill="#60A5FA" fill-opacity="0.65" />
    <polygon points="3492.1,1770.6 3521.4,1643.2 3720.0,1510.2 3720.0,1904.7" fill="#E879F9" fill-opacity="0.65" />
    <polygon points="828.3,807.1 851.6,905.5 841.9,952.8 792.5,1014.0 740.0,1030.6 532.9,959.3 531.4,955.7 627.8,775.6" fill="#34D399" fill-opacity="0.65" />
    <polygon points="2105.2,1527.5 1859.0,1627.5 1845.6,1624.1 1831.6,1611.8 1810.2,1535.5 1882.4,1416.5 1992.1,1427.0" fill="#F87171" fill-opacity="0.65" />
    <polygon points="2387.3,1738.1 2304.8,1642.2 2444.4,1512.4 2564.2,1524.5 2653.4,1631.9 2652.0,1661.5 2595.7,1777.2 2591.2,1779.8" fill="#818CF8" fill-opacity="0.65" />
    <polygon points="2328.0,906.7 2317.4,851.3 2346.3,824.7 2696.4,968.6 2519.3,1071.3" fill="#FBBF24" fill-opacity="0.65" />
    <polygon points="1346.8,1980.2 1419.8,1861.3 1606.1,1772.8 1740.3,1826.3 1862.7,1992.7 1869.0,2053.0 1325.9,2053.0" fill="#A3E635" fill-opacity="0.65" />
    <polygon points="200.0,1077.0 354.8,1373.1 257.2,1547.5 224.7,1571.9 120.0,1574.5 120.0,1022.5" fill="#C084FC" fill-opacity="0.65" />
    <polygon points="120.0,1574.5 224.7,1571.9 252.4,1615.0 285.4,2053.0 120.0,2053.0" fill="#FB7185" fill-opacity="0.65" />
  </g>
  <g>
    <circle cx="3110.0" cy="829.8" r="16" fill="#0F172A" stroke="#FFFFFF" stroke-width="7" />
    <circle cx="2673.4" cy="1928.7" r="16" fill="#0F172A" stroke="#FFFFFF" stroke-width="7" />
    <circle cx="695.8" cy="1699.6" r="16" fill="#0F172A" stroke="#FFFFFF" stroke-width="7" />
    <circle cx="1927.7" cy="1340.3" r="16" fill="#0F172A" stroke="#FFFFFF" stroke-width="7" />
    <circle cx="662.8" cy="1446.0" r="16" fill="#0F172A" stroke="#FFFFFF" stroke-width="7" />
    <circle cx="3498.0" cy="1934.7" r="16" fill="#0F172A" stroke="#FFFFFF" stroke-width="7" />
    <circle cx="1563.5" cy="935.1" r="16" fill="#0F172A" stroke="#FFFFFF" stroke-width="7" />
    <circle cx="396.4" cy="996.8" r="16" fill="#0F172A" stroke="#FFFFFF" stroke-width="7" />
    <circle cx="3278.4" cy="1736.0" r="16" fill="#0F172A" stroke="#FFFFFF" stroke-width="7" />
    <circle cx="1127.4" cy="1757.0" r="16" fill="#0F172A" stroke="#FFFFFF" stroke-width="7" />
    <circle cx="1274.6" cy="1675.7" r="16" fill="#0F172A" stroke="#FFFFFF" stroke-width="7" />
    <circle cx="3517.0" cy="1514.9" r="16" fill="#0F172A" stroke="#FFFFFF" stroke-width="7" />
    <circle cx="494.0" cy="1945.1" r="16" fill="#0F172A" stroke="#FFFFFF" stroke-width="7" />
    <circle cx="1163.1" cy="1196.4" r="16" fill="#0F172A" stroke="#FFFFFF" stroke-width="7" />
    <circle cx="1731.1" cy="1706.3" r="16" fill="#0F172A" stroke="#FFFFFF" stroke-width="7" />
    <circle cx="2843.4" cy="1472.6" r="16" fill="#0F172A" stroke="#FFFFFF" stroke-width="7" />
    <circle cx="2452.8" cy="1878.7" r="16" fill="#0F172A" stroke="#FFFFFF" stroke-width="7" />
    <circle cx="2602.5" cy="1170.9" r="16" fill="#0F172A" stroke="#FFFFFF" stroke-width="7" />
    <circle cx="1530.4" cy="1653.2" r="16" fill="#0F172A" stroke="#FFFFFF" stroke-width="7" />
    <circle cx="2975.5" cy="1546.4" r="16" fill="#0F172A" stroke="#FFFFFF" stroke-width="7" />
    <circle cx="2683.7" cy="1484.4" r="16" fill="#0F172A" stroke="#FFFFFF" stroke-width="7" />
    <circle cx="2526.0" cy="1404.4" r="16" fill="#0F172A" stroke="#FFFFFF" stroke-width="7" />
    <circle cx="1154.0" cy="1619.7" r="16" fill="#0F172A" stroke="#FFFFFF" stroke-width="7" />
    <circle cx="3458.9" cy="848.2" r="16" fill="#0F172A" stroke="#FFFFFF" stroke-width="7" />
    <circle cx="752.5" cy="1191.1" r="16" fill="#0F172A" stroke="#FFFFFF" stroke-width="7" />
    <circle cx="3393.1" cy="1639.6" r="16" fill="#0F172A" stroke="#FFFFFF" stroke-width="7" />
    <circle cx="3593.0" cy="706.6" r="16" fill="#0F172A" stroke="#FFFFFF" stroke-width="7" />
    <circle cx="2525.0" cy="825.9" r="16" fill="#0F172A" stroke="#FFFFFF" stroke-width="7" />
    <circle cx="1781.5" cy="935.6" r="16" fill="#0F172A" stroke="#FFFFFF" stroke-width="7" />
    <circle cx="3209.2" cy="1605.1" r="16" fill="#0F172A" stroke="#FFFFFF" stroke-width="7" />
    <circle cx="1589.2" cy="1075.5" r="16" fill="#0F172A" stroke="#FFFFFF" stroke-width="7" />
    <circle cx="2326.9" cy="1445.3" r="16" fill="#0F172A" stroke="#FFFFFF" stroke-width="7" />
    <circle cx="2392.3" cy="1044.8" r="16" fill="#0F172A" stroke="#FFFFFF" stroke-width="7" />
    <circle cx="1938.9" cy="1134.9" r="16" fill="#0F172A" stroke="#FFFFFF" stroke-width="7" />
    <circle cx="3218.0" cy="1445.6" r="16" fill="#0F172A" stroke="#FFFFFF" stroke-width="7" />
    <circle cx="3373.9" cy="1108.3" r="16" fill="#0F172A" stroke="#FFFFFF" stroke-width="7" />
    <circle cx="1437.5" cy="1362.9" r="16" fill="#0F172A" stroke="#FFFFFF" stroke-width="7" />
    <circle cx="2267.7" cy="1836.8" r="16" fill="#0F172A" stroke="#FFFFFF" stroke-width="7" />
    <circle cx="508.8" cy="1463.2" r="16" fill="#0F172A" stroke="#FFFFFF" stroke-width="7" />
    <circle cx="514.0" cy="815.5" r="16" fill="#0F172A" stroke="#FFFFFF" stroke-width="7" />
    <circle cx="939.7" cy="1120.2" r="16" fill="#0F172A" stroke="#FFFFFF" stroke-width="7" />
    <circle cx="3168.2" cy="1082.9" r="16" fill="#0F172A" stroke="#FFFFFF" stroke-width="7" />
    <circle cx="375.6" cy="1195.8" r="16" fill="#0F172A" stroke="#FFFFFF" stroke-width="7" />
    <circle cx="1191.4" cy="845.0" r="16" fill="#0F172A" stroke="#FFFFFF" stroke-width="7" />
    <circle cx="2939.5" cy="859.6" r="16" fill="#0F172A" stroke="#FFFFFF" stroke-width="7" />
    <circle cx="3534.3" cy="1231.1" r="16" fill="#0F172A" stroke="#FFFFFF" stroke-width="7" />
    <circle cx="1933.7" cy="713.0" r="16" fill="#0F172A" stroke="#FFFFFF" stroke-width="7" />
    <circle cx="2684.7" cy="663.9" r="16" fill="#0F172A" stroke="#FFFFFF" stroke-width="7" />
    <circle cx="2109.2" cy="764.9" r="16" fill="#0F172A" stroke="#FFFFFF" stroke-width="7" />
    <circle cx="329.2" cy="1846.9" r="16" fill="#0F172A" stroke="#FFFFFF" stroke-width="7" />
    <circle cx="3344.3" cy="687.7" r="16" fill="#0F172A" stroke="#FFFFFF" stroke-width="7" />
    <circle cx="2052.3" cy="1865.4" r="16" fill="#0F172A" stroke="#FFFFFF" stroke-width="7" />
    <circle cx="2055.0" cy="1339.2" r="16" fill="#0F172A" stroke="#FFFFFF" stroke-width="7" />
    <circle cx="1266.7" cy="1382.4" r="16" fill="#0F172A" stroke="#FFFFFF" stroke-width="7" />
    <circle cx="1045.1" cy="602.2" r="16" fill="#0F172A" stroke="#FFFFFF" stroke-width="7" />
    <circle cx="884.1" cy="1256.6" r="16" fill="#0F172A" stroke="#FFFFFF" stroke-width="7" />
    <circle cx="1732.4" cy="1117.5" r="16" fill="#0F172A" stroke="#FFFFFF" stroke-width="7" />
    <circle cx="2803.0" cy="1648.9" r="16" fill="#0F172A" stroke="#FFFFFF" stroke-width="7" />
    <circle cx="3067.4" cy="1723.8" r="16" fill="#0F172A" stroke="#FFFFFF" stroke-width="7" />
    <circle cx="678.4" cy="1959.4" r="16" fill="#0F172A" stroke="#FFFFFF" stroke-width="7" />
    <circle cx="2208.2" cy="1000.7" r="16" fill="#0F172A" stroke="#FFFFFF" stroke-width="7" />
    <circle cx="3193.8" cy="1826.2" r="16" fill="#0F172A" stroke="#FFFFFF" stroke-width="7" />
    <circle cx="1751.3" cy="708.7" r="16" fill="#0F172A" stroke="#FFFFFF" stroke-width="7" />
    <circle cx="1843.9" cy="1765.1" r="16" fill="#0F172A" stroke="#FFFFFF" stroke-width="7" />
    <circle cx="1986.3" cy="1681.7" r="16" fill="#0F172A" stroke="#FFFFFF" stroke-width="7" />
    <circle cx="2797.2" cy="1235.4" r="16" fill="#0F172A" stroke="#FFFFFF" stroke-width="7" />
    <circle cx="1678.9" cy="1336.5" r="16" fill="#0F172A" stroke="#FFFFFF" stroke-width="7" />
    <circle cx="3120.5" cy="1310.0" r="16" fill="#0F172A" stroke="#FFFFFF" stroke-width="7" />
    <circle cx="3394.8" cy="959.8" r="16" fill="#0F172A" stroke="#FFFFFF" stroke-width="7" />
    <circle cx="3106.7" cy="712.2" r="16" fill="#0F172A" stroke="#FFFFFF" stroke-width="7" />
    <circle cx="488.6" cy="1677.3" r="16" fill="#0F172A" stroke="#FFFFFF" stroke-width="7" />
    <circle cx="1853.2" cy="840.9" r="16" fill="#0F172A" stroke="#FFFFFF" stroke-width="7" />
    <circle cx="375.4" cy="710.4" r="16" fill="#0F172A" stroke="#FFFFFF" stroke-width="7" />
    <circle cx="1019.0" cy="806.8" r="16" fill="#0F172A" stroke="#FFFFFF" stroke-width="7" />
    <circle cx="1704.4" cy="1558.4" r="16" fill="#0F172A" stroke="#FFFFFF" stroke-width="7" />
    <circle cx="2904.8" cy="641.1" r="16" fill="#0F172A" stroke="#FFFFFF" stroke-width="7" />
    <circle cx="2765.3" cy="1762.2" r="16" fill="#0F172A" stroke="#FFFFFF" stroke-width="7" />
    <circle cx="1294.4" cy="742.0" r="16" fill="#0F172A" stroke="#FFFFFF" stroke-width="7" />
    <circle cx="3088.6" cy="1575.4" r="16" fill="#0F172A" stroke="#FFFFFF" stroke-width="7" />
    <circle cx="1035.1" cy="969.8" r="16" fill="#0F172A" stroke="#FFFFFF" stroke-width="7" />
    <circle cx="2664.3" cy="1310.8" r="16" fill="#0F172A" stroke="#FFFFFF" stroke-width="7" />
    <circle cx="3393.5" cy="1392.1" r="16" fill="#0F172A" stroke="#FFFFFF" stroke-width="7" />
    <circle cx="692.0" cy="673.6" r="16" fill="#0F172A" stroke="#FFFFFF" stroke-width="7" />
    <circle cx="2232.9" cy="686.6" r="16" fill="#0F172A" stroke="#FFFFFF" stroke-width="7" />
    <circle cx="1794.5" cy="1428.4" r="16" fill="#0F172A" stroke="#FFFFFF" stroke-width="7" />
    <circle cx="3607.7" cy="823.9" r="16" fill="#0F172A" stroke="#FFFFFF" stroke-width="7" />
    <circle cx="590.0" cy="1088.8" r="16" fill="#0F172A" stroke="#FFFFFF" stroke-width="7" />
    <circle cx="2066.6" cy="1183.5" r="16" fill="#0F172A" stroke="#FFFFFF" stroke-width="7" />
    <circle cx="3638.4" cy="1696.1" r="16" fill="#0F172A" stroke="#FFFFFF" stroke-width="7" />
    <circle cx="657.6" cy="892.4" r="16" fill="#0F172A" stroke="#FFFFFF" stroke-width="7" />
    <circle cx="1912.4" cy="1499.9" r="16" fill="#0F172A" stroke="#FFFFFF" stroke-width="7" />
    <circle cx="2502.8" cy="1634.6" r="16" fill="#0F172A" stroke="#FFFFFF" stroke-width="7" />
    <circle cx="2474.2" cy="949.6" r="16" fill="#0F172A" stroke="#FFFFFF" stroke-width="7" />
    <circle cx="1651.0" cy="1907.0" r="16" fill="#0F172A" stroke="#FFFFFF" stroke-width="7" />
    <circle cx="197.4" cy="1289.0" r="16" fill="#0F172A" stroke="#FFFFFF" stroke-width="7" />
    <circle cx="211.3" cy="1855.7" r="16" fill="#0F172A" stroke="#FFFFFF" stroke-width="7" />
  </g>
  <g font-family="Arial, sans-serif" font-size="47" fill="#64748B"><text x="227" y="2205">Each region contains all points closest to its dark site marker.</text><text x="3083" y="2205">sites: 96</text></g>
</svg>
