<svg xmlns="http://www.w3.org/2000/svg" width="3840" height="2400" viewBox="0 0 3840 2400" role="img" aria-labelledby="title description">
  <title id="title">Voronoi diagram with 95 sites</title>
  <desc id="description">A high-resolution 3840x2400 clipped Voronoi diagram with 95 sites. Seed: 1791957841.</desc>
  <defs>
    <linearGradient id="background" x1="0" y1="0" x2="1" y2="1"><stop stop-color="#F8FAFC"/><stop offset="1" stop-color="#E0F2FE"/></linearGradient>
    <filter id="shadow" x="-5%" y="-5%" width="110%" height="110%"><feDropShadow dx="0" dy="15" stdDeviation="22" flood-color="#0F172A" flood-opacity=".12"/></filter>
  </defs>
  <rect width="3840" height="2400" fill="url(#background)"/>
  <rect x="120" y="120" width="3600" height="2160" rx="63" fill="#FFFFFF" filter="url(#shadow)"/>
  <g font-family="Arial, sans-serif"><text x="227" y="296" font-size="101" font-weight="700" fill="#0F172A">Voronoi Diagram</text><text x="227" y="397" font-size="56" fill="#475569">95 sites · generated with seed 1791957841 · Ultra HD (3840x2400)</text></g>
  <g stroke="#FFFFFF" stroke-width="7" stroke-linejoin="round">
    <polygon points="779.9,1537.7 857.8,1413.9 989.5,1382.9 1053.3,1531.1 947.3,1678.7" fill="#38BDF8" fill-opacity="0.65" />
    <polygon points="1489.0,914.6 1500.8,885.6 1697.8,676.3 1788.1,717.0 1829.1,925.8 1818.9,954.4 1789.2,975.2" fill="#A78BFA" fill-opacity="0.65" />
    <polygon points="2133.6,1522.9 1920.4,1412.6 1875.4,1291.9 2049.0,1221.0 2113.1,1226.3 2199.8,1442.2 2144.2,1521.1" fill="#F472B6" fill-opacity="0.65" />
    <polygon points="1206.4,1852.5 1201.7,1863.4 900.5,1884.5 948.5,1686.3 1201.8,1715.0" fill="#FB923C" fill-opacity="0.65" />
    <polygon points="420.1,1534.3 323.0,1622.2 120.0,1562.4 120.0,1366.9 451.8,1295.8" fill="#FACC15" fill-opacity="0.65" />
    <polygon points="758.4,1272.6 762.4,1216.5 856.1,1156.6 1047.5,1214.8 1068.2,1250.5 989.5,1382.9 857.8,1413.9" fill="#4ADE80" fill-opacity="0.65" />
    <polygon points="1851.1,1944.4 2033.4,1788.3 2086.2,1810.4 2063.6,2053.0 1823.5,2053.0" fill="#2DD4BF" fill-opacity="0.65" />
    <polygon points="3167.4,966.9 3278.5,1226.0 3210.7,1396.8 3104.3,1442.1 3062.2,1436.0 2985.7,1337.2 3010.2,1024.5" fill="#60A5FA" fill-opacity="0.65" />
    <polygon points="1974.1,1004.3 2049.0,1221.0 1875.4,1291.9 1824.3,1271.6 1791.3,1198.8 1789.2,975.2 1818.9,954.4" fill="#E879F9" fill-opacity="0.65" />
    <polygon points="3055.0,1440.0 2830.6,1755.2 2627.2,1509.5" fill="#34D399" fill-opacity="0.65" />
    <polygon points="1231.4,1549.9 1259.2,1567.3 1266.7,1597.6 1201.8,1715.0 948.5,1686.3 947.3,1678.7 1053.3,1531.1" fill="#F87171" fill-opacity="0.65" />
    <polygon points="2988.3,1982.7 3110.0,1503.5 3246.9,1792.1 3211.6,1944.4 3133.1,2053.0 3017.8,2053.0" fill="#818CF8" fill-opacity="0.65" />
    <polygon points="1930.8,614.4 1788.1,717.0 1697.8,676.3 1645.7,505.0 1989.6,505.0" fill="#FBBF24" fill-opacity="0.65" />
    <polygon points="1028.0,779.7 1253.0,792.2 1346.3,907.2 1075.7,1057.4 924.8,881.6" fill="#A3E635" fill-opacity="0.65" />
    <polygon points="520.1,970.1 573.3,879.8 632.6,831.8 830.1,900.6 856.1,1156.6 762.4,1216.5 514.5,1072.7" fill="#C084FC" fill-opacity="0.65" />
    <polygon points="2146.9,1195.7 2344.9,1222.9 2377.6,1291.8 2242.5,1434.1 2199.8,1442.2 2113.1,1226.3" fill="#FB7185" fill-opacity="0.65" />
    <polygon points="3309.3,615.0 2996.1,694.6 2809.8,551.0 2809.9,505.0 3321.9,505.0" fill="#22D3EE" fill-opacity="0.65" />
    <polygon points="3327.2,740.5 3309.3,615.0 3321.9,505.0 3720.0,505.0 3720.0,815.7" fill="#86EFAC" fill-opacity="0.65" />
    <polygon points="2622.2,1507.5 2565.9,1791.9 2413.1,1842.5 2361.2,1694.0 2478.9,1542.4 2609.5,1495.8" fill="#FCD34D" fill-opacity="0.65" />
    <polygon points="3566.1,1539.3 3532.6,1407.9 3720.0,1165.6 3720.0,1568.5" fill="#38BDF8" fill-opacity="0.65" />
    <polygon points="621.0,1554.0 447.2,1827.1 323.0,1622.2 420.1,1534.3" fill="#38BDF8" fill-opacity="0.65" />
    <polygon points="2559.3,732.2 2477.9,751.0 2357.4,671.9 2338.9,505.0 2502.1,505.0" fill="#A78BFA" fill-opacity="0.65" />
    <polygon points="2242.6,805.8 2264.1,798.7 2405.0,837.7 2449.6,989.5 2403.9,1038.2 2260.3,1005.0" fill="#F472B6" fill-opacity="0.65" />
    <polygon points="2357.4,671.9 2477.9,751.0 2405.0,837.7 2264.1,798.7" fill="#FB923C" fill-opacity="0.65" />
    <polygon points="120.0,1562.4 323.0,1622.2 447.2,1827.1 453.0,1849.1 371.2,2053.0 120.0,2053.0" fill="#FACC15" fill-opacity="0.65" />
    <polygon points="1605.2,1471.8 1573.4,1637.7 1378.5,1661.7 1266.7,1597.6 1259.2,1567.3 1413.5,1404.7 1527.6,1405.4 1600.5,1453.4" fill="#4ADE80" fill-opacity="0.65" />
    <polygon points="881.8,1905.5 900.5,1884.5 1201.7,1863.4 1276.9,2053.0 873.6,2053.0" fill="#2DD4BF" fill-opacity="0.65" />
    <polygon points="1533.4,1178.4 1527.6,1405.4 1413.5,1404.7 1323.4,1297.1 1462.2,1065.8" fill="#60A5FA" fill-opacity="0.65" />
    <polygon points="1961.0,812.6 1829.1,925.8 1788.1,717.0 1930.8,614.4" fill="#E879F9" fill-opacity="0.65" />
    <polygon points="2086.2,1810.4 2146.7,1798.6 2354.9,1994.5 2356.5,2053.0 2063.6,2053.0" fill="#34D399" fill-opacity="0.65" />
    <polygon points="3523.6,1776.2 3485.9,1722.3 3535.6,1557.9 3566.1,1539.3 3720.0,1568.5 3720.0,1741.6" fill="#F87171" fill-opacity="0.65" />
    <polygon points="2153.8,764.3 2094.6,814.1 1961.0,812.6 1930.8,614.4 1989.6,505.0 2098.0,505.0" fill="#818CF8" fill-opacity="0.65" />
    <polygon points="1388.6,1803.4 1206.4,1852.5 1201.8,1715.0 1266.7,1597.6 1378.5,1661.7" fill="#FBBF24" fill-opacity="0.65" />
    <polygon points="2835.3,1784.4 2830.6,1755.2 3055.0,1440.0 3062.2,1436.0 3104.3,1442.1 3110.0,1503.5 2988.3,1982.7" fill="#A3E635" fill-opacity="0.65" />
    <polygon points="1600.5,1453.4 1527.6,1405.4 1533.4,1178.4 1791.3,1198.8 1824.3,1271.6" fill="#C084FC" fill-opacity="0.65" />
    <polygon points="1201.7,1863.4 1206.4,1852.5 1388.6,1803.4 1549.4,1931.9 1564.9,2053.0 1276.9,2053.0" fill="#FB7185" fill-opacity="0.65" />
    <polygon points="2478.9,1542.4 2361.2,1694.0 2226.6,1660.7 2144.2,1521.1 2199.8,1442.2 2242.5,1434.1" fill="#22D3EE" fill-opacity="0.65" />
    <polygon points="1697.8,676.3 1500.8,885.6 1506.8,505.0 1645.7,505.0" fill="#86EFAC" fill-opacity="0.65" />
    <polygon points="3500.0,1831.7 3523.6,1776.2 3720.0,1741.6 3720.0,2053.0 3585.3,2053.0" fill="#FCD34D" fill-opacity="0.65" />
    <polygon points="2041.9,1604.2 1851.7,1588.3 1846.8,1574.9 1920.4,1412.6 2133.6,1522.9" fill="#38BDF8" fill-opacity="0.65" />
    <polygon points="3532.6,1407.9 3245.8,1419.4 3210.7,1396.8 3278.5,1226.0 3607.3,1138.4 3720.0,1164.6 3720.0,1165.6" fill="#38BDF8" fill-opacity="0.65" />
    <polygon points="2862.2,1258.4 2824.0,1016.4 3010.2,1024.5 2985.7,1337.2" fill="#A78BFA" fill-opacity="0.65" />
    <polygon points="484.8,1121.5 454.9,1293.0 451.8,1295.8 120.0,1366.9 120.0,1142.0" fill="#F472B6" fill-opacity="0.65" />
    <polygon points="1806.6,1725.9 1612.1,1721.3 1573.4,1637.7 1605.2,1471.8 1846.8,1574.9 1851.7,1588.3 1831.3,1700.0" fill="#FB923C" fill-opacity="0.65" />
    <polygon points="2809.8,551.0 2767.8,671.6 2633.9,775.0 2559.3,732.2 2502.1,505.0 2809.9,505.0" fill="#FACC15" fill-opacity="0.65" />
    <polygon points="2199.5,1037.3 2260.3,1005.0 2403.9,1038.2 2406.8,1053.9 2344.9,1222.9 2146.9,1195.7" fill="#4ADE80" fill-opacity="0.65" />
    <polygon points="2647.5,937.3 2449.6,989.5 2405.0,837.7 2477.9,751.0 2559.3,732.2 2633.9,775.0" fill="#2DD4BF" fill-opacity="0.65" />
    <polygon points="2633.5,1833.0 2835.3,1784.4 2988.3,1982.7 3017.8,2053.0 2630.5,2053.0" fill="#60A5FA" fill-opacity="0.65" />
    <polygon points="632.6,831.8 573.3,879.8 120.0,593.3 120.0,505.0 660.2,505.0" fill="#E879F9" fill-opacity="0.65" />
    <polygon points="2357.4,671.9 2264.1,798.7 2242.6,805.8 2153.8,764.3 2098.0,505.0 2338.9,505.0" fill="#34D399" fill-opacity="0.65" />
    <polygon points="1149.0,1267.3 1231.4,1549.9 1053.3,1531.1 989.5,1382.9 1068.2,1250.5" fill="#F87171" fill-opacity="0.65" />
    <polygon points="830.1,900.6 924.8,881.6 1075.7,1057.4 1047.5,1214.8 856.1,1156.6" fill="#818CF8" fill-opacity="0.65" />
    <polygon points="2008.4,1742.5 1831.3,1700.0 1851.7,1588.3 2041.9,1604.2" fill="#FBBF24" fill-opacity="0.65" />
    <polygon points="693.7,1808.1 453.0,1849.1 447.2,1827.1 621.0,1554.0 664.8,1537.2 700.3,1552.1" fill="#A3E635" fill-opacity="0.65" />
    <polygon points="664.8,1537.2 621.0,1554.0 420.1,1534.3 451.8,1295.8 454.9,1293.0 612.6,1387.0" fill="#C084FC" fill-opacity="0.65" />
    <polygon points="2633.5,1833.0 2565.9,1791.9 2622.2,1507.5 2627.2,1509.5 2830.6,1755.2 2835.3,1784.4" fill="#FB7185" fill-opacity="0.65" />
    <polygon points="1253.0,792.2 1028.0,779.7 946.1,505.0 1284.0,505.0" fill="#22D3EE" fill-opacity="0.65" />
    <polygon points="612.6,1387.0 454.9,1293.0 484.8,1121.5 514.5,1072.7 762.4,1216.5 758.4,1272.6" fill="#86EFAC" fill-opacity="0.65" />
    <polygon points="1028.0,779.7 924.8,881.6 830.1,900.6 632.6,831.8 660.2,505.0 946.1,505.0" fill="#FCD34D" fill-opacity="0.65" />
    <polygon points="3325.1,1514.0 3372.4,1674.5 3246.9,1792.1 3110.0,1503.5 3104.3,1442.1 3210.7,1396.8 3245.8,1419.4" fill="#38BDF8" fill-opacity="0.65" />
    <polygon points="453.0,1849.1 693.7,1808.1 881.8,1905.5 873.6,2053.0 371.2,2053.0" fill="#38BDF8" fill-opacity="0.65" />
    <polygon points="2354.9,1994.5 2146.7,1798.6 2226.6,1660.7 2361.2,1694.0 2413.1,1842.5" fill="#A78BFA" fill-opacity="0.65" />
    <polygon points="2596.4,1349.8 2609.5,1495.8 2478.9,1542.4 2242.5,1434.1 2377.6,1291.8" fill="#F472B6" fill-opacity="0.65" />
    <polygon points="1180.3,1260.5 1323.4,1297.1 1413.5,1404.7 1259.2,1567.3 1231.4,1549.9 1149.0,1267.3" fill="#FB923C" fill-opacity="0.65" />
    <polygon points="2406.8,1053.9 2603.7,1251.2 2605.5,1329.9 2596.4,1349.8 2377.6,1291.8 2344.9,1222.9" fill="#FACC15" fill-opacity="0.65" />
    <polygon points="1549.4,1931.9 1612.1,1721.3 1806.6,1725.9 1851.1,1944.4 1823.5,2053.0 1564.9,2053.0" fill="#4ADE80" fill-opacity="0.65" />
    <polygon points="700.3,1552.1 664.8,1537.2 612.6,1387.0 758.4,1272.6 857.8,1413.9 779.9,1537.7" fill="#2DD4BF" fill-opacity="0.65" />
    <polygon points="1387.1,928.5 1438.7,939.4 1462.2,1065.8 1323.4,1297.1 1180.3,1260.5" fill="#60A5FA" fill-opacity="0.65" />
    <polygon points="2885.5,806.0 2816.5,1011.8 2723.4,1004.5 2647.5,937.3 2633.9,775.0 2767.8,671.6" fill="#E879F9" fill-opacity="0.65" />
    <polygon points="2079.0,969.0 2094.6,814.1 2153.8,764.3 2242.6,805.8 2260.3,1005.0 2199.5,1037.3" fill="#34D399" fill-opacity="0.65" />
    <polygon points="1806.6,1725.9 1831.3,1700.0 2008.4,1742.5 2033.4,1788.3 1851.1,1944.4" fill="#F87171" fill-opacity="0.65" />
    <polygon points="1791.3,1198.8 1533.4,1178.4 1462.2,1065.8 1438.7,939.4 1489.0,914.6 1789.2,975.2" fill="#818CF8" fill-opacity="0.65" />
    <polygon points="2226.6,1660.7 2146.7,1798.6 2086.2,1810.4 2033.4,1788.3 2008.4,1742.5 2041.9,1604.2 2133.6,1522.9 2144.2,1521.1" fill="#FBBF24" fill-opacity="0.65" />
    <polygon points="3211.6,1944.4 3500.0,1831.7 3585.3,2053.0 3133.1,2053.0" fill="#A3E635" fill-opacity="0.65" />
    <polygon points="1500.8,885.6 1489.0,914.6 1438.7,939.4 1387.1,928.5 1346.3,907.2 1253.0,792.2 1284.0,505.0 1506.8,505.0" fill="#C084FC" fill-opacity="0.65" />
    <polygon points="3535.6,1557.9 3485.9,1722.3 3372.4,1674.5 3325.1,1514.0" fill="#FB7185" fill-opacity="0.65" />
    <polygon points="2354.9,1994.5 2413.1,1842.5 2565.9,1791.9 2633.5,1833.0 2630.5,2053.0 2356.5,2053.0" fill="#22D3EE" fill-opacity="0.65" />
    <polygon points="2079.0,969.0 2199.5,1037.3 2146.9,1195.7 2113.1,1226.3 2049.0,1221.0 1974.1,1004.3" fill="#86EFAC" fill-opacity="0.65" />
    <polygon points="3607.3,1138.4 3278.5,1226.0 3167.4,966.9 3171.3,955.3 3326.1,744.8" fill="#FCD34D" fill-opacity="0.65" />
    <polygon points="3055.0,1440.0 2627.2,1509.5 2622.2,1507.5 2609.5,1495.8 2596.4,1349.8 2605.5,1329.9 2862.2,1258.4 2985.7,1337.2 3062.2,1436.0" fill="#38BDF8" fill-opacity="0.65" />
    <polygon points="2603.7,1251.2 2406.8,1053.9 2403.9,1038.2 2449.6,989.5 2647.5,937.3 2723.4,1004.5" fill="#38BDF8" fill-opacity="0.65" />
    <polygon points="3327.2,740.5 3326.1,744.8 3171.3,955.3 2950.7,792.5 2996.1,694.6 3309.3,615.0" fill="#A78BFA" fill-opacity="0.65" />
    <polygon points="3535.6,1557.9 3325.1,1514.0 3245.8,1419.4 3532.6,1407.9 3566.1,1539.3" fill="#F472B6" fill-opacity="0.65" />
    <polygon points="3607.3,1138.4 3326.1,744.8 3327.2,740.5 3720.0,815.7 3720.0,1164.6" fill="#FB923C" fill-opacity="0.65" />
    <polygon points="3211.6,1944.4 3246.9,1792.1 3372.4,1674.5 3485.9,1722.3 3523.6,1776.2 3500.0,1831.7" fill="#FACC15" fill-opacity="0.65" />
    <polygon points="1846.8,1574.9 1605.2,1471.8 1600.5,1453.4 1824.3,1271.6 1875.4,1291.9 1920.4,1412.6" fill="#4ADE80" fill-opacity="0.65" />
    <polygon points="1075.7,1057.4 1346.3,907.2 1387.1,928.5 1180.3,1260.5 1149.0,1267.3 1068.2,1250.5 1047.5,1214.8" fill="#2DD4BF" fill-opacity="0.65" />
    <polygon points="2950.7,792.5 2885.5,806.0 2767.8,671.6 2809.8,551.0 2996.1,694.6" fill="#60A5FA" fill-opacity="0.65" />
    <polygon points="1961.0,812.6 2094.6,814.1 2079.0,969.0 1974.1,1004.3 1818.9,954.4 1829.1,925.8" fill="#E879F9" fill-opacity="0.65" />
    <polygon points="2824.0,1016.4 2816.5,1011.8 2885.5,806.0 2950.7,792.5 3171.3,955.3 3167.4,966.9 3010.2,1024.5" fill="#34D399" fill-opacity="0.65" />
    <polygon points="693.7,1808.1 700.3,1552.1 779.9,1537.7 947.3,1678.7 948.5,1686.3 900.5,1884.5 881.8,1905.5" fill="#F87171" fill-opacity="0.65" />
    <polygon points="1549.4,1931.9 1388.6,1803.4 1378.5,1661.7 1573.4,1637.7 1612.1,1721.3" fill="#818CF8" fill-opacity="0.65" />
    <polygon points="2605.5,1329.9 2603.7,1251.2 2723.4,1004.5 2816.5,1011.8 2824.0,1016.4 2862.2,1258.4" fill="#FBBF24" fill-opacity="0.65" />
    <polygon points="520.1,970.1 514.5,1072.7 484.8,1121.5 120.0,1142.0 120.0,916.8" fill="#A3E635" fill-opacity="0.65" />
    <polygon points="573.3,879.8 520.1,970.1 120.0,916.8 120.0,593.3" fill="#C084FC" fill-opacity="0.65" />
  </g>
  <g>
    <circle cx="933.0" cy="1517.6" r="16" fill="#0F172A" stroke="#FFFFFF" stroke-width="7" />
    <circle cx="1708.5" cy="786.5" r="16" fill="#0F172A" stroke="#FFFFFF" stroke-width="7" />
    <circle cx="2044.9" cy="1373.4" r="16" fill="#0F172A" stroke="#FFFFFF" stroke-width="7" />
    <circle cx="1090.3" cy="1765.6" r="16" fill="#0F172A" stroke="#FFFFFF" stroke-width="7" />
    <circle cx="340.4" cy="1440.0" r="16" fill="#0F172A" stroke="#FFFFFF" stroke-width="7" />
    <circle cx="878.9" cy="1287.5" r="16" fill="#0F172A" stroke="#FFFFFF" stroke-width="7" />
    <circle cx="2011.7" cy="1901.9" r="16" fill="#0F172A" stroke="#FFFFFF" stroke-width="7" />
    <circle cx="3059.2" cy="1173.9" r="16" fill="#0F172A" stroke="#FFFFFF" stroke-width="7" />
    <circle cx="1939.5" cy="1115.1" r="16" fill="#0F172A" stroke="#FFFFFF" stroke-width="7" />
    <circle cx="2845.0" cy="1586.8" r="16" fill="#0F172A" stroke="#FFFFFF" stroke-width="7" />
    <circle cx="1104.4" cy="1640.8" r="16" fill="#0F172A" stroke="#FFFFFF" stroke-width="7" />
    <circle cx="3132.5" cy="1723.9" r="16" fill="#0F172A" stroke="#FFFFFF" stroke-width="7" />
    <circle cx="1787.5" cy="611.4" r="16" fill="#0F172A" stroke="#FFFFFF" stroke-width="7" />
    <circle cx="1098.3" cy="931.5" r="16" fill="#0F172A" stroke="#FFFFFF" stroke-width="7" />
    <circle cx="747.0" cy="1081.0" r="16" fill="#0F172A" stroke="#FFFFFF" stroke-width="7" />
    <circle cx="2264.1" cy="1285.3" r="16" fill="#0F172A" stroke="#FFFFFF" stroke-width="7" />
    <circle cx="2993.9" cy="612.9" r="16" fill="#0F172A" stroke="#FFFFFF" stroke-width="7" />
    <circle cx="3617.0" cy="684.1" r="16" fill="#0F172A" stroke="#FFFFFF" stroke-width="7" />
    <circle cx="2497.2" cy="1705.1" r="16" fill="#0F172A" stroke="#FFFFFF" stroke-width="7" />
    <circle cx="3614.6" cy="1447.4" r="16" fill="#0F172A" stroke="#FFFFFF" stroke-width="7" />
    <circle cx="506.0" cy="1622.9" r="16" fill="#0F172A" stroke="#FFFFFF" stroke-width="7" />
    <circle cx="2444.2" cy="657.5" r="16" fill="#0F172A" stroke="#FFFFFF" stroke-width="7" />
    <circle cx="2341.1" cy="893.2" r="16" fill="#0F172A" stroke="#FFFFFF" stroke-width="7" />
    <circle cx="2378.7" cy="757.2" r="16" fill="#0F172A" stroke="#FFFFFF" stroke-width="7" />
    <circle cx="239.0" cy="1784.7" r="16" fill="#0F172A" stroke="#FFFFFF" stroke-width="7" />
    <circle cx="1430.3" cy="1559.5" r="16" fill="#0F172A" stroke="#FFFFFF" stroke-width="7" />
    <circle cx="1105.0" cy="1975.8" r="16" fill="#0F172A" stroke="#FFFFFF" stroke-width="7" />
    <circle cx="1432.2" cy="1250.2" r="16" fill="#0F172A" stroke="#FFFFFF" stroke-width="7" />
    <circle cx="1888.1" cy="751.2" r="16" fill="#0F172A" stroke="#FFFFFF" stroke-width="7" />
    <circle cx="2142.5" cy="1914.1" r="16" fill="#0F172A" stroke="#FFFFFF" stroke-width="7" />
    <circle cx="3577.5" cy="1642.6" r="16" fill="#0F172A" stroke="#FFFFFF" stroke-width="7" />
    <circle cx="2012.4" cy="732.3" r="16" fill="#0F172A" stroke="#FFFFFF" stroke-width="7" />
    <circle cx="1316.5" cy="1758.0" r="16" fill="#0F172A" stroke="#FFFFFF" stroke-width="7" />
    <circle cx="2985.1" cy="1686.5" r="16" fill="#0F172A" stroke="#FFFFFF" stroke-width="7" />
    <circle cx="1630.7" cy="1255.2" r="16" fill="#0F172A" stroke="#FFFFFF" stroke-width="7" />
    <circle cx="1349.1" cy="1878.9" r="16" fill="#0F172A" stroke="#FFFFFF" stroke-width="7" />
    <circle cx="2316.7" cy="1565.0" r="16" fill="#0F172A" stroke="#FFFFFF" stroke-width="7" />
    <circle cx="1587.1" cy="672.3" r="16" fill="#0F172A" stroke="#FFFFFF" stroke-width="7" />
    <circle cx="3620.0" cy="1883.4" r="16" fill="#0F172A" stroke="#FFFFFF" stroke-width="7" />
    <circle cx="1960.3" cy="1536.8" r="16" fill="#0F172A" stroke="#FFFFFF" stroke-width="7" />
    <circle cx="3473.8" cy="1338.5" r="16" fill="#0F172A" stroke="#FFFFFF" stroke-width="7" />
    <circle cx="2938.6" cy="1164.5" r="16" fill="#0F172A" stroke="#FFFFFF" stroke-width="7" />
    <circle cx="291.1" cy="1209.8" r="16" fill="#0F172A" stroke="#FFFFFF" stroke-width="7" />
    <circle cx="1735.2" cy="1618.0" r="16" fill="#0F172A" stroke="#FFFFFF" stroke-width="7" />
    <circle cx="2625.3" cy="612.0" r="16" fill="#0F172A" stroke="#FFFFFF" stroke-width="7" />
    <circle cx="2283.9" cy="1141.0" r="16" fill="#0F172A" stroke="#FFFFFF" stroke-width="7" />
    <circle cx="2488.8" cy="849.8" r="16" fill="#0F172A" stroke="#FFFFFF" stroke-width="7" />
    <circle cx="2702.6" cy="1904.5" r="16" fill="#0F172A" stroke="#FFFFFF" stroke-width="7" />
    <circle cx="412.5" cy="668.2" r="16" fill="#0F172A" stroke="#FFFFFF" stroke-width="7" />
    <circle cx="2269.5" cy="676.9" r="16" fill="#0F172A" stroke="#FFFFFF" stroke-width="7" />
    <circle cx="1126.2" cy="1434.5" r="16" fill="#0F172A" stroke="#FFFFFF" stroke-width="7" />
    <circle cx="947.8" cy="1060.7" r="16" fill="#0F172A" stroke="#FFFFFF" stroke-width="7" />
    <circle cx="1950.3" cy="1657.2" r="16" fill="#0F172A" stroke="#FFFFFF" stroke-width="7" />
    <circle cx="607.3" cy="1687.4" r="16" fill="#0F172A" stroke="#FFFFFF" stroke-width="7" />
    <circle cx="521.6" cy="1464.0" r="16" fill="#0F172A" stroke="#FFFFFF" stroke-width="7" />
    <circle cx="2662.5" cy="1737.8" r="16" fill="#0F172A" stroke="#FFFFFF" stroke-width="7" />
    <circle cx="1114.8" cy="636.6" r="16" fill="#0F172A" stroke="#FFFFFF" stroke-width="7" />
    <circle cx="637.1" cy="1270.4" r="16" fill="#0F172A" stroke="#FFFFFF" stroke-width="7" />
    <circle cx="877.0" cy="707.5" r="16" fill="#0F172A" stroke="#FFFFFF" stroke-width="7" />
    <circle cx="3266.4" cy="1660.4" r="16" fill="#0F172A" stroke="#FFFFFF" stroke-width="7" />
    <circle cx="652.2" cy="1950.6" r="16" fill="#0F172A" stroke="#FFFFFF" stroke-width="7" />
    <circle cx="2261.7" cy="1787.4" r="16" fill="#0F172A" stroke="#FFFFFF" stroke-width="7" />
    <circle cx="2390.0" cy="1404.8" r="16" fill="#0F172A" stroke="#FFFFFF" stroke-width="7" />
    <circle cx="1258.1" cy="1396.0" r="16" fill="#0F172A" stroke="#FFFFFF" stroke-width="7" />
    <circle cx="2444.3" cy="1199.7" r="16" fill="#0F172A" stroke="#FFFFFF" stroke-width="7" />
    <circle cx="1730.1" cy="1830.4" r="16" fill="#0F172A" stroke="#FFFFFF" stroke-width="7" />
    <circle cx="731.7" cy="1391.0" r="16" fill="#0F172A" stroke="#FFFFFF" stroke-width="7" />
    <circle cx="1313.6" cy="1179.0" r="16" fill="#0F172A" stroke="#FFFFFF" stroke-width="7" />
    <circle cx="2789.4" cy="824.6" r="16" fill="#0F172A" stroke="#FFFFFF" stroke-width="7" />
    <circle cx="2161.1" cy="909.1" r="16" fill="#0F172A" stroke="#FFFFFF" stroke-width="7" />
    <circle cx="1917.8" cy="1792.2" r="16" fill="#0F172A" stroke="#FFFFFF" stroke-width="7" />
    <circle cx="1641.6" cy="1117.9" r="16" fill="#0F172A" stroke="#FFFFFF" stroke-width="7" />
    <circle cx="2099.2" cy="1693.2" r="16" fill="#0F172A" stroke="#FFFFFF" stroke-width="7" />
    <circle cx="3445.8" cy="1950.5" r="16" fill="#0F172A" stroke="#FFFFFF" stroke-width="7" />
    <circle cx="1421.3" cy="669.7" r="16" fill="#0F172A" stroke="#FFFFFF" stroke-width="7" />
    <circle cx="3453.8" cy="1605.2" r="16" fill="#0F172A" stroke="#FFFFFF" stroke-width="7" />
    <circle cx="2562.6" cy="1902.6" r="16" fill="#0F172A" stroke="#FFFFFF" stroke-width="7" />
    <circle cx="2069.8" cy="1070.0" r="16" fill="#0F172A" stroke="#FFFFFF" stroke-width="7" />
    <circle cx="3391.9" cy="1031.2" r="16" fill="#0F172A" stroke="#FFFFFF" stroke-width="7" />
    <circle cx="2809.3" cy="1367.2" r="16" fill="#0F172A" stroke="#FFFFFF" stroke-width="7" />
    <circle cx="2552.6" cy="1091.7" r="16" fill="#0F172A" stroke="#FFFFFF" stroke-width="7" />
    <circle cx="3033.2" cy="767.4" r="16" fill="#0F172A" stroke="#FFFFFF" stroke-width="7" />
    <circle cx="3479.5" cy="1481.8" r="16" fill="#0F172A" stroke="#FFFFFF" stroke-width="7" />
    <circle cx="3575.7" cy="900.0" r="16" fill="#0F172A" stroke="#FFFFFF" stroke-width="7" />
    <circle cx="3379.6" cy="1781.2" r="16" fill="#0F172A" stroke="#FFFFFF" stroke-width="7" />
    <circle cx="1800.7" cy="1464.4" r="16" fill="#0F172A" stroke="#FFFFFF" stroke-width="7" />
    <circle cx="1194.6" cy="1104.8" r="16" fill="#0F172A" stroke="#FFFFFF" stroke-width="7" />
    <circle cx="2916.6" cy="713.2" r="16" fill="#0F172A" stroke="#FFFFFF" stroke-width="7" />
    <circle cx="2010.5" cy="894.0" r="16" fill="#0F172A" stroke="#FFFFFF" stroke-width="7" />
    <circle cx="2951.0" cy="878.7" r="16" fill="#0F172A" stroke="#FFFFFF" stroke-width="7" />
    <circle cx="786.1" cy="1692.0" r="16" fill="#0F172A" stroke="#FFFFFF" stroke-width="7" />
    <circle cx="1453.6" cy="1748.2" r="16" fill="#0F172A" stroke="#FFFFFF" stroke-width="7" />
    <circle cx="2760.6" cy="1192.6" r="16" fill="#0F172A" stroke="#FFFFFF" stroke-width="7" />
    <circle cx="282.4" cy="1055.5" r="16" fill="#0F172A" stroke="#FFFFFF" stroke-width="7" />
    <circle cx="313.1" cy="825.4" r="16" fill="#0F172A" stroke="#FFFFFF" stroke-width="7" />
  </g>
  <g font-family="Arial, sans-serif" font-size="47" fill="#64748B"><text x="227" y="2205">Each region contains all points closest to its dark site marker.</text><text x="3083" y="2205">sites: 95</text></g>
</svg>
