<svg xmlns="http://www.w3.org/2000/svg" width="3840" height="2400" viewBox="0 0 3840 2400" role="img" aria-labelledby="title description">
  <title id="title">Voronoi diagram with 46 sites</title>
  <desc id="description">A high-resolution 3840x2400 clipped Voronoi diagram with 46 sites. Seed: 1790840311.</desc>
  <defs>
    <linearGradient id="background" x1="0" y1="0" x2="1" y2="1"><stop stop-color="#F8FAFC"/><stop offset="1" stop-color="#E0F2FE"/></linearGradient>
    <filter id="shadow" x="-5%" y="-5%" width="110%" height="110%"><feDropShadow dx="0" dy="15" stdDeviation="22" flood-color="#0F172A" flood-opacity=".12"/></filter>
  </defs>
  <rect width="3840" height="2400" fill="url(#background)"/>
  <rect x="120" y="120" width="3600" height="2160" rx="63" fill="#FFFFFF" filter="url(#shadow)"/>
  <g font-family="Arial, sans-serif"><text x="227" y="296" font-size="101" font-weight="700" fill="#0F172A">Voronoi Diagram</text><text x="227" y="397" font-size="56" fill="#475569">46 sites · generated with seed 1790840311 · Ultra HD (3840x2400)</text></g>
  <g stroke="#FFFFFF" stroke-width="7" stroke-linejoin="round">
    <polygon points="3560.5,1755.0 3621.1,1725.8 3720.0,1723.4 3720.0,2053.0 3412.1,2053.0" fill="#38BDF8" fill-opacity="0.65" />
    <polygon points="3621.1,1725.8 3438.4,1382.1 3720.0,1365.8 3720.0,1723.4" fill="#A78BFA" fill-opacity="0.65" />
    <polygon points="1178.8,865.0 1104.9,941.4 965.8,913.2 981.1,505.0 1157.8,505.0" fill="#F472B6" fill-opacity="0.65" />
    <polygon points="3157.9,657.6 2861.8,857.6 2727.6,807.8 2726.4,805.2 2858.7,505.0 3144.6,505.0" fill="#FB923C" fill-opacity="0.65" />
    <polygon points="679.6,1460.2 881.4,1548.5 812.8,2053.0 517.0,2053.0" fill="#FACC15" fill-opacity="0.65" />
    <polygon points="2573.9,1117.3 2383.0,1131.7 2307.1,1108.4 2185.1,954.7 2355.8,598.6 2726.4,805.2 2727.6,807.8" fill="#4ADE80" fill-opacity="0.65" />
    <polygon points="574.0,1343.0 679.6,1460.2 517.0,2053.0 145.8,2053.0" fill="#2DD4BF" fill-opacity="0.65" />
    <polygon points="3060.2,1723.4 2930.9,1735.2 2747.9,1422.7 2805.9,1291.5 2889.8,1270.4 3103.7,1385.5" fill="#60A5FA" fill-opacity="0.65" />
    <polygon points="2355.8,598.6 2345.4,505.0 2858.7,505.0 2726.4,805.2" fill="#E879F9" fill-opacity="0.65" />
    <polygon points="881.4,1548.5 1027.7,1516.2 1111.7,1824.2 816.2,2053.0 812.8,2053.0" fill="#34D399" fill-opacity="0.65" />
    <polygon points="1261.7,1237.2 1135.8,1348.0 624.4,1066.4 627.1,1058.8 794.7,951.6 965.8,913.2 1104.9,941.4" fill="#F87171" fill-opacity="0.65" />
    <polygon points="1317.1,1847.2 1308.6,1661.6 1591.7,1419.5 1602.4,1422.7 1637.9,1448.1 1710.5,1747.6 1506.6,2053.0 1506.1,2053.0" fill="#818CF8" fill-opacity="0.65" />
    <polygon points="3128.7,1773.9 3327.8,1692.0 3560.5,1755.0 3412.1,2053.0 3197.5,2053.0" fill="#FBBF24" fill-opacity="0.65" />
    <polygon points="2985.8,1039.7 2889.8,1270.4 2805.9,1291.5 2573.9,1117.3 2727.6,807.8 2861.8,857.6" fill="#A3E635" fill-opacity="0.65" />
    <polygon points="2313.3,1654.1 2114.1,1714.4 2008.9,1424.6 2204.4,1311.9 2324.5,1609.4" fill="#C084FC" fill-opacity="0.65" />
    <polygon points="794.7,951.6 627.1,1058.8 313.2,505.0 764.9,505.0" fill="#FB7185" fill-opacity="0.65" />
    <polygon points="1364.0,1247.4 1608.7,823.8 1783.7,955.8 1602.4,1422.7 1591.7,1419.5" fill="#22D3EE" fill-opacity="0.65" />
    <polygon points="2122.7,954.6 1989.4,994.7 1783.7,955.8 1608.7,823.8 1571.6,730.9 1597.4,505.0 1837.6,505.0" fill="#86EFAC" fill-opacity="0.65" />
    <polygon points="794.7,951.6 764.9,505.0 981.1,505.0 965.8,913.2" fill="#FCD34D" fill-opacity="0.65" />
    <polygon points="1873.7,1375.8 1637.9,1448.1 1602.4,1422.7 1783.7,955.8 1989.4,994.7" fill="#38BDF8" fill-opacity="0.65" />
    <polygon points="1571.6,730.9 1608.7,823.8 1364.0,1247.4 1261.7,1237.2 1104.9,941.4 1178.8,865.0" fill="#38BDF8" fill-opacity="0.65" />
    <polygon points="2726.9,1877.1 2930.9,1735.2 3060.2,1723.4 3128.7,1773.9 3197.5,2053.0 2725.0,2053.0" fill="#A78BFA" fill-opacity="0.65" />
    <polygon points="3327.8,1692.0 3333.2,1370.2 3403.6,1362.5 3438.4,1382.1 3621.1,1725.8 3560.5,1755.0" fill="#F472B6" fill-opacity="0.65" />
    <polygon points="120.0,1241.5 524.7,1219.0 574.0,1343.0 145.8,2053.0 120.0,2053.0" fill="#FB923C" fill-opacity="0.65" />
    <polygon points="3256.7,1344.6 3103.7,1385.5 2889.8,1270.4 2985.8,1039.7 3247.1,961.9" fill="#FACC15" fill-opacity="0.65" />
    <polygon points="2355.8,598.6 2185.1,954.7 2122.7,954.6 1837.6,505.0 2345.4,505.0" fill="#4ADE80" fill-opacity="0.65" />
    <polygon points="3301.3,899.1 3247.1,961.9 2985.8,1039.7 2861.8,857.6 3157.9,657.6" fill="#2DD4BF" fill-opacity="0.65" />
    <polygon points="2466.0,1457.4 2324.5,1609.4 2204.4,1311.9 2307.1,1108.4 2383.0,1131.7" fill="#60A5FA" fill-opacity="0.65" />
    <polygon points="2433.7,1745.8 2594.9,1760.3 2726.9,1877.1 2725.0,2053.0 2344.5,2053.0" fill="#E879F9" fill-opacity="0.65" />
    <polygon points="3256.7,1344.6 3333.2,1370.2 3327.8,1692.0 3128.7,1773.9 3060.2,1723.4 3103.7,1385.5" fill="#34D399" fill-opacity="0.65" />
    <polygon points="3438.4,1382.1 3403.6,1362.5 3646.6,911.2 3720.0,887.6 3720.0,1365.8" fill="#F87171" fill-opacity="0.65" />
    <polygon points="2594.9,1760.3 2433.7,1745.8 2313.3,1654.1 2324.5,1609.4 2466.0,1457.4 2667.1,1484.0" fill="#818CF8" fill-opacity="0.65" />
    <polygon points="627.1,1058.8 624.4,1066.4 524.7,1219.0 120.0,1241.5 120.0,505.0 313.2,505.0" fill="#FBBF24" fill-opacity="0.65" />
    <polygon points="2047.2,1795.5 1710.5,1747.6 1637.9,1448.1 1873.7,1375.8 2008.9,1424.6 2114.1,1714.4" fill="#A3E635" fill-opacity="0.65" />
    <polygon points="1710.5,1747.6 2047.2,1795.5 2107.6,2053.0 1506.6,2053.0" fill="#C084FC" fill-opacity="0.65" />
    <polygon points="2204.4,1311.9 2008.9,1424.6 1873.7,1375.8 1989.4,994.7 2122.7,954.6 2185.1,954.7 2307.1,1108.4" fill="#FB7185" fill-opacity="0.65" />
    <polygon points="524.7,1219.0 624.4,1066.4 1135.8,1348.0 1061.8,1491.1 1027.7,1516.2 881.4,1548.5 679.6,1460.2 574.0,1343.0" fill="#22D3EE" fill-opacity="0.65" />
    <polygon points="2047.2,1795.5 2114.1,1714.4 2313.3,1654.1 2433.7,1745.8 2344.5,2053.0 2107.6,2053.0" fill="#86EFAC" fill-opacity="0.65" />
    <polygon points="1571.6,730.9 1178.8,865.0 1157.8,505.0 1597.4,505.0" fill="#FCD34D" fill-opacity="0.65" />
    <polygon points="3646.6,911.2 3403.6,1362.5 3333.2,1370.2 3256.7,1344.6 3247.1,961.9 3301.3,899.1" fill="#38BDF8" fill-opacity="0.65" />
    <polygon points="1111.7,1824.2 1317.1,1847.2 1506.1,2053.0 816.2,2053.0" fill="#38BDF8" fill-opacity="0.65" />
    <polygon points="1111.7,1824.2 1027.7,1516.2 1061.8,1491.1 1308.6,1661.6 1317.1,1847.2" fill="#A78BFA" fill-opacity="0.65" />
    <polygon points="2667.1,1484.0 2466.0,1457.4 2383.0,1131.7 2573.9,1117.3 2805.9,1291.5 2747.9,1422.7" fill="#F472B6" fill-opacity="0.65" />
    <polygon points="3646.6,911.2 3301.3,899.1 3157.9,657.6 3144.6,505.0 3720.0,505.0 3720.0,887.6" fill="#FB923C" fill-opacity="0.65" />
    <polygon points="1364.0,1247.4 1591.7,1419.5 1308.6,1661.6 1061.8,1491.1 1135.8,1348.0 1261.7,1237.2" fill="#FACC15" fill-opacity="0.65" />
    <polygon points="2594.9,1760.3 2667.1,1484.0 2747.9,1422.7 2930.9,1735.2 2726.9,1877.1" fill="#4ADE80" fill-opacity="0.65" />
  </g>
  <g>
    <circle cx="3617.3" cy="1976.5" r="21" fill="#0F172A" stroke="#FFFFFF" stroke-width="7" />
    <circle cx="3605.0" cy="1475.6" r="21" fill="#0F172A" stroke="#FFFFFF" stroke-width="7" />
    <circle cx="1075.9" cy="689.8" r="21" fill="#0F172A" stroke="#FFFFFF" stroke-width="7" />
    <circle cx="2924.0" cy="691.8" r="21" fill="#0F172A" stroke="#FFFFFF" stroke-width="7" />
    <circle cx="720.2" cy="1716.4" r="21" fill="#0F172A" stroke="#FFFFFF" stroke-width="7" />
    <circle cx="2511.2" cy="880.0" r="21" fill="#0F172A" stroke="#FFFFFF" stroke-width="7" />
    <circle cx="514.0" cy="1659.8" r="21" fill="#0F172A" stroke="#FFFFFF" stroke-width="7" />
    <circle cx="2928.2" cy="1529.7" r="21" fill="#0F172A" stroke="#FFFFFF" stroke-width="7" />
    <circle cx="2676.8" cy="582.9" r="21" fill="#0F172A" stroke="#FFFFFF" stroke-width="7" />
    <circle cx="992.0" cy="1753.3" r="21" fill="#0F172A" stroke="#FFFFFF" stroke-width="7" />
    <circle cx="980.3" cy="1161.9" r="21" fill="#0F172A" stroke="#FFFFFF" stroke-width="7" />
    <circle cx="1441.6" cy="1690.4" r="21" fill="#0F172A" stroke="#FFFFFF" stroke-width="7" />
    <circle cx="3349.5" cy="1843.2" r="21" fill="#0F172A" stroke="#FFFFFF" stroke-width="7" />
    <circle cx="2800.8" cy="1023.8" r="21" fill="#0F172A" stroke="#FFFFFF" stroke-width="7" />
    <circle cx="2170.1" cy="1484.0" r="21" fill="#0F172A" stroke="#FFFFFF" stroke-width="7" />
    <circle cx="681.5" cy="694.9" r="21" fill="#0F172A" stroke="#FFFFFF" stroke-width="7" />
    <circle cx="1614.6" cy="1110.7" r="21" fill="#0F172A" stroke="#FFFFFF" stroke-width="7" />
    <circle cx="1886.2" cy="750.6" r="21" fill="#0F172A" stroke="#FFFFFF" stroke-width="7" />
    <circle cx="872.7" cy="682.2" r="21" fill="#0F172A" stroke="#FFFFFF" stroke-width="7" />
    <circle cx="1804.0" cy="1184.2" r="21" fill="#0F172A" stroke="#FFFFFF" stroke-width="7" />
    <circle cx="1357.3" cy="962.0" r="21" fill="#0F172A" stroke="#FFFFFF" stroke-width="7" />
    <circle cx="2965.4" cy="1937.8" r="21" fill="#0F172A" stroke="#FFFFFF" stroke-width="7" />
    <circle cx="3422.7" cy="1572.5" r="21" fill="#0F172A" stroke="#FFFFFF" stroke-width="7" />
    <circle cx="321.7" cy="1543.9" r="21" fill="#0F172A" stroke="#FFFFFF" stroke-width="7" />
    <circle cx="3127.4" cy="1159.6" r="21" fill="#0F172A" stroke="#FFFFFF" stroke-width="7" />
    <circle cx="2039.1" cy="653.7" r="21" fill="#0F172A" stroke="#FFFFFF" stroke-width="7" />
    <circle cx="3038.8" cy="861.8" r="21" fill="#0F172A" stroke="#FFFFFF" stroke-width="7" />
    <circle cx="2348.5" cy="1412.0" r="21" fill="#0F172A" stroke="#FFFFFF" stroke-width="7" />
    <circle cx="2487.1" cy="1932.8" r="21" fill="#0F172A" stroke="#FFFFFF" stroke-width="7" />
    <circle cx="3236.9" cy="1569.4" r="21" fill="#0F172A" stroke="#FFFFFF" stroke-width="7" />
    <circle cx="3593.1" cy="1270.0" r="21" fill="#0F172A" stroke="#FFFFFF" stroke-width="7" />
    <circle cx="2519.7" cy="1571.4" r="21" fill="#0F172A" stroke="#FFFFFF" stroke-width="7" />
    <circle cx="287.0" cy="918.6" r="21" fill="#0F172A" stroke="#FFFFFF" stroke-width="7" />
    <circle cx="1923.4" cy="1573.6" r="21" fill="#0F172A" stroke="#FFFFFF" stroke-width="7" />
    <circle cx="1866.5" cy="1974.0" r="21" fill="#0F172A" stroke="#FFFFFF" stroke-width="7" />
    <circle cx="2038.2" cy="1255.3" r="21" fill="#0F172A" stroke="#FFFFFF" stroke-width="7" />
    <circle cx="895.3" cy="1316.1" r="21" fill="#0F172A" stroke="#FFFFFF" stroke-width="7" />
    <circle cx="2288.4" cy="1875.1" r="21" fill="#0F172A" stroke="#FFFFFF" stroke-width="7" />
    <circle cx="1260.7" cy="679.0" r="21" fill="#0F172A" stroke="#FFFFFF" stroke-width="7" />
    <circle cx="3376.5" cy="1153.4" r="21" fill="#0F172A" stroke="#FFFFFF" stroke-width="7" />
    <circle cx="1150.3" cy="1957.9" r="21" fill="#0F172A" stroke="#FFFFFF" stroke-width="7" />
    <circle cx="1178.8" cy="1702.4" r="21" fill="#0F172A" stroke="#FFFFFF" stroke-width="7" />
    <circle cx="2547.4" cy="1361.3" r="21" fill="#0F172A" stroke="#FFFFFF" stroke-width="7" />
    <circle cx="3394.2" cy="650.7" r="21" fill="#0F172A" stroke="#FFFFFF" stroke-width="7" />
    <circle cx="1300.8" cy="1525.8" r="21" fill="#0F172A" stroke="#FFFFFF" stroke-width="7" />
    <circle cx="2752.9" cy="1632.4" r="21" fill="#0F172A" stroke="#FFFFFF" stroke-width="7" />
  </g>
  <g font-family="Arial, sans-serif" font-size="47" fill="#64748B"><text x="227" y="2205">Each region contains all points closest to its dark site marker.</text><text x="3083" y="2205">sites: 46</text></g>
</svg>
