<svg xmlns="http://www.w3.org/2000/svg" width="3840" height="2400" viewBox="0 0 3840 2400" role="img" aria-labelledby="title description">
  <title id="title">Voronoi diagram with 70 sites</title>
  <desc id="description">A high-resolution 3840x2400 clipped Voronoi diagram with 70 sites. Seed: 1791498132.</desc>
  <defs>
    <linearGradient id="background" x1="0" y1="0" x2="1" y2="1"><stop stop-color="#F8FAFC"/><stop offset="1" stop-color="#E0F2FE"/></linearGradient>
    <filter id="shadow" x="-5%" y="-5%" width="110%" height="110%"><feDropShadow dx="0" dy="15" stdDeviation="22" flood-color="#0F172A" flood-opacity=".12"/></filter>
  </defs>
  <rect width="3840" height="2400" fill="url(#background)"/>
  <rect x="120" y="120" width="3600" height="2160" rx="63" fill="#FFFFFF" filter="url(#shadow)"/>
  <g font-family="Arial, sans-serif"><text x="227" y="296" font-size="101" font-weight="700" fill="#0F172A">Voronoi Diagram</text><text x="227" y="397" font-size="56" fill="#475569">70 sites · generated with seed 1791498132 · Ultra HD (3840x2400)</text></g>
  <g stroke="#FFFFFF" stroke-width="7" stroke-linejoin="round">
    <polygon points="3340.8,1743.7 3661.7,1429.5 3720.0,1434.8 3720.0,2053.0 3579.3,2053.0" fill="#38BDF8" fill-opacity="0.65" />
    <polygon points="685.1,1645.3 509.8,1801.5 467.7,1787.3 372.5,1654.9 412.2,1507.1 666.5,1621.9" fill="#A78BFA" fill-opacity="0.65" />
    <polygon points="431.1,1417.1 614.0,1353.1 633.2,1366.5 666.5,1621.9 412.2,1507.1 396.6,1469.4" fill="#F472B6" fill-opacity="0.65" />
    <polygon points="2249.7,1272.9 2406.0,823.9 2410.0,822.6 2539.9,872.5 2498.9,1248.0 2274.6,1291.2" fill="#FB923C" fill-opacity="0.65" />
    <polygon points="787.1,1661.9 899.3,1542.1 1159.4,1663.6 1282.2,1902.7 1220.5,2053.0 945.5,2053.0" fill="#FACC15" fill-opacity="0.65" />
    <polygon points="226.6,1283.6 332.7,1457.9 120.0,1534.0 120.0,1273.8" fill="#4ADE80" fill-opacity="0.65" />
    <polygon points="918.7,1433.6 976.5,1407.2 1211.2,1443.7 1159.4,1663.6 899.3,1542.1" fill="#2DD4BF" fill-opacity="0.65" />
    <polygon points="628.2,794.5 538.2,1025.2 531.9,1026.3 120.0,779.3 120.0,505.0 396.5,505.0" fill="#60A5FA" fill-opacity="0.65" />
    <polygon points="3165.1,1005.5 3087.7,929.7 3235.7,684.6 3349.5,863.5 3287.7,1004.6" fill="#E879F9" fill-opacity="0.65" />
    <polygon points="3500.0,865.4 3349.5,863.5 3235.7,684.6 3223.2,505.0 3720.0,505.0 3720.0,718.2" fill="#34D399" fill-opacity="0.65" />
    <polygon points="3661.7,1429.5 3564.8,1367.4 3478.0,1104.0 3482.9,1098.2 3720.0,1015.5 3720.0,1434.8" fill="#F87171" fill-opacity="0.65" />
    <polygon points="2701.7,1432.2 2693.3,1448.1 2370.3,1598.3 2300.1,1580.2 2274.6,1291.2 2498.9,1248.0 2674.9,1373.6" fill="#818CF8" fill-opacity="0.65" />
    <polygon points="3482.9,1098.2 3478.0,1104.0 3356.5,1087.2 3287.7,1004.6 3349.5,863.5 3500.0,865.4" fill="#FBBF24" fill-opacity="0.65" />
    <polygon points="1896.7,1783.6 2095.7,1652.6 2168.1,1663.1 2228.7,1896.3 2194.2,2053.0 2108.9,2053.0" fill="#A3E635" fill-opacity="0.65" />
    <polygon points="394.1,1165.6 403.9,1142.6 531.9,1026.3 538.2,1025.2 575.3,1055.6 614.0,1353.1 431.1,1417.1" fill="#C084FC" fill-opacity="0.65" />
    <polygon points="1765.8,1648.8 1776.0,1789.6 1428.9,1780.4 1470.6,1493.6 1599.8,1436.2" fill="#FB7185" fill-opacity="0.65" />
    <polygon points="1381.4,714.9 1211.0,860.0 1110.4,739.8 1098.0,505.0 1455.1,505.0" fill="#22D3EE" fill-opacity="0.65" />
    <polygon points="791.0,737.5 879.2,806.7 967.6,1043.8 831.3,1121.1 575.3,1055.6 538.2,1025.2 628.2,794.5" fill="#86EFAC" fill-opacity="0.65" />
    <polygon points="1282.2,1902.7 1428.9,1780.4 1776.0,1789.6 1781.2,1793.5 1770.6,2053.0 1220.5,2053.0" fill="#FCD34D" fill-opacity="0.65" />
    <polygon points="3319.5,1737.2 3207.1,1481.0 3268.7,1366.4 3564.8,1367.4 3661.7,1429.5 3340.8,1743.7" fill="#38BDF8" fill-opacity="0.65" />
    <polygon points="2552.2,871.1 2758.9,1167.6 2674.9,1373.6 2498.9,1248.0 2539.9,872.5" fill="#38BDF8" fill-opacity="0.65" />
    <polygon points="1568.3,1002.6 1670.2,1055.9 1814.7,1308.9 1638.4,1385.5 1466.0,1091.9 1463.3,1076.5" fill="#A78BFA" fill-opacity="0.65" />
    <polygon points="1781.2,1793.5 1896.7,1783.6 2108.9,2053.0 1770.6,2053.0" fill="#F472B6" fill-opacity="0.65" />
    <polygon points="2212.0,1261.6 1949.1,1302.4 1953.4,987.1 2148.3,1027.9" fill="#FB923C" fill-opacity="0.65" />
    <polygon points="3235.7,684.6 3087.7,929.7 2918.6,918.8 2897.7,895.6 3092.8,505.0 3223.2,505.0" fill="#FACC15" fill-opacity="0.65" />
    <polygon points="1949.9,981.3 1953.4,987.1 1949.1,1302.4 1923.7,1325.5 1814.7,1308.9 1670.2,1055.9" fill="#4ADE80" fill-opacity="0.65" />
    <polygon points="2905.5,1092.4 2758.9,1167.6 2552.2,871.1 2671.5,821.6 2897.7,895.6 2918.6,918.8" fill="#2DD4BF" fill-opacity="0.65" />
    <polygon points="3103.1,1206.4 3014.0,1218.1 2905.5,1092.4 2918.6,918.8 3087.7,929.7 3165.1,1005.5" fill="#60A5FA" fill-opacity="0.65" />
    <polygon points="2550.8,1844.3 2707.9,1687.7 2886.3,1794.8 2731.6,2053.0 2601.3,2053.0" fill="#E879F9" fill-opacity="0.65" />
    <polygon points="1165.2,1095.1 1267.2,1401.6 1211.2,1443.7 976.5,1407.2" fill="#34D399" fill-opacity="0.65" />
    <polygon points="2358.1,827.5 2148.3,1027.9 1953.4,987.1 1949.9,981.3 1949.8,979.6 2073.3,740.9" fill="#F87171" fill-opacity="0.65" />
    <polygon points="2073.3,740.9 1949.8,979.6 1711.7,757.3 1732.6,505.0 1924.9,505.0" fill="#818CF8" fill-opacity="0.65" />
    <polygon points="2707.9,1687.7 2550.8,1844.3 2509.8,1818.9 2370.3,1598.3 2693.3,1448.1" fill="#FBBF24" fill-opacity="0.65" />
    <polygon points="2897.7,895.6 2671.5,821.6 2781.9,505.0 3092.8,505.0" fill="#A3E635" fill-opacity="0.65" />
    <polygon points="791.0,737.5 628.2,794.5 396.5,505.0 872.4,505.0" fill="#C084FC" fill-opacity="0.65" />
    <polygon points="1282.2,1902.7 1159.4,1663.6 1211.2,1443.7 1267.2,1401.6 1382.6,1425.7 1470.6,1493.6 1428.9,1780.4" fill="#FB7185" fill-opacity="0.65" />
    <polygon points="403.9,1142.6 394.1,1165.6 226.6,1283.6 120.0,1273.8 120.0,1073.3" fill="#22D3EE" fill-opacity="0.65" />
    <polygon points="531.9,1026.3 403.9,1142.6 120.0,1073.3 120.0,779.3" fill="#86EFAC" fill-opacity="0.65" />
    <polygon points="120.0,1722.4 120.0,1534.0 332.7,1457.9 396.6,1469.4 412.2,1507.1 372.5,1654.9" fill="#FCD34D" fill-opacity="0.65" />
    <polygon points="2212.0,1261.6 2148.3,1027.9 2358.1,827.5 2406.0,823.9 2249.7,1272.9" fill="#38BDF8" fill-opacity="0.65" />
    <polygon points="3234.8,1290.8 3103.1,1206.4 3165.1,1005.5 3287.7,1004.6 3356.5,1087.2" fill="#38BDF8" fill-opacity="0.65" />
    <polygon points="2982.7,1506.3 2889.8,1433.8 3014.0,1218.1 3103.1,1206.4 3234.8,1290.8 3268.7,1366.4 3207.1,1481.0" fill="#A78BFA" fill-opacity="0.65" />
    <polygon points="1466.0,1091.9 1638.4,1385.5 1599.8,1436.2 1470.6,1493.6 1382.6,1425.7" fill="#F472B6" fill-opacity="0.65" />
    <polygon points="2410.0,822.6 2406.0,823.9 2358.1,827.5 2073.3,740.9 1924.9,505.0 2392.1,505.0" fill="#FB923C" fill-opacity="0.65" />
    <polygon points="509.8,1801.5 685.1,1645.3 787.1,1661.9 945.5,2053.0 574.0,2053.0" fill="#FACC15" fill-opacity="0.65" />
    <polygon points="1200.0,1046.7 1463.3,1076.5 1466.0,1091.9 1382.6,1425.7 1267.2,1401.6 1165.2,1095.1 1166.0,1072.9" fill="#4ADE80" fill-opacity="0.65" />
    <polygon points="2990.2,1776.3 2886.3,1794.8 2707.9,1687.7 2693.3,1448.1 2701.7,1432.2 2889.8,1433.8 2982.7,1506.3" fill="#2DD4BF" fill-opacity="0.65" />
    <polygon points="3014.0,1218.1 2889.8,1433.8 2701.7,1432.2 2674.9,1373.6 2758.9,1167.6 2905.5,1092.4" fill="#60A5FA" fill-opacity="0.65" />
    <polygon points="2886.3,1794.8 2990.2,1776.3 3083.0,1834.8 3078.6,2053.0 2731.6,2053.0" fill="#E879F9" fill-opacity="0.65" />
    <polygon points="3482.9,1098.2 3500.0,865.4 3720.0,718.2 3720.0,1015.5" fill="#34D399" fill-opacity="0.65" />
    <polygon points="844.7,1344.3 918.7,1433.6 899.3,1542.1 787.1,1661.9 685.1,1645.3 666.5,1621.9 633.2,1366.5" fill="#F87171" fill-opacity="0.65" />
    <polygon points="2228.7,1896.3 2168.1,1663.1 2300.1,1580.2 2370.3,1598.3 2509.8,1818.9" fill="#818CF8" fill-opacity="0.65" />
    <polygon points="1933.1,1385.5 1765.8,1648.8 1599.8,1436.2 1638.4,1385.5 1814.7,1308.9 1923.7,1325.5" fill="#FBBF24" fill-opacity="0.65" />
    <polygon points="2095.7,1652.6 1896.7,1783.6 1781.2,1793.5 1776.0,1789.6 1765.8,1648.8 1933.1,1385.5" fill="#A3E635" fill-opacity="0.65" />
    <polygon points="120.0,1943.0 467.7,1787.3 509.8,1801.5 574.0,2053.0 120.0,2053.0" fill="#C084FC" fill-opacity="0.65" />
    <polygon points="2228.7,1896.3 2509.8,1818.9 2550.8,1844.3 2601.3,2053.0 2194.2,2053.0" fill="#FB7185" fill-opacity="0.65" />
    <polygon points="394.1,1165.6 431.1,1417.1 396.6,1469.4 332.7,1457.9 226.6,1283.6" fill="#22D3EE" fill-opacity="0.65" />
    <polygon points="1110.4,739.8 879.2,806.7 791.0,737.5 872.4,505.0 1098.0,505.0" fill="#86EFAC" fill-opacity="0.65" />
    <polygon points="3268.7,1366.4 3234.8,1290.8 3356.5,1087.2 3478.0,1104.0 3564.8,1367.4" fill="#FCD34D" fill-opacity="0.65" />
    <polygon points="2671.5,821.6 2552.2,871.1 2539.9,872.5 2410.0,822.6 2392.1,505.0 2781.9,505.0" fill="#38BDF8" fill-opacity="0.65" />
    <polygon points="2168.1,1663.1 2095.7,1652.6 1933.1,1385.5 1923.7,1325.5 1949.1,1302.4 2212.0,1261.6 2249.7,1272.9 2274.6,1291.2 2300.1,1580.2" fill="#38BDF8" fill-opacity="0.65" />
    <polygon points="831.3,1121.1 844.7,1344.3 633.2,1366.5 614.0,1353.1 575.3,1055.6" fill="#A78BFA" fill-opacity="0.65" />
    <polygon points="3083.0,1834.8 2990.2,1776.3 2982.7,1506.3 3207.1,1481.0 3319.5,1737.2" fill="#F472B6" fill-opacity="0.65" />
    <polygon points="120.0,1943.0 120.0,1722.4 372.5,1654.9 467.7,1787.3" fill="#FB923C" fill-opacity="0.65" />
    <polygon points="831.3,1121.1 967.6,1043.8 1166.0,1072.9 1165.2,1095.1 976.5,1407.2 918.7,1433.6 844.7,1344.3" fill="#FACC15" fill-opacity="0.65" />
    <polygon points="3083.0,1834.8 3319.5,1737.2 3340.8,1743.7 3579.3,2053.0 3078.6,2053.0" fill="#4ADE80" fill-opacity="0.65" />
    <polygon points="1570.6,989.7 1711.7,757.3 1949.8,979.6 1949.9,981.3 1670.2,1055.9 1568.3,1002.6" fill="#2DD4BF" fill-opacity="0.65" />
    <polygon points="1570.6,989.7 1568.3,1002.6 1463.3,1076.5 1200.0,1046.7 1211.0,860.0 1381.4,714.9" fill="#60A5FA" fill-opacity="0.65" />
    <polygon points="1711.7,757.3 1570.6,989.7 1381.4,714.9 1455.1,505.0 1732.6,505.0" fill="#E879F9" fill-opacity="0.65" />
    <polygon points="1110.4,739.8 1211.0,860.0 1200.0,1046.7 1166.0,1072.9 967.6,1043.8 879.2,806.7" fill="#34D399" fill-opacity="0.65" />
  </g>
  <g>
    <circle cx="3570.3" cy="1707.3" r="19" fill="#0F172A" stroke="#FFFFFF" stroke-width="7" />
    <circle cx="485.4" cy="1643.6" r="19" fill="#0F172A" stroke="#FFFFFF" stroke-width="7" />
    <circle cx="562.9" cy="1471.7" r="19" fill="#0F172A" stroke="#FFFFFF" stroke-width="7" />
    <circle cx="2381.7" cy="1109.2" r="19" fill="#0F172A" stroke="#FFFFFF" stroke-width="7" />
    <circle cx="1002.3" cy="1706.9" r="19" fill="#0F172A" stroke="#FFFFFF" stroke-width="7" />
    <circle cx="209.5" cy="1390.1" r="19" fill="#0F172A" stroke="#FFFFFF" stroke-width="7" />
    <circle cx="1091.8" cy="1515.2" r="19" fill="#0F172A" stroke="#FFFFFF" stroke-width="7" />
    <circle cx="411.4" cy="787.1" r="19" fill="#0F172A" stroke="#FFFFFF" stroke-width="7" />
    <circle cx="3226.5" cy="884.2" r="19" fill="#0F172A" stroke="#FFFFFF" stroke-width="7" />
    <circle cx="3420.4" cy="760.8" r="19" fill="#0F172A" stroke="#FFFFFF" stroke-width="7" />
    <circle cx="3622.4" cy="1139.7" r="19" fill="#0F172A" stroke="#FFFFFF" stroke-width="7" />
    <circle cx="2441.5" cy="1420.4" r="19" fill="#0F172A" stroke="#FFFFFF" stroke-width="7" />
    <circle cx="3417.7" cy="968.0" r="19" fill="#0F172A" stroke="#FFFFFF" stroke-width="7" />
    <circle cx="2073.2" cy="1859.7" r="19" fill="#0F172A" stroke="#FFFFFF" stroke-width="7" />
    <circle cx="500.1" cy="1292.2" r="19" fill="#0F172A" stroke="#FFFFFF" stroke-width="7" />
    <circle cx="1628.2" cy="1610.7" r="19" fill="#0F172A" stroke="#FFFFFF" stroke-width="7" />
    <circle cx="1231.0" cy="678.8" r="19" fill="#0F172A" stroke="#FFFFFF" stroke-width="7" />
    <circle cx="792.7" cy="935.9" r="19" fill="#0F172A" stroke="#FFFFFF" stroke-width="7" />
    <circle cx="1619.0" cy="1960.4" r="19" fill="#0F172A" stroke="#FFFFFF" stroke-width="7" />
    <circle cx="3382.1" cy="1515.0" r="19" fill="#0F172A" stroke="#FFFFFF" stroke-width="7" />
    <circle cx="2643.3" cy="1137.8" r="19" fill="#0F172A" stroke="#FFFFFF" stroke-width="7" />
    <circle cx="1634.7" cy="1212.7" r="19" fill="#0F172A" stroke="#FFFFFF" stroke-width="7" />
    <circle cx="1929.3" cy="1973.0" r="19" fill="#0F172A" stroke="#FFFFFF" stroke-width="7" />
    <circle cx="2080.2" cy="1108.4" r="19" fill="#0F172A" stroke="#FFFFFF" stroke-width="7" />
    <circle cx="3063.4" cy="785.7" r="19" fill="#0F172A" stroke="#FFFFFF" stroke-width="7" />
    <circle cx="1823.4" cy="1105.0" r="19" fill="#0F172A" stroke="#FFFFFF" stroke-width="7" />
    <circle cx="2770.9" cy="1048.8" r="19" fill="#0F172A" stroke="#FFFFFF" stroke-width="7" />
    <circle cx="3045.1" cy="1069.4" r="19" fill="#0F172A" stroke="#FFFFFF" stroke-width="7" />
    <circle cx="2736.6" cy="1843.4" r="19" fill="#0F172A" stroke="#FFFFFF" stroke-width="7" />
    <circle cx="1119.2" cy="1339.3" r="19" fill="#0F172A" stroke="#FFFFFF" stroke-width="7" />
    <circle cx="2118.2" cy="926.9" r="19" fill="#0F172A" stroke="#FFFFFF" stroke-width="7" />
    <circle cx="1895.6" cy="811.7" r="19" fill="#0F172A" stroke="#FFFFFF" stroke-width="7" />
    <circle cx="2552.3" cy="1658.5" r="19" fill="#0F172A" stroke="#FFFFFF" stroke-width="7" />
    <circle cx="2886.1" cy="697.2" r="19" fill="#0F172A" stroke="#FFFFFF" stroke-width="7" />
    <circle cx="668.5" cy="581.4" r="19" fill="#0F172A" stroke="#FFFFFF" stroke-width="7" />
    <circle cx="1286.1" cy="1561.1" r="19" fill="#0F172A" stroke="#FFFFFF" stroke-width="7" />
    <circle cx="229.2" cy="1175.8" r="19" fill="#0F172A" stroke="#FFFFFF" stroke-width="7" />
    <circle cx="264.2" cy="1032.6" r="19" fill="#0F172A" stroke="#FFFFFF" stroke-width="7" />
    <circle cx="280.4" cy="1588.5" r="19" fill="#0F172A" stroke="#FFFFFF" stroke-width="7" />
    <circle cx="2247.9" cy="1062.6" r="19" fill="#0F172A" stroke="#FFFFFF" stroke-width="7" />
    <circle cx="3228.3" cy="1125.9" r="19" fill="#0F172A" stroke="#FFFFFF" stroke-width="7" />
    <circle cx="3082.2" cy="1353.8" r="19" fill="#0F172A" stroke="#FFFFFF" stroke-width="7" />
    <circle cx="1489.3" cy="1298.1" r="19" fill="#0F172A" stroke="#FFFFFF" stroke-width="7" />
    <circle cx="2214.1" cy="611.3" r="19" fill="#0F172A" stroke="#FFFFFF" stroke-width="7" />
    <circle cx="664.0" cy="1843.9" r="19" fill="#0F172A" stroke="#FFFFFF" stroke-width="7" />
    <circle cx="1348.4" cy="1263.0" r="19" fill="#0F172A" stroke="#FFFFFF" stroke-width="7" />
    <circle cx="2858.9" cy="1639.9" r="19" fill="#0F172A" stroke="#FFFFFF" stroke-width="7" />
    <circle cx="2862.4" cy="1227.2" r="19" fill="#0F172A" stroke="#FFFFFF" stroke-width="7" />
    <circle cx="2914.1" cy="1949.8" r="19" fill="#0F172A" stroke="#FFFFFF" stroke-width="7" />
    <circle cx="3566.4" cy="978.9" r="19" fill="#0F172A" stroke="#FFFFFF" stroke-width="7" />
    <circle cx="728.0" cy="1450.2" r="19" fill="#0F172A" stroke="#FFFFFF" stroke-width="7" />
    <circle cx="2346.7" cy="1788.5" r="19" fill="#0F172A" stroke="#FFFFFF" stroke-width="7" />
    <circle cx="1762.3" cy="1506.1" r="19" fill="#0F172A" stroke="#FFFFFF" stroke-width="7" />
    <circle cx="1896.6" cy="1591.4" r="19" fill="#0F172A" stroke="#FFFFFF" stroke-width="7" />
    <circle cx="394.9" cy="1912.5" r="19" fill="#0F172A" stroke="#FFFFFF" stroke-width="7" />
    <circle cx="2385.2" cy="1928.4" r="19" fill="#0F172A" stroke="#FFFFFF" stroke-width="7" />
    <circle cx="329.0" cy="1317.4" r="19" fill="#0F172A" stroke="#FFFFFF" stroke-width="7" />
    <circle cx="984.1" cy="691.9" r="19" fill="#0F172A" stroke="#FFFFFF" stroke-width="7" />
    <circle cx="3383.1" cy="1218.5" r="19" fill="#0F172A" stroke="#FFFFFF" stroke-width="7" />
    <circle cx="2580.9" cy="590.7" r="19" fill="#0F172A" stroke="#FFFFFF" stroke-width="7" />
    <circle cx="2132.8" cy="1447.6" r="19" fill="#0F172A" stroke="#FFFFFF" stroke-width="7" />
    <circle cx="708.5" cy="1265.0" r="19" fill="#0F172A" stroke="#FFFFFF" stroke-width="7" />
    <circle cx="3113.7" cy="1632.8" r="19" fill="#0F172A" stroke="#FFFFFF" stroke-width="7" />
    <circle cx="325.8" cy="1758.3" r="19" fill="#0F172A" stroke="#FFFFFF" stroke-width="7" />
    <circle cx="970.4" cy="1249.3" r="19" fill="#0F172A" stroke="#FFFFFF" stroke-width="7" />
    <circle cx="3247.2" cy="1956.5" r="19" fill="#0F172A" stroke="#FFFFFF" stroke-width="7" />
    <circle cx="1778.6" cy="937.1" r="19" fill="#0F172A" stroke="#FFFFFF" stroke-width="7" />
    <circle cx="1393.0" cy="869.1" r="19" fill="#0F172A" stroke="#FFFFFF" stroke-width="7" />
    <circle cx="1521.4" cy="780.8" r="19" fill="#0F172A" stroke="#FFFFFF" stroke-width="7" />
    <circle cx="1029.2" cy="847.8" r="19" fill="#0F172A" stroke="#FFFFFF" stroke-width="7" />
  </g>
  <g font-family="Arial, sans-serif" font-size="47" fill="#64748B"><text x="227" y="2205">Each region contains all points closest to its dark site marker.</text><text x="3083" y="2205">sites: 70</text></g>
</svg>
