<svg xmlns="http://www.w3.org/2000/svg" width="3840" height="2400" viewBox="0 0 3840 2400" role="img" aria-labelledby="title description">
  <title id="title">Voronoi diagram with 72 sites</title>
  <desc id="description">A high-resolution 3840x2400 clipped Voronoi diagram with 72 sites. Seed: 1790672412.</desc>
  <defs>
    <linearGradient id="background" x1="0" y1="0" x2="1" y2="1"><stop stop-color="#F8FAFC"/><stop offset="1" stop-color="#E0F2FE"/></linearGradient>
    <filter id="shadow" x="-5%" y="-5%" width="110%" height="110%"><feDropShadow dx="0" dy="15" stdDeviation="22" flood-color="#0F172A" flood-opacity=".12"/></filter>
  </defs>
  <rect width="3840" height="2400" fill="url(#background)"/>
  <rect x="120" y="120" width="3600" height="2160" rx="63" fill="#FFFFFF" filter="url(#shadow)"/>
  <g font-family="Arial, sans-serif"><text x="227" y="296" font-size="101" font-weight="700" fill="#0F172A">Voronoi Diagram</text><text x="227" y="397" font-size="56" fill="#475569">72 sites · generated with seed 1790672412 · Ultra HD (3840x2400)</text></g>
  <g stroke="#FFFFFF" stroke-width="7" stroke-linejoin="round">
    <polygon points="955.0,1598.6 1083.9,1469.7 1245.8,1475.9 1227.4,1662.6 1024.5,1682.0" fill="#38BDF8" fill-opacity="0.65" />
    <polygon points="2435.3,647.0 2157.3,683.2 2118.8,505.0 2458.0,505.0" fill="#A78BFA" fill-opacity="0.65" />
    <polygon points="3080.8,1772.3 3073.5,1675.4 3396.9,1564.5 3400.3,1565.4 3462.2,1769.0 3396.4,1852.2" fill="#F472B6" fill-opacity="0.65" />
    <polygon points="452.3,1085.0 598.2,1080.5 707.2,1279.4 516.0,1306.6" fill="#FB923C" fill-opacity="0.65" />
    <polygon points="120.0,1886.2 533.3,1757.3 642.5,2053.0 120.0,2053.0" fill="#FACC15" fill-opacity="0.65" />
    <polygon points="1228.7,1910.9 1034.4,1780.2 1024.5,1682.0 1227.4,1662.6 1246.0,1690.2" fill="#4ADE80" fill-opacity="0.65" />
    <polygon points="3396.4,1852.2 3462.2,1769.0 3720.0,1783.8 3720.0,2053.0 3380.4,2053.0" fill="#2DD4BF" fill-opacity="0.65" />
    <polygon points="3313.2,1040.7 3243.2,1079.3 3185.2,1056.6 3001.3,831.4 3169.8,505.0 3435.1,505.0" fill="#60A5FA" fill-opacity="0.65" />
    <polygon points="413.9,1373.7 120.0,1334.2 120.0,1098.9 248.9,1109.1" fill="#E879F9" fill-opacity="0.65" />
    <polygon points="2171.4,1727.2 2122.8,1554.1 2245.6,1380.1 2476.1,1548.1 2494.6,1596.9 2480.8,1619.6" fill="#34D399" fill-opacity="0.65" />
    <polygon points="2480.8,1619.6 2494.6,1596.9 2738.4,1590.9 2816.3,2053.0 2528.8,2053.0" fill="#F87171" fill-opacity="0.65" />
    <polygon points="2072.2,908.1 1967.1,1164.1 1942.7,1172.2 1803.0,1153.6 1728.3,901.0 1793.3,725.3" fill="#818CF8" fill-opacity="0.65" />
    <polygon points="909.6,746.2 678.1,748.1 665.2,739.7 619.0,505.0 932.6,505.0" fill="#FBBF24" fill-opacity="0.65" />
    <polygon points="1822.8,1613.2 1538.9,1599.6 1643.2,1282.1 1828.7,1596.0" fill="#A3E635" fill-opacity="0.65" />
    <polygon points="3313.2,1040.7 3435.1,505.0 3720.0,505.0 3720.0,1111.4" fill="#C084FC" fill-opacity="0.65" />
    <polygon points="2443.4,684.1 2334.8,904.8 2127.7,864.9 2122.7,742.1 2157.3,683.2 2435.3,647.0" fill="#FB7185" fill-opacity="0.65" />
    <polygon points="2776.4,756.7 2597.2,781.7 2443.4,684.1 2435.3,647.0 2458.0,505.0 2770.3,505.0" fill="#22D3EE" fill-opacity="0.65" />
    <polygon points="3001.3,831.4 2866.0,845.8 2776.4,756.7 2770.3,505.0 3169.8,505.0" fill="#86EFAC" fill-opacity="0.65" />
    <polygon points="2341.5,919.4 2317.3,1079.3 2066.7,1194.4 1967.1,1164.1 2072.2,908.1 2127.7,864.9 2334.8,904.8" fill="#FCD34D" fill-opacity="0.65" />
    <polygon points="2738.4,1590.9 2888.1,1469.2 2888.8,1469.1 2958.2,1489.1 3073.5,1675.4 3080.8,1772.3 2914.9,2053.0 2816.3,2053.0" fill="#38BDF8" fill-opacity="0.65" />
    <polygon points="1448.1,726.4 1548.2,885.9 1463.8,995.4 1223.6,878.8" fill="#38BDF8" fill-opacity="0.65" />
    <polygon points="3529.4,1426.7 3240.7,1186.2 3243.2,1079.3 3313.2,1040.7 3720.0,1111.4 3720.0,1347.5" fill="#A78BFA" fill-opacity="0.65" />
    <polygon points="906.9,1593.5 846.1,1620.6 675.5,1593.4 711.9,1280.4 824.9,1249.6" fill="#F472B6" fill-opacity="0.65" />
    <polygon points="3169.6,1361.1 3396.9,1564.5 3073.5,1675.4 2958.2,1489.1" fill="#FB923C" fill-opacity="0.65" />
    <polygon points="1512.0,1220.4 1463.8,995.4 1548.2,885.9 1728.3,901.0 1803.0,1153.6 1640.9,1249.6" fill="#FACC15" fill-opacity="0.65" />
    <polygon points="665.2,739.7 463.0,723.3 375.2,505.0 619.0,505.0" fill="#4ADE80" fill-opacity="0.65" />
    <polygon points="463.0,723.3 394.9,837.1 120.0,803.5 120.0,505.0 375.2,505.0" fill="#2DD4BF" fill-opacity="0.65" />
    <polygon points="801.9,2011.4 1034.4,1780.2 1228.7,1910.9 1292.5,2053.0 782.1,2053.0" fill="#60A5FA" fill-opacity="0.65" />
    <polygon points="649.8,987.6 831.3,1025.2 856.0,1224.3 824.9,1249.6 711.9,1280.4 707.2,1279.4 598.2,1080.5" fill="#E879F9" fill-opacity="0.65" />
    <polygon points="2569.1,1219.9 2605.6,1201.2 2684.7,1236.4 2888.1,1469.2 2738.4,1590.9 2494.6,1596.9 2476.1,1548.1" fill="#34D399" fill-opacity="0.65" />
    <polygon points="1495.7,1687.6 1246.0,1690.2 1227.4,1662.6 1245.8,1475.9 1293.8,1440.5 1510.6,1622.6" fill="#F87171" fill-opacity="0.65" />
    <polygon points="1406.9,1250.0 1327.5,1333.1 1030.1,1213.1 1174.9,1005.9" fill="#818CF8" fill-opacity="0.65" />
    <polygon points="1142.6,861.3 1173.9,887.4 1174.9,1005.9 1030.1,1213.1 983.8,1235.6 856.0,1224.3 831.3,1025.2 942.9,794.3" fill="#FBBF24" fill-opacity="0.65" />
    <polygon points="2684.7,1236.4 2605.6,1201.2 2616.6,1040.2 2819.9,932.7 2879.6,1105.6" fill="#A3E635" fill-opacity="0.65" />
    <polygon points="2588.7,1003.6 2616.6,1040.2 2605.6,1201.2 2569.1,1219.9 2434.5,1204.2 2317.3,1079.3 2341.5,919.4" fill="#C084FC" fill-opacity="0.65" />
    <polygon points="612.2,925.7 678.1,748.1 909.6,746.2 942.9,794.3 831.3,1025.2 649.8,987.6" fill="#FB7185" fill-opacity="0.65" />
    <polygon points="983.8,1235.6 1030.1,1213.1 1327.5,1333.1 1293.8,1440.5 1245.8,1475.9 1083.9,1469.7" fill="#22D3EE" fill-opacity="0.65" />
    <polygon points="3462.2,1769.0 3400.3,1565.4 3529.4,1426.7 3720.0,1347.5 3720.0,1783.8" fill="#86EFAC" fill-opacity="0.65" />
    <polygon points="431.1,936.6 394.9,837.1 463.0,723.3 665.2,739.7 678.1,748.1 612.2,925.7" fill="#FCD34D" fill-opacity="0.65" />
    <polygon points="1848.5,1740.5 2160.8,1748.8 2207.2,2053.0 1683.1,2053.0" fill="#38BDF8" fill-opacity="0.65" />
    <polygon points="401.7,1043.2 431.1,936.6 612.2,925.7 649.8,987.6 598.2,1080.5 452.3,1085.0" fill="#38BDF8" fill-opacity="0.65" />
    <polygon points="3080.8,1772.3 3396.4,1852.2 3380.4,2053.0 2914.9,2053.0" fill="#A78BFA" fill-opacity="0.65" />
    <polygon points="2434.5,1204.2 2244.8,1375.9 2066.7,1194.4 2317.3,1079.3" fill="#F472B6" fill-opacity="0.65" />
    <polygon points="1959.7,1490.9 1828.7,1596.0 1643.2,1282.1 1640.9,1249.6 1803.0,1153.6 1942.7,1172.2" fill="#FB923C" fill-opacity="0.65" />
    <polygon points="1453.9,709.5 1789.7,668.3 1793.3,725.3 1728.3,901.0 1548.2,885.9 1448.1,726.4" fill="#FACC15" fill-opacity="0.65" />
    <polygon points="711.9,1280.4 675.5,1593.4 534.3,1659.2 412.8,1549.5 423.7,1380.6 516.0,1306.6 707.2,1279.4" fill="#4ADE80" fill-opacity="0.65" />
    <polygon points="3240.7,1186.2 3529.4,1426.7 3400.3,1565.4 3396.9,1564.5 3169.6,1361.1" fill="#2DD4BF" fill-opacity="0.65" />
    <polygon points="2066.7,1194.4 2244.8,1375.9 2245.6,1380.1 2122.8,1554.1 1959.7,1490.9 1942.7,1172.2 1967.1,1164.1" fill="#60A5FA" fill-opacity="0.65" />
    <polygon points="2244.8,1375.9 2434.5,1204.2 2569.1,1219.9 2476.1,1548.1 2245.6,1380.1" fill="#E879F9" fill-opacity="0.65" />
    <polygon points="394.9,837.1 431.1,936.6 401.7,1043.2 248.9,1109.1 120.0,1098.9 120.0,803.5" fill="#34D399" fill-opacity="0.65" />
    <polygon points="423.7,1380.6 412.8,1549.5 120.0,1625.5 120.0,1334.2 413.9,1373.7" fill="#F87171" fill-opacity="0.65" />
    <polygon points="1327.5,1333.1 1406.9,1250.0 1512.0,1220.4 1640.9,1249.6 1643.2,1282.1 1538.9,1599.6 1510.6,1622.6 1293.8,1440.5" fill="#818CF8" fill-opacity="0.65" />
    <polygon points="2157.3,683.2 2122.7,742.1 1815.7,597.9 1821.7,505.0 2118.8,505.0" fill="#FBBF24" fill-opacity="0.65" />
    <polygon points="412.8,1549.5 534.3,1659.2 533.3,1757.3 120.0,1886.2 120.0,1625.5" fill="#A3E635" fill-opacity="0.65" />
    <polygon points="2160.8,1748.8 2171.4,1727.2 2480.8,1619.6 2528.8,2053.0 2207.2,2053.0" fill="#C084FC" fill-opacity="0.65" />
    <polygon points="2969.6,1142.0 2879.6,1105.6 2819.9,932.7 2866.0,845.8 3001.3,831.4 3185.2,1056.6" fill="#FB7185" fill-opacity="0.65" />
    <polygon points="533.3,1757.3 534.3,1659.2 675.5,1593.4 846.1,1620.6 801.9,2011.4 782.1,2053.0 642.5,2053.0" fill="#22D3EE" fill-opacity="0.65" />
    <polygon points="1495.7,1687.6 1510.6,1622.6 1538.9,1599.6 1822.8,1613.2 1848.5,1740.5 1683.1,2053.0 1572.4,2053.0" fill="#86EFAC" fill-opacity="0.65" />
    <polygon points="2597.2,781.7 2588.7,1003.6 2341.5,919.4 2334.8,904.8 2443.4,684.1" fill="#FCD34D" fill-opacity="0.65" />
    <polygon points="906.9,1593.5 824.9,1249.6 856.0,1224.3 983.8,1235.6 1083.9,1469.7 955.0,1598.6" fill="#38BDF8" fill-opacity="0.65" />
    <polygon points="2969.6,1142.0 3185.2,1056.6 3243.2,1079.3 3240.7,1186.2 3169.6,1361.1 2958.2,1489.1 2888.8,1469.1" fill="#38BDF8" fill-opacity="0.65" />
    <polygon points="1815.7,597.9 1789.7,668.3 1453.9,709.5 1397.4,505.0 1821.7,505.0" fill="#A78BFA" fill-opacity="0.65" />
    <polygon points="2160.8,1748.8 1848.5,1740.5 1822.8,1613.2 1828.7,1596.0 1959.7,1490.9 2122.8,1554.1 2171.4,1727.2" fill="#F472B6" fill-opacity="0.65" />
    <polygon points="846.1,1620.6 906.9,1593.5 955.0,1598.6 1024.5,1682.0 1034.4,1780.2 801.9,2011.4" fill="#FB923C" fill-opacity="0.65" />
    <polygon points="1228.7,1910.9 1246.0,1690.2 1495.7,1687.6 1572.4,2053.0 1292.5,2053.0" fill="#FACC15" fill-opacity="0.65" />
    <polygon points="423.7,1380.6 413.9,1373.7 248.9,1109.1 401.7,1043.2 452.3,1085.0 516.0,1306.6" fill="#4ADE80" fill-opacity="0.65" />
    <polygon points="2597.2,781.7 2776.4,756.7 2866.0,845.8 2819.9,932.7 2616.6,1040.2 2588.7,1003.6" fill="#2DD4BF" fill-opacity="0.65" />
    <polygon points="1173.9,887.4 1223.6,878.8 1463.8,995.4 1512.0,1220.4 1406.9,1250.0 1174.9,1005.9" fill="#60A5FA" fill-opacity="0.65" />
    <polygon points="1815.7,597.9 2122.7,742.1 2127.7,864.9 2072.2,908.1 1793.3,725.3 1789.7,668.3" fill="#E879F9" fill-opacity="0.65" />
    <polygon points="1453.9,709.5 1448.1,726.4 1223.6,878.8 1173.9,887.4 1142.6,861.3 1264.8,505.0 1397.4,505.0" fill="#34D399" fill-opacity="0.65" />
    <polygon points="2969.6,1142.0 2888.8,1469.1 2888.1,1469.2 2684.7,1236.4 2879.6,1105.6" fill="#F87171" fill-opacity="0.65" />
    <polygon points="1142.6,861.3 942.9,794.3 909.6,746.2 932.6,505.0 1264.8,505.0" fill="#818CF8" fill-opacity="0.65" />
  </g>
  <g>
    <circle cx="1129.0" cy="1595.8" r="18" fill="#0F172A" stroke="#FFFFFF" stroke-width="7" />
    <circle cx="2230.2" cy="596.2" r="18" fill="#0F172A" stroke="#FFFFFF" stroke-width="7" />
    <circle cx="3262.5" cy="1703.7" r="18" fill="#0F172A" stroke="#FFFFFF" stroke-width="7" />
    <circle cx="556.3" cy="1151.8" r="18" fill="#0F172A" stroke="#FFFFFF" stroke-width="7" />
    <circle cx="370.7" cy="1885.3" r="18" fill="#0F172A" stroke="#FFFFFF" stroke-width="7" />
    <circle cx="1143.5" cy="1746.8" r="18" fill="#0F172A" stroke="#FFFFFF" stroke-width="7" />
    <circle cx="3571.9" cy="1948.1" r="18" fill="#0F172A" stroke="#FFFFFF" stroke-width="7" />
    <circle cx="3201.5" cy="810.9" r="18" fill="#0F172A" stroke="#FFFFFF" stroke-width="7" />
    <circle cx="261.4" cy="1283.0" r="18" fill="#0F172A" stroke="#FFFFFF" stroke-width="7" />
    <circle cx="2270.1" cy="1549.8" r="18" fill="#0F172A" stroke="#FFFFFF" stroke-width="7" />
    <circle cx="2640.5" cy="1773.9" r="18" fill="#0F172A" stroke="#FFFFFF" stroke-width="7" />
    <circle cx="1905.1" cy="898.0" r="18" fill="#0F172A" stroke="#FFFFFF" stroke-width="7" />
    <circle cx="713.8" cy="583.6" r="18" fill="#0F172A" stroke="#FFFFFF" stroke-width="7" />
    <circle cx="1677.9" cy="1519.5" r="18" fill="#0F172A" stroke="#FFFFFF" stroke-width="7" />
    <circle cx="3513.4" cy="881.9" r="18" fill="#0F172A" stroke="#FFFFFF" stroke-width="7" />
    <circle cx="2250.1" cy="748.6" r="18" fill="#0F172A" stroke="#FFFFFF" stroke-width="7" />
    <circle cx="2646.0" cy="662.6" r="18" fill="#0F172A" stroke="#FFFFFF" stroke-width="7" />
    <circle cx="2902.1" cy="656.4" r="18" fill="#0F172A" stroke="#FFFFFF" stroke-width="7" />
    <circle cx="2198.2" cy="1018.3" r="18" fill="#0F172A" stroke="#FFFFFF" stroke-width="7" />
    <circle cx="2890.9" cy="1731.7" r="18" fill="#0F172A" stroke="#FFFFFF" stroke-width="7" />
    <circle cx="1435.4" cy="884.5" r="18" fill="#0F172A" stroke="#FFFFFF" stroke-width="7" />
    <circle cx="3448.0" cy="1257.7" r="18" fill="#0F172A" stroke="#FFFFFF" stroke-width="7" />
    <circle cx="785.2" cy="1465.8" r="18" fill="#0F172A" stroke="#FFFFFF" stroke-width="7" />
    <circle cx="3205.4" cy="1537.1" r="18" fill="#0F172A" stroke="#FFFFFF" stroke-width="7" />
    <circle cx="1578.3" cy="994.7" r="18" fill="#0F172A" stroke="#FFFFFF" stroke-width="7" />
    <circle cx="561.0" cy="613.7" r="18" fill="#0F172A" stroke="#FFFFFF" stroke-width="7" />
    <circle cx="316.4" cy="712.2" r="18" fill="#0F172A" stroke="#FFFFFF" stroke-width="7" />
    <circle cx="1044.7" cy="1893.8" r="18" fill="#0F172A" stroke="#FFFFFF" stroke-width="7" />
    <circle cx="680.8" cy="1083.5" r="18" fill="#0F172A" stroke="#FFFFFF" stroke-width="7" />
    <circle cx="2631.6" cy="1412.9" r="18" fill="#0F172A" stroke="#FFFFFF" stroke-width="7" />
    <circle cx="1337.0" cy="1616.3" r="18" fill="#0F172A" stroke="#FFFFFF" stroke-width="7" />
    <circle cx="1201.4" cy="1191.6" r="18" fill="#0F172A" stroke="#FFFFFF" stroke-width="7" />
    <circle cx="991.4" cy="1044.9" r="18" fill="#0F172A" stroke="#FFFFFF" stroke-width="7" />
    <circle cx="2780.5" cy="1078.9" r="18" fill="#0F172A" stroke="#FFFFFF" stroke-width="7" />
    <circle cx="2449.1" cy="1056.3" r="18" fill="#0F172A" stroke="#FFFFFF" stroke-width="7" />
    <circle cx="716.4" cy="912.0" r="18" fill="#0F172A" stroke="#FFFFFF" stroke-width="7" />
    <circle cx="1138.5" cy="1347.4" r="18" fill="#0F172A" stroke="#FFFFFF" stroke-width="7" />
    <circle cx="3591.7" cy="1603.6" r="18" fill="#0F172A" stroke="#FFFFFF" stroke-width="7" />
    <circle cx="542.1" cy="847.2" r="18" fill="#0F172A" stroke="#FFFFFF" stroke-width="7" />
    <circle cx="1988.6" cy="1861.5" r="18" fill="#0F172A" stroke="#FFFFFF" stroke-width="7" />
    <circle cx="552.1" cy="1012.0" r="18" fill="#0F172A" stroke="#FFFFFF" stroke-width="7" />
    <circle cx="3207.9" cy="1919.1" r="18" fill="#0F172A" stroke="#FFFFFF" stroke-width="7" />
    <circle cx="2286.0" cy="1209.4" r="18" fill="#0F172A" stroke="#FFFFFF" stroke-width="7" />
    <circle cx="1834.5" cy="1427.0" r="18" fill="#0F172A" stroke="#FFFFFF" stroke-width="7" />
    <circle cx="1596.0" cy="783.7" r="18" fill="#0F172A" stroke="#FFFFFF" stroke-width="7" />
    <circle cx="597.9" cy="1444.0" r="18" fill="#0F172A" stroke="#FFFFFF" stroke-width="7" />
    <circle cx="3348.5" cy="1377.2" r="18" fill="#0F172A" stroke="#FFFFFF" stroke-width="7" />
    <circle cx="2077.4" cy="1414.0" r="18" fill="#0F172A" stroke="#FFFFFF" stroke-width="7" />
    <circle cx="2414.6" cy="1351.5" r="18" fill="#0F172A" stroke="#FFFFFF" stroke-width="7" />
    <circle cx="288.6" cy="939.4" r="18" fill="#0F172A" stroke="#FFFFFF" stroke-width="7" />
    <circle cx="242.8" cy="1421.0" r="18" fill="#0F172A" stroke="#FFFFFF" stroke-width="7" />
    <circle cx="1474.5" cy="1452.7" r="18" fill="#0F172A" stroke="#FFFFFF" stroke-width="7" />
    <circle cx="2054.9" cy="634.0" r="18" fill="#0F172A" stroke="#FFFFFF" stroke-width="7" />
    <circle cx="326.8" cy="1744.5" r="18" fill="#0F172A" stroke="#FFFFFF" stroke-width="7" />
    <circle cx="2358.8" cy="1805.1" r="18" fill="#0F172A" stroke="#FFFFFF" stroke-width="7" />
    <circle cx="2941.2" cy="1023.4" r="18" fill="#0F172A" stroke="#FFFFFF" stroke-width="7" />
    <circle cx="740.0" cy="1748.8" r="18" fill="#0F172A" stroke="#FFFFFF" stroke-width="7" />
    <circle cx="1669.6" cy="1692.6" r="18" fill="#0F172A" stroke="#FFFFFF" stroke-width="7" />
    <circle cx="2510.2" cy="876.6" r="18" fill="#0F172A" stroke="#FFFFFF" stroke-width="7" />
    <circle cx="957.8" cy="1424.7" r="18" fill="#0F172A" stroke="#FFFFFF" stroke-width="7" />
    <circle cx="3030.2" cy="1247.9" r="18" fill="#0F172A" stroke="#FFFFFF" stroke-width="7" />
    <circle cx="1573.8" cy="603.2" r="18" fill="#0F172A" stroke="#FFFFFF" stroke-width="7" />
    <circle cx="1994.8" cy="1627.1" r="18" fill="#0F172A" stroke="#FFFFFF" stroke-width="7" />
    <circle cx="920.8" cy="1769.3" r="18" fill="#0F172A" stroke="#FFFFFF" stroke-width="7" />
    <circle cx="1338.5" cy="1762.1" r="18" fill="#0F172A" stroke="#FFFFFF" stroke-width="7" />
    <circle cx="399.6" cy="1196.8" r="18" fill="#0F172A" stroke="#FFFFFF" stroke-width="7" />
    <circle cx="2676.8" cy="883.0" r="18" fill="#0F172A" stroke="#FFFFFF" stroke-width="7" />
    <circle cx="1359.0" cy="1041.7" r="18" fill="#0F172A" stroke="#FFFFFF" stroke-width="7" />
    <circle cx="1996.2" cy="758.9" r="18" fill="#0F172A" stroke="#FFFFFF" stroke-width="7" />
    <circle cx="1296.4" cy="679.8" r="18" fill="#0F172A" stroke="#FFFFFF" stroke-width="7" />
    <circle cx="2866.7" cy="1207.5" r="18" fill="#0F172A" stroke="#FFFFFF" stroke-width="7" />
    <circle cx="1132.6" cy="623.6" r="18" fill="#0F172A" stroke="#FFFFFF" stroke-width="7" />
  </g>
  <g font-family="Arial, sans-serif" font-size="47" fill="#64748B"><text x="227" y="2205">Each region contains all points closest to its dark site marker.</text><text x="3083" y="2205">sites: 72</text></g>
</svg>
