<svg xmlns="http://www.w3.org/2000/svg" width="3840" height="2400" viewBox="0 0 3840 2400" role="img" aria-labelledby="title description">
  <title id="title">Voronoi diagram with 91 sites</title>
  <desc id="description">A high-resolution 3840x2400 clipped Voronoi diagram with 91 sites. Seed: 1790880529.</desc>
  <defs>
    <linearGradient id="background" x1="0" y1="0" x2="1" y2="1"><stop stop-color="#F8FAFC"/><stop offset="1" stop-color="#E0F2FE"/></linearGradient>
    <filter id="shadow" x="-5%" y="-5%" width="110%" height="110%"><feDropShadow dx="0" dy="15" stdDeviation="22" flood-color="#0F172A" flood-opacity=".12"/></filter>
  </defs>
  <rect width="3840" height="2400" fill="url(#background)"/>
  <rect x="120" y="120" width="3600" height="2160" rx="63" fill="#FFFFFF" filter="url(#shadow)"/>
  <g font-family="Arial, sans-serif"><text x="227" y="296" font-size="101" font-weight="700" fill="#0F172A">Voronoi Diagram</text><text x="227" y="397" font-size="56" fill="#475569">91 sites · generated with seed 1790880529 · Ultra HD (3840x2400)</text></g>
  <g stroke="#FFFFFF" stroke-width="7" stroke-linejoin="round">
    <polygon points="1334.5,1845.0 1329.9,1836.7 1363.0,1673.6 1438.7,1632.2 1527.6,1827.1" fill="#38BDF8" fill-opacity="0.65" />
    <polygon points="2118.4,644.3 2110.8,656.7 1857.9,835.8 1824.5,762.5 1918.4,505.0 2126.4,505.0" fill="#A78BFA" fill-opacity="0.65" />
    <polygon points="1999.4,927.0 2055.4,1160.3 2043.5,1197.3 1924.2,1169.3 1804.5,967.0 1817.6,905.2 1856.5,864.3" fill="#F472B6" fill-opacity="0.65" />
    <polygon points="2692.9,1060.0 2685.2,1008.6 2861.6,919.1 2940.8,1063.8 2852.1,1248.3" fill="#FB923C" fill-opacity="0.65" />
    <polygon points="914.0,1829.6 706.0,1877.5 676.9,1802.1 859.6,1506.5 957.3,1587.1 976.0,1749.0" fill="#FACC15" fill-opacity="0.65" />
    <polygon points="2622.2,1304.4 2630.6,1619.8 2338.7,1469.0 2459.4,1274.5 2586.5,1283.7" fill="#4ADE80" fill-opacity="0.65" />
    <polygon points="3171.6,1713.1 3072.0,1712.5 2933.0,1404.5 3101.2,1368.3 3166.5,1399.8 3218.5,1647.5" fill="#2DD4BF" fill-opacity="0.65" />
    <polygon points="1020.8,1093.2 920.6,795.8 1108.0,664.5 1181.7,741.0 1086.7,1065.6" fill="#60A5FA" fill-opacity="0.65" />
    <polygon points="493.7,789.8 459.3,1013.3 449.2,1018.9 120.0,1021.1 120.0,505.0 198.9,505.0" fill="#E879F9" fill-opacity="0.65" />
    <polygon points="1824.5,762.5 1857.9,835.8 1856.5,864.3 1817.6,905.2 1611.5,870.8 1623.4,643.7" fill="#34D399" fill-opacity="0.65" />
    <polygon points="1758.9,1638.2 1832.9,1498.5 1881.9,1462.6 1955.4,1457.1 2012.9,1515.7 1911.2,1721.9 1790.8,1679.5" fill="#F87171" fill-opacity="0.65" />
    <polygon points="3219.4,889.1 3300.0,942.8 3428.0,1167.8 3409.0,1181.6 3137.2,1118.3 3131.5,1101.2" fill="#818CF8" fill-opacity="0.65" />
    <polygon points="1207.1,1369.5 1279.4,1315.5 1532.6,1359.5 1535.3,1406.5 1508.0,1511.6 1480.9,1533.7 1214.6,1488.9" fill="#FBBF24" fill-opacity="0.65" />
    <polygon points="1223.6,754.4 1359.6,1032.1 1349.8,1055.3 1285.6,1087.7 1086.7,1065.6 1181.7,741.0" fill="#A3E635" fill-opacity="0.65" />
    <polygon points="705.0,805.5 769.3,1057.6 706.0,1115.1 536.6,1100.3 459.3,1013.3 493.7,789.8" fill="#C084FC" fill-opacity="0.65" />
    <polygon points="1108.0,664.5 920.6,795.8 731.5,788.1 794.1,505.0 1092.9,505.0" fill="#FB7185" fill-opacity="0.65" />
    <polygon points="2296.1,1644.0 2256.7,1563.5 2337.4,1469.5 2338.7,1469.0 2630.6,1619.8 2634.8,1624.1 2520.8,1803.4" fill="#22D3EE" fill-opacity="0.65" />
    <polygon points="3157.2,746.9 2980.9,783.2 2776.2,505.0 3200.7,505.0" fill="#86EFAC" fill-opacity="0.65" />
    <polygon points="2175.2,1586.2 2035.1,1908.9 1911.2,1721.9 2012.9,1515.7" fill="#FCD34D" fill-opacity="0.65" />
    <polygon points="3553.1,1296.3 3463.9,1163.1 3524.9,1111.7 3720.0,1110.4 3720.0,1341.5" fill="#38BDF8" fill-opacity="0.65" />
    <polygon points="3456.0,1760.6 3720.0,1764.4 3720.0,2053.0 3317.2,2053.0" fill="#38BDF8" fill-opacity="0.65" />
    <polygon points="2586.5,1283.7 2459.4,1274.5 2449.1,1248.2 2487.0,1031.8 2662.3,999.7 2685.2,1008.6 2692.9,1060.0" fill="#A78BFA" fill-opacity="0.65" />
    <polygon points="731.5,788.1 705.0,805.5 493.7,789.8 198.9,505.0 794.1,505.0" fill="#F472B6" fill-opacity="0.65" />
    <polygon points="2048.6,1207.6 1955.4,1457.1 1881.9,1462.6 1721.2,1247.6 1924.2,1169.3 2043.5,1197.3" fill="#FB923C" fill-opacity="0.65" />
    <polygon points="3453.3,1473.4 3478.5,1516.4 3405.9,1643.9 3218.5,1647.5 3166.5,1399.8 3310.9,1371.4" fill="#FACC15" fill-opacity="0.65" />
    <polygon points="317.8,1200.2 494.5,1279.2 465.4,1426.6 120.0,1390.3 120.0,1256.8" fill="#4ADE80" fill-opacity="0.65" />
    <polygon points="2431.0,790.5 2347.9,893.5 2118.4,644.3 2126.4,505.0 2338.8,505.0" fill="#2DD4BF" fill-opacity="0.65" />
    <polygon points="2520.5,1805.2 2520.8,1803.4 2634.8,1624.1 2732.3,1627.6 2806.7,2053.0 2607.1,2053.0" fill="#60A5FA" fill-opacity="0.65" />
    <polygon points="1758.1,1852.8 1790.8,1679.5 1911.2,1721.9 2035.1,1908.9 2039.4,2053.0 2014.6,2053.0" fill="#E879F9" fill-opacity="0.65" />
    <polygon points="3131.5,1101.2 3137.2,1118.3 3101.2,1368.3 2933.0,1404.5 2921.6,1403.8 2853.9,1321.9 2852.1,1248.3 2940.8,1063.8" fill="#34D399" fill-opacity="0.65" />
    <polygon points="1656.5,1105.0 1633.7,1229.4 1580.1,1261.2 1349.8,1055.3 1359.6,1032.1 1493.1,921.6 1534.4,923.5" fill="#F87171" fill-opacity="0.65" />
    <polygon points="1832.9,1498.5 1758.9,1638.2 1673.0,1643.2 1508.0,1511.6 1535.3,1406.5" fill="#818CF8" fill-opacity="0.65" />
    <polygon points="2775.7,1607.7 2732.3,1627.6 2634.8,1624.1 2630.6,1619.8 2622.2,1304.4 2853.9,1321.9 2921.6,1403.8" fill="#FBBF24" fill-opacity="0.65" />
    <polygon points="1574.5,1856.1 1576.4,1854.9 1758.1,1852.8 2014.6,2053.0 1554.3,2053.0" fill="#A3E635" fill-opacity="0.65" />
    <polygon points="2035.1,1908.9 2175.2,1586.2 2256.7,1563.5 2296.1,1644.0 2300.8,1866.9 2160.1,2053.0 2039.4,2053.0" fill="#C084FC" fill-opacity="0.65" />
    <polygon points="1673.0,1643.2 1576.4,1854.9 1574.5,1856.1 1527.6,1827.1 1438.7,1632.2 1480.9,1533.7 1508.0,1511.6" fill="#FB7185" fill-opacity="0.65" />
    <polygon points="1409.6,725.7 1560.7,544.2 1623.4,643.7 1611.5,870.8 1534.4,923.5 1493.1,921.6" fill="#22D3EE" fill-opacity="0.65" />
    <polygon points="1119.7,1819.9 976.0,1749.0 957.3,1587.1 1164.0,1568.7 1209.6,1648.2 1189.4,1766.4" fill="#86EFAC" fill-opacity="0.65" />
    <polygon points="2100.5,1228.4 2313.1,1170.8 2449.1,1248.2 2459.4,1274.5 2338.7,1469.0 2337.4,1469.5" fill="#FCD34D" fill-opacity="0.65" />
    <polygon points="3456.0,1760.6 3405.9,1643.9 3478.5,1516.4 3720.0,1539.5 3720.0,1764.4" fill="#38BDF8" fill-opacity="0.65" />
    <polygon points="2262.4,963.6 2313.1,1170.8 2100.5,1228.4 2048.6,1207.6 2043.5,1197.3 2055.4,1160.3" fill="#38BDF8" fill-opacity="0.65" />
    <polygon points="2300.8,1866.9 2296.1,1644.0 2520.8,1803.4 2520.5,1805.2" fill="#A78BFA" fill-opacity="0.65" />
    <polygon points="1576.4,1854.9 1673.0,1643.2 1758.9,1638.2 1790.8,1679.5 1758.1,1852.8" fill="#F472B6" fill-opacity="0.65" />
    <polygon points="1189.4,1766.4 1209.6,1648.2 1363.0,1673.6 1329.9,1836.7" fill="#FB923C" fill-opacity="0.65" />
    <polygon points="3310.9,1371.4 3166.5,1399.8 3101.2,1368.3 3137.2,1118.3 3409.0,1181.6" fill="#FACC15" fill-opacity="0.65" />
    <polygon points="707.3,1281.3 496.2,1277.5 536.6,1100.3 706.0,1115.1" fill="#4ADE80" fill-opacity="0.65" />
    <polygon points="2639.9,700.6 2880.2,868.2 2861.6,919.1 2685.2,1008.6 2662.3,999.7 2576.1,761.6" fill="#2DD4BF" fill-opacity="0.65" />
    <polygon points="3171.6,1713.1 3218.5,1647.5 3405.9,1643.9 3456.0,1760.6 3317.2,2053.0 3288.4,2053.0" fill="#60A5FA" fill-opacity="0.65" />
    <polygon points="2977.8,1762.2 3072.0,1712.5 3171.6,1713.1 3288.4,2053.0 2909.3,2053.0" fill="#E879F9" fill-opacity="0.65" />
    <polygon points="525.8,1510.2 509.4,1562.7 120.0,1744.5 120.0,1390.3 465.4,1426.6" fill="#34D399" fill-opacity="0.65" />
    <polygon points="120.0,1972.9 569.3,1734.3 676.9,1802.1 706.0,1877.5 668.0,2053.0 120.0,2053.0" fill="#F87171" fill-opacity="0.65" />
    <polygon points="3515.5,940.8 3300.0,942.8 3219.4,889.1 3195.5,792.6 3629.6,753.1" fill="#818CF8" fill-opacity="0.65" />
    <polygon points="2880.2,868.2 2980.9,783.2 3157.2,746.9 3195.5,792.6 3219.4,889.1 3131.5,1101.2 2940.8,1063.8 2861.6,919.1" fill="#FBBF24" fill-opacity="0.65" />
    <polygon points="2089.0,887.8 1999.4,927.0 1856.5,864.3 1857.9,835.8 2110.8,656.7" fill="#A3E635" fill-opacity="0.65" />
    <polygon points="1580.1,1261.2 1532.6,1359.5 1279.4,1315.5 1285.6,1087.7 1349.8,1055.3" fill="#C084FC" fill-opacity="0.65" />
    <polygon points="2977.8,1762.2 2775.7,1607.7 2921.6,1403.8 2933.0,1404.5 3072.0,1712.5" fill="#FB7185" fill-opacity="0.65" />
    <polygon points="731.5,788.1 920.6,795.8 1020.8,1093.2 1004.8,1110.8 769.3,1057.6 705.0,805.5" fill="#22D3EE" fill-opacity="0.65" />
    <polygon points="3629.6,753.1 3195.5,792.6 3157.2,746.9 3200.7,505.0 3720.0,505.0 3720.0,695.7" fill="#86EFAC" fill-opacity="0.65" />
    <polygon points="998.4,1266.4 1004.8,1110.8 1020.8,1093.2 1086.7,1065.6 1285.6,1087.7 1279.4,1315.5 1207.1,1369.5" fill="#FCD34D" fill-opacity="0.65" />
    <polygon points="449.2,1018.9 317.8,1200.2 120.0,1256.8 120.0,1021.1" fill="#38BDF8" fill-opacity="0.65" />
    <polygon points="1209.6,1648.2 1164.0,1568.7 1214.6,1488.9 1480.9,1533.7 1438.7,1632.2 1363.0,1673.6" fill="#38BDF8" fill-opacity="0.65" />
    <polygon points="2980.9,783.2 2880.2,868.2 2639.9,700.6 2676.2,505.0 2776.2,505.0" fill="#A78BFA" fill-opacity="0.65" />
    <polygon points="1164.0,1568.7 957.3,1587.1 859.6,1506.5 837.0,1455.1 998.4,1266.4 1207.1,1369.5 1214.6,1488.9" fill="#F472B6" fill-opacity="0.65" />
    <polygon points="914.0,1829.6 976.0,1749.0 1119.7,1819.9 1137.9,2053.0 1024.9,2053.0" fill="#FB923C" fill-opacity="0.65" />
    <polygon points="1334.5,1845.0 1527.6,1827.1 1574.5,1856.1 1554.3,2053.0 1280.4,2053.0" fill="#FACC15" fill-opacity="0.65" />
    <polygon points="2732.3,1627.6 2775.7,1607.7 2977.8,1762.2 2909.3,2053.0 2806.7,2053.0" fill="#4ADE80" fill-opacity="0.65" />
    <polygon points="2347.7,894.4 2347.9,893.5 2431.0,790.5 2576.1,761.6 2662.3,999.7 2487.0,1031.8" fill="#2DD4BF" fill-opacity="0.65" />
    <polygon points="2100.5,1228.4 2337.4,1469.5 2256.7,1563.5 2175.2,1586.2 2012.9,1515.7 1955.4,1457.1 2048.6,1207.6" fill="#60A5FA" fill-opacity="0.65" />
    <polygon points="1721.2,1247.6 1633.7,1229.4 1656.5,1105.0 1804.5,967.0 1924.2,1169.3" fill="#E879F9" fill-opacity="0.65" />
    <polygon points="496.2,1277.5 494.5,1279.2 317.8,1200.2 449.2,1018.9 459.3,1013.3 536.6,1100.3" fill="#34D399" fill-opacity="0.65" />
    <polygon points="1580.1,1261.2 1633.7,1229.4 1721.2,1247.6 1881.9,1462.6 1832.9,1498.5 1535.3,1406.5 1532.6,1359.5" fill="#F87171" fill-opacity="0.65" />
    <polygon points="569.3,1734.3 509.4,1562.7 525.8,1510.2 814.3,1447.0 837.0,1455.1 859.6,1506.5 676.9,1802.1" fill="#818CF8" fill-opacity="0.65" />
    <polygon points="3453.3,1473.4 3310.9,1371.4 3409.0,1181.6 3428.0,1167.8 3463.9,1163.1 3553.1,1296.3" fill="#FBBF24" fill-opacity="0.65" />
    <polygon points="2089.0,887.8 2265.8,955.3 2262.4,963.6 2055.4,1160.3 1999.4,927.0" fill="#A3E635" fill-opacity="0.65" />
    <polygon points="1824.5,762.5 1623.4,643.7 1560.7,544.2 1562.5,505.0 1918.4,505.0" fill="#C084FC" fill-opacity="0.65" />
    <polygon points="3524.9,1111.7 3463.9,1163.1 3428.0,1167.8 3300.0,942.8 3515.5,940.8" fill="#FB7185" fill-opacity="0.65" />
    <polygon points="2639.9,700.6 2576.1,761.6 2431.0,790.5 2338.8,505.0 2676.2,505.0" fill="#22D3EE" fill-opacity="0.65" />
    <polygon points="2300.8,1866.9 2520.5,1805.2 2607.1,2053.0 2160.1,2053.0" fill="#86EFAC" fill-opacity="0.65" />
    <polygon points="2853.9,1321.9 2622.2,1304.4 2586.5,1283.7 2692.9,1060.0 2852.1,1248.3" fill="#FCD34D" fill-opacity="0.65" />
    <polygon points="1119.7,1819.9 1189.4,1766.4 1329.9,1836.7 1334.5,1845.0 1280.4,2053.0 1137.9,2053.0" fill="#38BDF8" fill-opacity="0.65" />
    <polygon points="1656.5,1105.0 1534.4,923.5 1611.5,870.8 1817.6,905.2 1804.5,967.0" fill="#38BDF8" fill-opacity="0.65" />
    <polygon points="3524.9,1111.7 3515.5,940.8 3629.6,753.1 3720.0,695.7 3720.0,1110.4" fill="#A78BFA" fill-opacity="0.65" />
    <polygon points="814.3,1447.0 525.8,1510.2 465.4,1426.6 494.5,1279.2 496.2,1277.5 707.3,1281.3" fill="#F472B6" fill-opacity="0.65" />
    <polygon points="3478.5,1516.4 3453.3,1473.4 3553.1,1296.3 3720.0,1341.5 3720.0,1539.5" fill="#FB923C" fill-opacity="0.65" />
    <polygon points="1560.7,544.2 1409.6,725.7 1223.6,754.4 1181.7,741.0 1108.0,664.5 1092.9,505.0 1562.5,505.0" fill="#FACC15" fill-opacity="0.65" />
    <polygon points="2262.4,963.6 2265.8,955.3 2347.7,894.4 2487.0,1031.8 2449.1,1248.2 2313.1,1170.8" fill="#4ADE80" fill-opacity="0.65" />
    <polygon points="1409.6,725.7 1493.1,921.6 1359.6,1032.1 1223.6,754.4" fill="#2DD4BF" fill-opacity="0.65" />
    <polygon points="2347.9,893.5 2347.7,894.4 2265.8,955.3 2089.0,887.8 2110.8,656.7 2118.4,644.3" fill="#60A5FA" fill-opacity="0.65" />
    <polygon points="569.3,1734.3 120.0,1972.9 120.0,1744.5 509.4,1562.7" fill="#E879F9" fill-opacity="0.65" />
    <polygon points="706.0,1877.5 914.0,1829.6 1024.9,2053.0 668.0,2053.0" fill="#34D399" fill-opacity="0.65" />
    <polygon points="998.4,1266.4 837.0,1455.1 814.3,1447.0 707.3,1281.3 706.0,1115.1 769.3,1057.6 1004.8,1110.8" fill="#F87171" fill-opacity="0.65" />
  </g>
  <g>
    <circle cx="1407.3" cy="1762.1" r="17" fill="#0F172A" stroke="#FFFFFF" stroke-width="7" />
    <circle cx="1936.6" cy="684.0" r="17" fill="#0F172A" stroke="#FFFFFF" stroke-width="7" />
    <circle cx="1933.5" cy="1025.4" r="17" fill="#0F172A" stroke="#FFFFFF" stroke-width="7" />
    <circle cx="2816.4" cy="1095.0" r="17" fill="#0F172A" stroke="#FFFFFF" stroke-width="7" />
    <circle cx="839.6" cy="1737.7" r="17" fill="#0F172A" stroke="#FFFFFF" stroke-width="7" />
    <circle cx="2562.9" cy="1435.9" r="17" fill="#0F172A" stroke="#FFFFFF" stroke-width="7" />
    <circle cx="3080.7" cy="1583.6" r="17" fill="#0F172A" stroke="#FFFFFF" stroke-width="7" />
    <circle cx="1044.4" cy="879.5" r="17" fill="#0F172A" stroke="#FFFFFF" stroke-width="7" />
    <circle cx="308.6" cy="953.4" r="17" fill="#0F172A" stroke="#FFFFFF" stroke-width="7" />
    <circle cx="1691.7" cy="795.5" r="17" fill="#0F172A" stroke="#FFFFFF" stroke-width="7" />
    <circle cx="1892.4" cy="1623.2" r="17" fill="#0F172A" stroke="#FFFFFF" stroke-width="7" />
    <circle cx="3288.8" cy="1081.5" r="17" fill="#0F172A" stroke="#FFFFFF" stroke-width="7" />
    <circle cx="1339.7" cy="1426.7" r="17" fill="#0F172A" stroke="#FFFFFF" stroke-width="7" />
    <circle cx="1222.6" cy="931.6" r="17" fill="#0F172A" stroke="#FFFFFF" stroke-width="7" />
    <circle cx="621.0" cy="1001.5" r="17" fill="#0F172A" stroke="#FFFFFF" stroke-width="7" />
    <circle cx="884.3" cy="650.8" r="17" fill="#0F172A" stroke="#FFFFFF" stroke-width="7" />
    <circle cx="2441.5" cy="1670.9" r="17" fill="#0F172A" stroke="#FFFFFF" stroke-width="7" />
    <circle cx="2953.6" cy="585.2" r="17" fill="#0F172A" stroke="#FFFFFF" stroke-width="7" />
    <circle cx="2001.0" cy="1676.8" r="17" fill="#0F172A" stroke="#FFFFFF" stroke-width="7" />
    <circle cx="3614.1" cy="1228.4" r="17" fill="#0F172A" stroke="#FFFFFF" stroke-width="7" />
    <circle cx="3542.3" cy="1861.3" r="17" fill="#0F172A" stroke="#FFFFFF" stroke-width="7" />
    <circle cx="2585.1" cy="1129.6" r="17" fill="#0F172A" stroke="#FFFFFF" stroke-width="7" />
    <circle cx="650.9" cy="599.2" r="17" fill="#0F172A" stroke="#FFFFFF" stroke-width="7" />
    <circle cx="1868.5" cy="1302.3" r="17" fill="#0F172A" stroke="#FFFFFF" stroke-width="7" />
    <circle cx="3319.0" cy="1533.6" r="17" fill="#0F172A" stroke="#FFFFFF" stroke-width="7" />
    <circle cx="371.1" cy="1301.3" r="17" fill="#0F172A" stroke="#FFFFFF" stroke-width="7" />
    <circle cx="2294.5" cy="704.4" r="17" fill="#0F172A" stroke="#FFFFFF" stroke-width="7" />
    <circle cx="2674.4" cy="1819.0" r="17" fill="#0F172A" stroke="#FFFFFF" stroke-width="7" />
    <circle cx="1834.6" cy="1787.0" r="17" fill="#0F172A" stroke="#FFFFFF" stroke-width="7" />
    <circle cx="2994.1" cy="1180.4" r="17" fill="#0F172A" stroke="#FFFFFF" stroke-width="7" />
    <circle cx="1527.3" cy="1059.3" r="17" fill="#0F172A" stroke="#FFFFFF" stroke-width="7" />
    <circle cx="1696.4" cy="1519.3" r="17" fill="#0F172A" stroke="#FFFFFF" stroke-width="7" />
    <circle cx="2688.4" cy="1432.6" r="17" fill="#0F172A" stroke="#FFFFFF" stroke-width="7" />
    <circle cx="1712.9" cy="1943.0" r="17" fill="#0F172A" stroke="#FFFFFF" stroke-width="7" />
    <circle cx="2228.0" cy="1775.3" r="17" fill="#0F172A" stroke="#FFFFFF" stroke-width="7" />
    <circle cx="1557.4" cy="1693.6" r="17" fill="#0F172A" stroke="#FFFFFF" stroke-width="7" />
    <circle cx="1539.6" cy="787.5" r="17" fill="#0F172A" stroke="#FFFFFF" stroke-width="7" />
    <circle cx="1106.3" cy="1706.8" r="17" fill="#0F172A" stroke="#FFFFFF" stroke-width="7" />
    <circle cx="2268.8" cy="1253.4" r="17" fill="#0F172A" stroke="#FFFFFF" stroke-width="7" />
    <circle cx="3545.1" cy="1662.4" r="17" fill="#0F172A" stroke="#FFFFFF" stroke-width="7" />
    <circle cx="2233.1" cy="1121.9" r="17" fill="#0F172A" stroke="#FFFFFF" stroke-width="7" />
    <circle cx="2369.6" cy="1772.3" r="17" fill="#0F172A" stroke="#FFFFFF" stroke-width="7" />
    <circle cx="1710.8" cy="1763.6" r="17" fill="#0F172A" stroke="#FFFFFF" stroke-width="7" />
    <circle cx="1287.7" cy="1737.8" r="17" fill="#0F172A" stroke="#FFFFFF" stroke-width="7" />
    <circle cx="3256.9" cy="1218.3" r="17" fill="#0F172A" stroke="#FFFFFF" stroke-width="7" />
    <circle cx="602.6" cy="1212.3" r="17" fill="#0F172A" stroke="#FFFFFF" stroke-width="7" />
    <circle cx="2692.9" cy="851.7" r="17" fill="#0F172A" stroke="#FFFFFF" stroke-width="7" />
    <circle cx="3323.4" cy="1757.5" r="17" fill="#0F172A" stroke="#FFFFFF" stroke-width="7" />
    <circle cx="3079.1" cy="1841.5" r="17" fill="#0F172A" stroke="#FFFFFF" stroke-width="7" />
    <circle cx="347.1" cy="1529.5" r="17" fill="#0F172A" stroke="#FFFFFF" stroke-width="7" />
    <circle cx="513.1" cy="1863.7" r="17" fill="#0F172A" stroke="#FFFFFF" stroke-width="7" />
    <circle cx="3423.8" cy="879.1" r="17" fill="#0F172A" stroke="#FFFFFF" stroke-width="7" />
    <circle cx="3034.2" cy="975.9" r="17" fill="#0F172A" stroke="#FFFFFF" stroke-width="7" />
    <circle cx="2027.2" cy="811.9" r="17" fill="#0F172A" stroke="#FFFFFF" stroke-width="7" />
    <circle cx="1373.6" cy="1231.2" r="17" fill="#0F172A" stroke="#FFFFFF" stroke-width="7" />
    <circle cx="2969.6" cy="1633.8" r="17" fill="#0F172A" stroke="#FFFFFF" stroke-width="7" />
    <circle cx="872.6" cy="937.3" r="17" fill="#0F172A" stroke="#FFFFFF" stroke-width="7" />
    <circle cx="3404.4" cy="666.3" r="17" fill="#0F172A" stroke="#FFFFFF" stroke-width="7" />
    <circle cx="1189.9" cy="1226.1" r="17" fill="#0F172A" stroke="#FFFFFF" stroke-width="7" />
    <circle cx="309.5" cy="1086.2" r="17" fill="#0F172A" stroke="#FFFFFF" stroke-width="7" />
    <circle cx="1312.4" cy="1588.6" r="17" fill="#0F172A" stroke="#FFFFFF" stroke-width="7" />
    <circle cx="2800.0" cy="698.2" r="17" fill="#0F172A" stroke="#FFFFFF" stroke-width="7" />
    <circle cx="1082.8" cy="1443.0" r="17" fill="#0F172A" stroke="#FFFFFF" stroke-width="7" />
    <circle cx="1021.8" cy="1878.1" r="17" fill="#0F172A" stroke="#FFFFFF" stroke-width="7" />
    <circle cx="1421.3" cy="1913.1" r="17" fill="#0F172A" stroke="#FFFFFF" stroke-width="7" />
    <circle cx="2851.7" cy="1787.9" r="17" fill="#0F172A" stroke="#FFFFFF" stroke-width="7" />
    <circle cx="2544.0" cy="905.5" r="17" fill="#0F172A" stroke="#FFFFFF" stroke-width="7" />
    <circle cx="2122.5" cy="1397.2" r="17" fill="#0F172A" stroke="#FFFFFF" stroke-width="7" />
    <circle cx="1793.6" cy="1108.1" r="17" fill="#0F172A" stroke="#FFFFFF" stroke-width="7" />
    <circle cx="428.7" cy="1172.6" r="17" fill="#0F172A" stroke="#FFFFFF" stroke-width="7" />
    <circle cx="1731.9" cy="1404.4" r="17" fill="#0F172A" stroke="#FFFFFF" stroke-width="7" />
    <circle cx="661.8" cy="1627.8" r="17" fill="#0F172A" stroke="#FFFFFF" stroke-width="7" />
    <circle cx="3467.1" cy="1326.9" r="17" fill="#0F172A" stroke="#FFFFFF" stroke-width="7" />
    <circle cx="2102.8" cy="984.8" r="17" fill="#0F172A" stroke="#FFFFFF" stroke-width="7" />
    <circle cx="1789.3" cy="630.3" r="17" fill="#0F172A" stroke="#FFFFFF" stroke-width="7" />
    <circle cx="3424.9" cy="1004.1" r="17" fill="#0F172A" stroke="#FFFFFF" stroke-width="7" />
    <circle cx="2491.3" cy="640.9" r="17" fill="#0F172A" stroke="#FFFFFF" stroke-width="7" />
    <circle cx="2408.7" cy="1911.8" r="17" fill="#0F172A" stroke="#FFFFFF" stroke-width="7" />
    <circle cx="2706.9" cy="1187.5" r="17" fill="#0F172A" stroke="#FFFFFF" stroke-width="7" />
    <circle cx="1225.4" cy="1862.2" r="17" fill="#0F172A" stroke="#FFFFFF" stroke-width="7" />
    <circle cx="1662.9" cy="968.0" r="17" fill="#0F172A" stroke="#FFFFFF" stroke-width="7" />
    <circle cx="3612.4" cy="993.8" r="17" fill="#0F172A" stroke="#FFFFFF" stroke-width="7" />
    <circle cx="600.2" cy="1346.6" r="17" fill="#0F172A" stroke="#FFFFFF" stroke-width="7" />
    <circle cx="3571.5" cy="1385.8" r="17" fill="#0F172A" stroke="#FFFFFF" stroke-width="7" />
    <circle cx="1325.2" cy="609.1" r="17" fill="#0F172A" stroke="#FFFFFF" stroke-width="7" />
    <circle cx="2361.5" cy="1090.5" r="17" fill="#0F172A" stroke="#FFFFFF" stroke-width="7" />
    <circle cx="1364.2" cy="862.3" r="17" fill="#0F172A" stroke="#FFFFFF" stroke-width="7" />
    <circle cx="2163.9" cy="824.8" r="17" fill="#0F172A" stroke="#FFFFFF" stroke-width="7" />
    <circle cx="430.7" cy="1708.4" r="17" fill="#0F172A" stroke="#FFFFFF" stroke-width="7" />
    <circle cx="887.4" cy="1944.8" r="17" fill="#0F172A" stroke="#FFFFFF" stroke-width="7" />
    <circle cx="810.9" cy="1210.5" r="17" fill="#0F172A" stroke="#FFFFFF" stroke-width="7" />
  </g>
  <g font-family="Arial, sans-serif" font-size="47" fill="#64748B"><text x="227" y="2205">Each region contains all points closest to its dark site marker.</text><text x="3083" y="2205">sites: 91</text></g>
</svg>
