<svg xmlns="http://www.w3.org/2000/svg" width="3840" height="2400" viewBox="0 0 3840 2400" role="img" aria-labelledby="title description">
  <title id="title">Voronoi diagram with 52 sites</title>
  <desc id="description">A high-resolution 3840x2400 clipped Voronoi diagram with 52 sites. Seed: 1790247778.</desc>
  <defs>
    <linearGradient id="background" x1="0" y1="0" x2="1" y2="1"><stop stop-color="#F8FAFC"/><stop offset="1" stop-color="#E0F2FE"/></linearGradient>
    <filter id="shadow" x="-5%" y="-5%" width="110%" height="110%"><feDropShadow dx="0" dy="15" stdDeviation="22" flood-color="#0F172A" flood-opacity=".12"/></filter>
  </defs>
  <rect width="3840" height="2400" fill="url(#background)"/>
  <rect x="120" y="120" width="3600" height="2160" rx="63" fill="#FFFFFF" filter="url(#shadow)"/>
  <g font-family="Arial, sans-serif"><text x="227" y="296" font-size="101" font-weight="700" fill="#0F172A">Voronoi Diagram</text><text x="227" y="397" font-size="56" fill="#475569">52 sites · generated with seed 1790247778 · Ultra HD (3840x2400)</text></g>
  <g stroke="#FFFFFF" stroke-width="7" stroke-linejoin="round">
    <polygon points="3110.4,1024.4 3476.1,1028.4 3327.4,1362.6 3048.6,1393.5 2931.8,1221.9" fill="#38BDF8" fill-opacity="0.65" />
    <polygon points="380.8,1790.1 333.5,1507.1 597.0,1587.9 648.9,1931.6" fill="#A78BFA" fill-opacity="0.65" />
    <polygon points="1900.9,1522.3 2270.2,1613.7 2214.0,1849.2 1931.2,1814.9 1877.7,1749.9 1869.0,1577.1" fill="#F472B6" fill-opacity="0.65" />
    <polygon points="3445.8,1705.9 3463.7,1468.6 3720.0,1388.4 3720.0,1823.0" fill="#FB923C" fill-opacity="0.65" />
    <polygon points="2680.5,1021.8 2282.2,1039.1 2273.0,1033.4 2219.8,863.0 2443.2,742.2 2676.0,813.6" fill="#FACC15" fill-opacity="0.65" />
    <polygon points="1212.3,1863.2 1269.6,1666.1 1498.4,1668.0 1589.4,1939.5 1567.4,2053.0 1263.9,2053.0" fill="#4ADE80" fill-opacity="0.65" />
    <polygon points="2332.6,1252.8 2207.7,1327.6 1951.3,1230.0 2273.0,1033.4 2282.2,1039.1" fill="#2DD4BF" fill-opacity="0.65" />
    <polygon points="1931.2,1814.9 2214.0,1849.2 2287.0,2053.0 1917.3,2053.0" fill="#60A5FA" fill-opacity="0.65" />
    <polygon points="2875.5,1831.8 2915.3,1612.3 3036.9,1501.1 3223.7,1766.2 3103.7,1954.3" fill="#E879F9" fill-opacity="0.65" />
    <polygon points="3036.9,1501.1 2915.3,1612.3 2604.5,1622.6 2782.1,1177.0 2931.8,1221.9 3048.6,1393.5" fill="#34D399" fill-opacity="0.65" />
    <polygon points="739.9,2042.8 648.9,1931.6 597.0,1587.9 766.6,1544.0 889.1,1745.2 882.1,1816.7" fill="#F87171" fill-opacity="0.65" />
    <polygon points="1589.4,1939.5 1498.4,1668.0 1525.9,1634.2 1869.0,1577.1 1877.7,1749.9" fill="#818CF8" fill-opacity="0.65" />
    <polygon points="2443.2,742.2 2219.8,863.0 2103.8,791.8 2066.6,505.0 2337.1,505.0" fill="#FBBF24" fill-opacity="0.65" />
    <polygon points="2459.6,1313.2 2405.5,1580.4 2278.2,1608.0 2207.7,1327.6 2332.6,1252.8" fill="#A3E635" fill-opacity="0.65" />
    <polygon points="1124.7,1458.8 948.1,1361.2 917.4,1191.5 1058.1,962.4 1268.4,1061.5 1290.8,1096.0" fill="#C084FC" fill-opacity="0.65" />
    <polygon points="2214.0,1849.2 2270.2,1613.7 2278.2,1608.0 2405.5,1580.4 2566.4,1648.5 2629.9,1955.5 2595.6,2053.0 2287.0,2053.0" fill="#FB7185" fill-opacity="0.65" />
    <polygon points="1640.1,1222.7 1534.5,790.9 1535.7,787.8 1710.1,777.2 1879.6,950.5 1854.6,1228.4" fill="#22D3EE" fill-opacity="0.65" />
    <polygon points="3332.5,1763.4 3223.7,1766.2 3036.9,1501.1 3048.6,1393.5 3327.4,1362.6 3463.7,1468.6 3445.8,1705.9" fill="#86EFAC" fill-opacity="0.65" />
    <polygon points="2103.8,791.8 1879.6,950.5 1710.1,777.2 1855.2,505.0 2066.6,505.0" fill="#FCD34D" fill-opacity="0.65" />
    <polygon points="649.6,792.0 606.9,825.4 398.0,784.0 319.8,505.0 641.2,505.0" fill="#38BDF8" fill-opacity="0.65" />
    <polygon points="2676.0,813.6 2443.2,742.2 2337.1,505.0 2888.4,505.0" fill="#38BDF8" fill-opacity="0.65" />
    <polygon points="1710.1,777.2 1535.7,787.8 1330.7,505.0 1855.2,505.0" fill="#A78BFA" fill-opacity="0.65" />
    <polygon points="1866.2,1239.2 1854.6,1228.4 1879.6,950.5 2103.8,791.8 2219.8,863.0 2273.0,1033.4 1951.3,1230.0" fill="#F472B6" fill-opacity="0.65" />
    <polygon points="641.5,1320.2 791.9,1487.2 766.6,1544.0 597.0,1587.9 333.5,1507.1 319.6,1491.8" fill="#FB923C" fill-opacity="0.65" />
    <polygon points="3463.7,1468.6 3327.4,1362.6 3476.1,1028.4 3599.8,950.3 3720.0,923.4 3720.0,1388.4" fill="#FACC15" fill-opacity="0.65" />
    <polygon points="2629.9,1955.5 2566.4,1648.5 2604.5,1622.6 2915.3,1612.3 2875.5,1831.8" fill="#4ADE80" fill-opacity="0.65" />
    <polygon points="1534.5,790.9 1640.1,1222.7 1528.8,1257.3 1290.8,1096.0 1268.4,1061.5" fill="#2DD4BF" fill-opacity="0.65" />
    <polygon points="1535.7,787.8 1534.5,790.9 1268.4,1061.5 1058.1,962.4 1017.2,854.8 1183.3,505.0 1330.7,505.0" fill="#60A5FA" fill-opacity="0.65" />
    <polygon points="1171.3,1547.3 889.1,1745.2 766.6,1544.0 791.9,1487.2 948.1,1361.2 1124.7,1458.8 1166.1,1516.6" fill="#E879F9" fill-opacity="0.65" />
    <polygon points="3599.8,950.3 3094.8,644.4 3026.4,505.0 3720.0,505.0 3720.0,923.4" fill="#34D399" fill-opacity="0.65" />
    <polygon points="3103.7,1954.3 3223.7,1766.2 3332.5,1763.4 3433.6,2053.0 3106.6,2053.0" fill="#F87171" fill-opacity="0.65" />
    <polygon points="398.0,784.0 120.0,880.0 120.0,505.0 319.8,505.0" fill="#818CF8" fill-opacity="0.65" />
    <polygon points="2278.2,1608.0 2270.2,1613.7 1900.9,1522.3 1866.2,1239.2 1951.3,1230.0 2207.7,1327.6" fill="#FBBF24" fill-opacity="0.65" />
    <polygon points="1017.2,854.8 1058.1,962.4 917.4,1191.5 676.5,1170.1 560.7,1060.0 606.9,825.4 649.6,792.0" fill="#A3E635" fill-opacity="0.65" />
    <polygon points="3094.8,644.4 3599.8,950.3 3476.1,1028.4 3110.4,1024.4" fill="#C084FC" fill-opacity="0.65" />
    <polygon points="1017.2,854.8 649.6,792.0 641.2,505.0 1183.3,505.0" fill="#FB7185" fill-opacity="0.65" />
    <polygon points="1528.8,1257.3 1511.0,1299.0 1166.1,1516.6 1124.7,1458.8 1290.8,1096.0" fill="#22D3EE" fill-opacity="0.65" />
    <polygon points="2745.8,1151.1 2782.1,1177.0 2604.5,1622.6 2566.4,1648.5 2405.5,1580.4 2459.6,1313.2" fill="#86EFAC" fill-opacity="0.65" />
    <polygon points="882.1,1816.7 889.1,1745.2 1171.3,1547.3 1269.6,1666.1 1212.3,1863.2" fill="#FCD34D" fill-opacity="0.65" />
    <polygon points="3332.5,1763.4 3445.8,1705.9 3720.0,1823.0 3720.0,2053.0 3433.6,2053.0" fill="#38BDF8" fill-opacity="0.65" />
    <polygon points="380.8,1790.1 648.9,1931.6 739.9,2042.8 740.0,2053.0 187.0,2053.0" fill="#38BDF8" fill-opacity="0.65" />
    <polygon points="2745.8,1151.1 2459.6,1313.2 2332.6,1252.8 2282.2,1039.1 2680.5,1021.8" fill="#A78BFA" fill-opacity="0.65" />
    <polygon points="120.0,1366.7 319.6,1491.8 333.5,1507.1 380.8,1790.1 187.0,2053.0 120.0,2053.0" fill="#F472B6" fill-opacity="0.65" />
    <polygon points="1589.4,1939.5 1877.7,1749.9 1931.2,1814.9 1917.3,2053.0 1567.4,2053.0" fill="#FB923C" fill-opacity="0.65" />
    <polygon points="1511.0,1299.0 1525.9,1634.2 1498.4,1668.0 1269.6,1666.1 1171.3,1547.3 1166.1,1516.6" fill="#FACC15" fill-opacity="0.65" />
    <polygon points="739.9,2042.8 882.1,1816.7 1212.3,1863.2 1263.9,2053.0 740.0,2053.0" fill="#4ADE80" fill-opacity="0.65" />
    <polygon points="560.7,1060.0 676.5,1170.1 641.5,1320.2 319.6,1491.8 120.0,1366.7 120.0,1303.2" fill="#2DD4BF" fill-opacity="0.65" />
    <polygon points="398.0,784.0 606.9,825.4 560.7,1060.0 120.0,1303.2 120.0,880.0" fill="#60A5FA" fill-opacity="0.65" />
    <polygon points="2782.1,1177.0 2745.8,1151.1 2680.5,1021.8 2676.0,813.6 2888.4,505.0 3026.4,505.0 3094.8,644.4 3110.4,1024.4 2931.8,1221.9" fill="#E879F9" fill-opacity="0.65" />
    <polygon points="791.9,1487.2 641.5,1320.2 676.5,1170.1 917.4,1191.5 948.1,1361.2" fill="#34D399" fill-opacity="0.65" />
    <polygon points="1525.9,1634.2 1511.0,1299.0 1528.8,1257.3 1640.1,1222.7 1854.6,1228.4 1866.2,1239.2 1900.9,1522.3 1869.0,1577.1" fill="#F87171" fill-opacity="0.65" />
    <polygon points="2629.9,1955.5 2875.5,1831.8 3103.7,1954.3 3106.6,2053.0 2595.6,2053.0" fill="#818CF8" fill-opacity="0.65" />
  </g>
  <g>
    <circle cx="3257.0" cy="1171.4" r="20" fill="#0F172A" stroke="#FFFFFF" stroke-width="7" />
    <circle cx="532.1" cy="1740.8" r="20" fill="#0F172A" stroke="#FFFFFF" stroke-width="7" />
    <circle cx="2061.2" cy="1720.8" r="20" fill="#0F172A" stroke="#FFFFFF" stroke-width="7" />
    <circle cx="3610.6" cy="1587.8" r="20" fill="#0F172A" stroke="#FFFFFF" stroke-width="7" />
    <circle cx="2406.4" cy="905.0" r="20" fill="#0F172A" stroke="#FFFFFF" stroke-width="7" />
    <circle cx="1386.7" cy="1841.7" r="20" fill="#0F172A" stroke="#FFFFFF" stroke-width="7" />
    <circle cx="2216.0" cy="1209.5" r="20" fill="#0F172A" stroke="#FFFFFF" stroke-width="7" />
    <circle cx="2034.9" cy="1937.4" r="20" fill="#0F172A" stroke="#FFFFFF" stroke-width="7" />
    <circle cx="3007.8" cy="1770.8" r="20" fill="#0F172A" stroke="#FFFFFF" stroke-width="7" />
    <circle cx="2765.7" cy="1505.9" r="20" fill="#0F172A" stroke="#FFFFFF" stroke-width="7" />
    <circle cx="704.1" cy="1714.8" r="20" fill="#0F172A" stroke="#FFFFFF" stroke-width="7" />
    <circle cx="1692.1" cy="1739.3" r="20" fill="#0F172A" stroke="#FFFFFF" stroke-width="7" />
    <circle cx="2286.8" cy="683.9" r="20" fill="#0F172A" stroke="#FFFFFF" stroke-width="7" />
    <circle cx="2315.8" cy="1376.0" r="20" fill="#0F172A" stroke="#FFFFFF" stroke-width="7" />
    <circle cx="1121.7" cy="1250.9" r="20" fill="#0F172A" stroke="#FFFFFF" stroke-width="7" />
    <circle cx="2408.4" cy="1803.7" r="20" fill="#0F172A" stroke="#FFFFFF" stroke-width="7" />
    <circle cx="1662.8" cy="965.3" r="20" fill="#0F172A" stroke="#FFFFFF" stroke-width="7" />
    <circle cx="3300.6" cy="1564.4" r="20" fill="#0F172A" stroke="#FFFFFF" stroke-width="7" />
    <circle cx="1899.3" cy="734.1" r="20" fill="#0F172A" stroke="#FFFFFF" stroke-width="7" />
    <circle cx="442.3" cy="614.0" r="20" fill="#0F172A" stroke="#FFFFFF" stroke-width="7" />
    <circle cx="2504.0" cy="586.8" r="20" fill="#0F172A" stroke="#FFFFFF" stroke-width="7" />
    <circle cx="1640.4" cy="596.1" r="20" fill="#0F172A" stroke="#FFFFFF" stroke-width="7" />
    <circle cx="2090.3" cy="1003.8" r="20" fill="#0F172A" stroke="#FFFFFF" stroke-width="7" />
    <circle cx="629.0" cy="1424.9" r="20" fill="#0F172A" stroke="#FFFFFF" stroke-width="7" />
    <circle cx="3516.5" cy="1286.9" r="20" fill="#0F172A" stroke="#FFFFFF" stroke-width="7" />
    <circle cx="2773.1" cy="1728.3" r="20" fill="#0F172A" stroke="#FFFFFF" stroke-width="7" />
    <circle cx="1501.3" cy="1004.9" r="20" fill="#0F172A" stroke="#FFFFFF" stroke-width="7" />
    <circle cx="1321.1" cy="827.7" r="20" fill="#0F172A" stroke="#FFFFFF" stroke-width="7" />
    <circle cx="947.0" cy="1566.8" r="20" fill="#0F172A" stroke="#FFFFFF" stroke-width="7" />
    <circle cx="3380.6" cy="681.7" r="20" fill="#0F172A" stroke="#FFFFFF" stroke-width="7" />
    <circle cx="3310.6" cy="1963.8" r="20" fill="#0F172A" stroke="#FFFFFF" stroke-width="7" />
    <circle cx="271.8" cy="661.8" r="20" fill="#0F172A" stroke="#FFFFFF" stroke-width="7" />
    <circle cx="2135.3" cy="1421.4" r="20" fill="#0F172A" stroke="#FFFFFF" stroke-width="7" />
    <circle cx="772.0" cy="1036.3" r="20" fill="#0F172A" stroke="#FFFFFF" stroke-width="7" />
    <circle cx="3260.2" cy="880.5" r="20" fill="#0F172A" stroke="#FFFFFF" stroke-width="7" />
    <circle cx="846.2" cy="602.2" r="20" fill="#0F172A" stroke="#FFFFFF" stroke-width="7" />
    <circle cx="1284.1" cy="1325.3" r="20" fill="#0F172A" stroke="#FFFFFF" stroke-width="7" />
    <circle cx="2567.7" cy="1427.0" r="20" fill="#0F172A" stroke="#FFFFFF" stroke-width="7" />
    <circle cx="1076.5" cy="1751.5" r="20" fill="#0F172A" stroke="#FFFFFF" stroke-width="7" />
    <circle cx="3474.4" cy="1906.6" r="20" fill="#0F172A" stroke="#FFFFFF" stroke-width="7" />
    <circle cx="425.4" cy="1942.9" r="20" fill="#0F172A" stroke="#FFFFFF" stroke-width="7" />
    <circle cx="2417.5" cy="1162.0" r="20" fill="#0F172A" stroke="#FFFFFF" stroke-width="7" />
    <circle cx="221.6" cy="1792.7" r="20" fill="#0F172A" stroke="#FFFFFF" stroke-width="7" />
    <circle cx="1813.9" cy="1924.5" r="20" fill="#0F172A" stroke="#FFFFFF" stroke-width="7" />
    <circle cx="1389.6" cy="1492.5" r="20" fill="#0F172A" stroke="#FFFFFF" stroke-width="7" />
    <circle cx="1051.0" cy="1933.0" r="20" fill="#0F172A" stroke="#FFFFFF" stroke-width="7" />
    <circle cx="547.6" cy="1272.2" r="20" fill="#0F172A" stroke="#FFFFFF" stroke-width="7" />
    <circle cx="374.1" cy="958.0" r="20" fill="#0F172A" stroke="#FFFFFF" stroke-width="7" />
    <circle cx="2949.3" cy="893.3" r="20" fill="#0F172A" stroke="#FFFFFF" stroke-width="7" />
    <circle cx="746.9" cy="1318.7" r="20" fill="#0F172A" stroke="#FFFFFF" stroke-width="7" />
    <circle cx="1649.1" cy="1481.0" r="20" fill="#0F172A" stroke="#FFFFFF" stroke-width="7" />
    <circle cx="2897.7" cy="1975.8" r="20" fill="#0F172A" stroke="#FFFFFF" stroke-width="7" />
  </g>
  <g font-family="Arial, sans-serif" font-size="47" fill="#64748B"><text x="227" y="2205">Each region contains all points closest to its dark site marker.</text><text x="3083" y="2205">sites: 52</text></g>
</svg>
