<svg xmlns="http://www.w3.org/2000/svg" width="3840" height="2400" viewBox="0 0 3840 2400" role="img" aria-labelledby="title description">
  <title id="title">Voronoi diagram with 71 sites</title>
  <desc id="description">A high-resolution 3840x2400 clipped Voronoi diagram with 71 sites. Seed: 1792250434.</desc>
  <defs>
    <linearGradient id="background" x1="0" y1="0" x2="1" y2="1"><stop stop-color="#F8FAFC"/><stop offset="1" stop-color="#E0F2FE"/></linearGradient>
    <filter id="shadow" x="-5%" y="-5%" width="110%" height="110%"><feDropShadow dx="0" dy="15" stdDeviation="22" flood-color="#0F172A" flood-opacity=".12"/></filter>
  </defs>
  <rect width="3840" height="2400" fill="url(#background)"/>
  <rect x="120" y="120" width="3600" height="2160" rx="63" fill="#FFFFFF" filter="url(#shadow)"/>
  <g font-family="Arial, sans-serif"><text x="227" y="296" font-size="101" font-weight="700" fill="#0F172A">Voronoi Diagram</text><text x="227" y="397" font-size="56" fill="#475569">71 sites · generated with seed 1792250434 · Ultra HD (3840x2400)</text></g>
  <g stroke="#FFFFFF" stroke-width="7" stroke-linejoin="round">
    <polygon points="1768.6,721.2 1697.5,931.6 1622.0,943.2 1519.5,917.3 1440.4,841.4 1421.4,779.5 1550.8,505.0 1754.3,505.0" fill="#38BDF8" fill-opacity="0.65" />
    <polygon points="1553.7,1922.0 1532.1,1881.2 1512.4,1535.5 1548.6,1505.3 1629.9,1484.0 1697.4,1518.9 1768.1,1717.1" fill="#A78BFA" fill-opacity="0.65" />
    <polygon points="1313.8,1561.3 1153.4,1442.7 1134.5,1408.8 1244.9,1186.4 1295.4,1183.0 1387.5,1229.5 1548.6,1505.3 1512.4,1535.5" fill="#F472B6" fill-opacity="0.65" />
    <polygon points="2182.7,1955.2 2193.7,1936.5 2351.7,1817.6 2562.7,1867.3 2601.6,2053.0 2169.0,2053.0" fill="#FB923C" fill-opacity="0.65" />
    <polygon points="765.7,532.6 634.5,725.6 469.5,754.0 312.6,505.0 773.9,505.0" fill="#FACC15" fill-opacity="0.65" />
    <polygon points="1123.8,753.3 1103.2,779.1 1034.1,794.4 818.5,505.0 1121.4,505.0" fill="#4ADE80" fill-opacity="0.65" />
    <polygon points="491.6,1864.9 558.8,1627.7 564.0,1624.9 686.8,1651.1 661.1,1940.3" fill="#2DD4BF" fill-opacity="0.65" />
    <polygon points="1215.1,938.9 1103.2,779.1 1123.8,753.3 1302.2,717.5 1421.4,779.5 1440.4,841.4" fill="#60A5FA" fill-opacity="0.65" />
    <polygon points="1276.1,1684.3 980.8,1802.4 977.0,1793.5 1153.4,1442.7 1313.8,1561.3" fill="#E879F9" fill-opacity="0.65" />
    <polygon points="2898.0,1957.6 2768.5,1697.2 2931.6,1560.9 3044.6,1584.7 3048.9,1648.1" fill="#34D399" fill-opacity="0.65" />
    <polygon points="1306.3,1782.0 1241.0,1880.9 984.5,1870.5 980.8,1802.4 1276.1,1684.3" fill="#F87171" fill-opacity="0.65" />
    <polygon points="1302.2,717.5 1275.7,505.0 1550.8,505.0 1421.4,779.5" fill="#818CF8" fill-opacity="0.65" />
    <polygon points="1977.6,1734.0 2081.9,1542.0 2171.4,1543.9 2193.7,1936.5 2182.7,1955.2" fill="#FBBF24" fill-opacity="0.65" />
    <polygon points="2578.4,1341.8 2449.2,1447.3 2367.6,1451.6 2164.6,1065.0 2211.5,1024.9 2480.3,1024.5 2628.6,1160.4" fill="#A3E635" fill-opacity="0.65" />
    <polygon points="1215.1,938.9 1181.1,1101.7 838.3,1025.0 863.5,971.7 1034.1,794.4 1103.2,779.1" fill="#C084FC" fill-opacity="0.65" />
    <polygon points="1677.9,1320.9 1910.6,1103.8 1938.7,1108.4 2005.0,1481.9 1697.4,1518.9 1629.9,1484.0" fill="#FB7185" fill-opacity="0.65" />
    <polygon points="433.1,915.1 740.4,1014.9 791.2,1056.0 777.8,1105.5 597.5,1262.8 587.3,1266.6 127.5,1095.4" fill="#22D3EE" fill-opacity="0.65" />
    <polygon points="2615.8,782.6 2510.8,846.0 2381.1,755.9 2482.9,505.0 2588.8,505.0" fill="#86EFAC" fill-opacity="0.65" />
    <polygon points="127.5,1095.4 587.3,1266.6 526.9,1412.8 342.1,1450.2 120.0,1218.2 120.0,1096.2" fill="#FCD34D" fill-opacity="0.65" />
    <polygon points="3372.4,883.8 3359.4,865.1 3382.3,695.8 3577.2,505.0 3720.0,505.0 3720.0,971.3" fill="#38BDF8" fill-opacity="0.65" />
    <polygon points="2013.2,1075.2 2164.6,1065.0 2367.6,1451.6 2274.5,1515.7 2171.4,1543.9 2081.9,1542.0 2005.0,1481.9 1938.7,1108.4" fill="#38BDF8" fill-opacity="0.65" />
    <polygon points="331.9,1645.0 342.1,1450.2 526.9,1412.8 564.0,1624.9 558.8,1627.7" fill="#A78BFA" fill-opacity="0.65" />
    <polygon points="2052.6,733.6 2003.4,786.1 1768.6,721.2 1754.3,505.0 2043.3,505.0" fill="#F472B6" fill-opacity="0.65" />
    <polygon points="2754.2,1089.3 2858.5,893.4 2886.4,876.2 2976.9,892.2 3195.1,1178.6 3197.5,1216.4 2935.4,1225.7" fill="#FB923C" fill-opacity="0.65" />
    <polygon points="984.5,1870.5 1241.0,1880.9 1336.3,2053.0 924.2,2053.0" fill="#FACC15" fill-opacity="0.65" />
    <polygon points="1910.6,1103.8 1677.9,1320.9 1555.4,1179.3 1622.0,943.2 1697.5,931.6" fill="#4ADE80" fill-opacity="0.65" />
    <polygon points="2003.4,786.1 2052.6,733.6 2247.3,809.1 2211.5,1024.9 2164.6,1065.0 2013.2,1075.2" fill="#2DD4BF" fill-opacity="0.65" />
    <polygon points="2005.0,1481.9 2081.9,1542.0 1977.6,1734.0 1895.8,1785.1 1768.1,1717.1 1697.4,1518.9" fill="#60A5FA" fill-opacity="0.65" />
    <polygon points="1895.8,1785.1 1977.6,1734.0 2182.7,1955.2 2169.0,2053.0 1857.3,2053.0" fill="#E879F9" fill-opacity="0.65" />
    <polygon points="1034.1,794.4 863.5,971.7 765.7,532.6 773.9,505.0 818.5,505.0" fill="#34D399" fill-opacity="0.65" />
    <polygon points="1306.3,1782.0 1276.1,1684.3 1313.8,1561.3 1512.4,1535.5 1532.1,1881.2" fill="#F87171" fill-opacity="0.65" />
    <polygon points="3262.2,1255.2 3541.1,1466.6 3369.6,1649.5 3086.7,1559.9 3214.9,1244.4" fill="#818CF8" fill-opacity="0.65" />
    <polygon points="863.5,971.7 838.3,1025.0 791.2,1056.0 740.4,1014.9 634.5,725.6 765.7,532.6" fill="#FBBF24" fill-opacity="0.65" />
    <polygon points="2858.5,893.4 2754.2,1089.3 2628.6,1160.4 2480.3,1024.5 2510.8,846.0 2615.8,782.6" fill="#A3E635" fill-opacity="0.65" />
    <polygon points="3397.7,1786.7 3369.6,1649.5 3541.1,1466.6 3720.0,1444.9 3720.0,1861.7" fill="#C084FC" fill-opacity="0.65" />
    <polygon points="2265.1,786.6 2247.3,809.1 2052.6,733.6 2043.3,505.0 2196.4,505.0" fill="#FB7185" fill-opacity="0.65" />
    <polygon points="3382.3,695.8 3359.4,865.1 3151.4,797.2 3162.0,530.4" fill="#22D3EE" fill-opacity="0.65" />
    <polygon points="2886.4,876.2 2858.5,893.4 2615.8,782.6 2588.8,505.0 2878.8,505.0" fill="#86EFAC" fill-opacity="0.65" />
    <polygon points="2381.1,755.9 2265.1,786.6 2196.4,505.0 2482.9,505.0" fill="#FCD34D" fill-opacity="0.65" />
    <polygon points="661.1,1940.3 686.8,1651.1 790.4,1619.4 977.0,1793.5 980.8,1802.4 984.5,1870.5 924.2,2053.0 729.8,2053.0" fill="#38BDF8" fill-opacity="0.65" />
    <polygon points="811.1,1554.9 790.4,1619.4 686.8,1651.1 564.0,1624.9 526.9,1412.8 587.3,1266.6 597.5,1262.8" fill="#38BDF8" fill-opacity="0.65" />
    <polygon points="1295.4,1183.0 1244.9,1186.4 1181.1,1101.7 1215.1,938.9 1440.4,841.4 1519.5,917.3" fill="#A78BFA" fill-opacity="0.65" />
    <polygon points="3214.9,1244.4 3086.7,1559.9 3044.6,1584.7 2931.6,1560.9 2857.4,1469.7 2935.4,1225.7 3197.5,1216.4" fill="#F472B6" fill-opacity="0.65" />
    <polygon points="3162.0,530.4 3151.4,797.2 2976.9,892.2 2886.4,876.2 2878.8,505.0 3153.2,505.0" fill="#FB923C" fill-opacity="0.65" />
    <polygon points="120.0,1975.4 491.6,1864.9 661.1,1940.3 729.8,2053.0 120.0,2053.0" fill="#FACC15" fill-opacity="0.65" />
    <polygon points="740.4,1014.9 433.1,915.1 469.5,754.0 634.5,725.6" fill="#4ADE80" fill-opacity="0.65" />
    <polygon points="3244.8,2013.5 3048.9,1648.1 3044.6,1584.7 3086.7,1559.9 3369.6,1649.5 3397.7,1786.7" fill="#2DD4BF" fill-opacity="0.65" />
    <polygon points="3195.1,1178.6 2976.9,892.2 3151.4,797.2 3359.4,865.1 3372.4,883.8" fill="#60A5FA" fill-opacity="0.65" />
    <polygon points="3382.3,695.8 3162.0,530.4 3153.2,505.0 3577.2,505.0" fill="#E879F9" fill-opacity="0.65" />
    <polygon points="433.1,915.1 127.5,1095.4 120.0,1096.2 120.0,505.0 312.6,505.0 469.5,754.0" fill="#34D399" fill-opacity="0.65" />
    <polygon points="1555.4,1179.3 1677.9,1320.9 1629.9,1484.0 1548.6,1505.3 1387.5,1229.5" fill="#F87171" fill-opacity="0.65" />
    <polygon points="966.0,1388.9 777.8,1105.5 791.2,1056.0 838.3,1025.0 1181.1,1101.7 1244.9,1186.4 1134.5,1408.8" fill="#818CF8" fill-opacity="0.65" />
    <polygon points="2562.7,1867.3 2608.3,1729.4 2768.5,1697.2 2898.0,1957.6 2893.6,2053.0 2601.6,2053.0" fill="#FBBF24" fill-opacity="0.65" />
    <polygon points="1555.4,1179.3 1387.5,1229.5 1295.4,1183.0 1519.5,917.3 1622.0,943.2" fill="#A3E635" fill-opacity="0.65" />
    <polygon points="2898.0,1957.6 3048.9,1648.1 3244.8,2013.5 3237.8,2053.0 2893.6,2053.0" fill="#C084FC" fill-opacity="0.65" />
    <polygon points="3244.8,2013.5 3397.7,1786.7 3720.0,1861.7 3720.0,2053.0 3237.8,2053.0" fill="#FB7185" fill-opacity="0.65" />
    <polygon points="977.0,1793.5 790.4,1619.4 811.1,1554.9 966.0,1388.9 1134.5,1408.8 1153.4,1442.7" fill="#22D3EE" fill-opacity="0.65" />
    <polygon points="966.0,1388.9 811.1,1554.9 597.5,1262.8 777.8,1105.5" fill="#86EFAC" fill-opacity="0.65" />
    <polygon points="1302.2,717.5 1123.8,753.3 1121.4,505.0 1275.7,505.0" fill="#FCD34D" fill-opacity="0.65" />
    <polygon points="2274.5,1515.7 2367.6,1451.6 2449.2,1447.3 2608.3,1729.4 2562.7,1867.3 2351.7,1817.6" fill="#38BDF8" fill-opacity="0.65" />
    <polygon points="2754.2,1089.3 2935.4,1225.7 2857.4,1469.7 2578.4,1341.8 2628.6,1160.4" fill="#38BDF8" fill-opacity="0.65" />
    <polygon points="2003.4,786.1 2013.2,1075.2 1938.7,1108.4 1910.6,1103.8 1697.5,931.6 1768.6,721.2" fill="#A78BFA" fill-opacity="0.65" />
    <polygon points="3541.1,1466.6 3262.2,1255.2 3720.0,1025.8 3720.0,1444.9" fill="#F472B6" fill-opacity="0.65" />
    <polygon points="342.1,1450.2 331.9,1645.0 120.0,1799.9 120.0,1218.2" fill="#FB923C" fill-opacity="0.65" />
    <polygon points="1241.0,1880.9 1306.3,1782.0 1532.1,1881.2 1553.7,1922.0 1567.5,2053.0 1336.3,2053.0" fill="#FACC15" fill-opacity="0.65" />
    <polygon points="1553.7,1922.0 1768.1,1717.1 1895.8,1785.1 1857.3,2053.0 1567.5,2053.0" fill="#4ADE80" fill-opacity="0.65" />
    <polygon points="2857.4,1469.7 2931.6,1560.9 2768.5,1697.2 2608.3,1729.4 2449.2,1447.3 2578.4,1341.8" fill="#2DD4BF" fill-opacity="0.65" />
    <polygon points="2247.3,809.1 2265.1,786.6 2381.1,755.9 2510.8,846.0 2480.3,1024.5 2211.5,1024.9" fill="#60A5FA" fill-opacity="0.65" />
    <polygon points="3262.2,1255.2 3214.9,1244.4 3197.5,1216.4 3195.1,1178.6 3372.4,883.8 3720.0,971.3 3720.0,1025.8" fill="#E879F9" fill-opacity="0.65" />
    <polygon points="120.0,1975.4 120.0,1799.9 331.9,1645.0 558.8,1627.7 491.6,1864.9" fill="#34D399" fill-opacity="0.65" />
    <polygon points="2171.4,1543.9 2274.5,1515.7 2351.7,1817.6 2193.7,1936.5" fill="#F87171" fill-opacity="0.65" />
  </g>
  <g>
    <circle cx="1582.0" cy="723.0" r="18" fill="#0F172A" stroke="#FFFFFF" stroke-width="7" />
    <circle cx="1645.4" cy="1720.1" r="18" fill="#0F172A" stroke="#FFFFFF" stroke-width="7" />
    <circle cx="1354.3" cy="1372.0" r="18" fill="#0F172A" stroke="#FFFFFF" stroke-width="7" />
    <circle cx="2369.6" cy="1926.0" r="18" fill="#0F172A" stroke="#FFFFFF" stroke-width="7" />
    <circle cx="549.1" cy="641.5" r="18" fill="#0F172A" stroke="#FFFFFF" stroke-width="7" />
    <circle cx="1025.8" cy="639.3" r="18" fill="#0F172A" stroke="#FFFFFF" stroke-width="7" />
    <circle cx="583.6" cy="1803.7" r="18" fill="#0F172A" stroke="#FFFFFF" stroke-width="7" />
    <circle cx="1256.8" cy="823.2" r="18" fill="#0F172A" stroke="#FFFFFF" stroke-width="7" />
    <circle cx="1144.7" cy="1655.5" r="18" fill="#0F172A" stroke="#FFFFFF" stroke-width="7" />
    <circle cx="2888.3" cy="1781.2" r="18" fill="#0F172A" stroke="#FFFFFF" stroke-width="7" />
    <circle cx="1200.8" cy="1795.8" r="18" fill="#0F172A" stroke="#FFFFFF" stroke-width="7" />
    <circle cx="1362.7" cy="619.6" r="18" fill="#0F172A" stroke="#FFFFFF" stroke-width="7" />
    <circle cx="2116.4" cy="1778.2" r="18" fill="#0F172A" stroke="#FFFFFF" stroke-width="7" />
    <circle cx="2386.1" cy="1171.0" r="18" fill="#0F172A" stroke="#FFFFFF" stroke-width="7" />
    <circle cx="1092.0" cy="938.5" r="18" fill="#0F172A" stroke="#FFFFFF" stroke-width="7" />
    <circle cx="1831.3" cy="1359.8" r="18" fill="#0F172A" stroke="#FFFFFF" stroke-width="7" />
    <circle cx="505.8" cy="1068.8" r="18" fill="#0F172A" stroke="#FFFFFF" stroke-width="7" />
    <circle cx="2497.2" cy="717.4" r="18" fill="#0F172A" stroke="#FFFFFF" stroke-width="7" />
    <circle cx="396.3" cy="1362.9" r="18" fill="#0F172A" stroke="#FFFFFF" stroke-width="7" />
    <circle cx="3494.4" cy="728.8" r="18" fill="#0F172A" stroke="#FFFFFF" stroke-width="7" />
    <circle cx="2126.1" cy="1307.5" r="18" fill="#0F172A" stroke="#FFFFFF" stroke-width="7" />
    <circle cx="425.9" cy="1509.6" r="18" fill="#0F172A" stroke="#FFFFFF" stroke-width="7" />
    <circle cx="1953.9" cy="698.4" r="18" fill="#0F172A" stroke="#FFFFFF" stroke-width="7" />
    <circle cx="2972.3" cy="1106.5" r="18" fill="#0F172A" stroke="#FFFFFF" stroke-width="7" />
    <circle cx="1194.0" cy="1962.5" r="18" fill="#0F172A" stroke="#FFFFFF" stroke-width="7" />
    <circle cx="1649.7" cy="1165.2" r="18" fill="#0F172A" stroke="#FFFFFF" stroke-width="7" />
    <circle cx="2094.1" cy="829.8" r="18" fill="#0F172A" stroke="#FFFFFF" stroke-width="7" />
    <circle cx="1865.1" cy="1641.7" r="18" fill="#0F172A" stroke="#FFFFFF" stroke-width="7" />
    <circle cx="2011.2" cy="1875.7" r="18" fill="#0F172A" stroke="#FFFFFF" stroke-width="7" />
    <circle cx="887.9" cy="742.1" r="18" fill="#0F172A" stroke="#FFFFFF" stroke-width="7" />
    <circle cx="1401.2" cy="1733.9" r="18" fill="#0F172A" stroke="#FFFFFF" stroke-width="7" />
    <circle cx="3314.8" cy="1477.6" r="18" fill="#0F172A" stroke="#FFFFFF" stroke-width="7" />
    <circle cx="744.0" cy="774.1" r="18" fill="#0F172A" stroke="#FFFFFF" stroke-width="7" />
    <circle cx="2618.2" cy="917.9" r="18" fill="#0F172A" stroke="#FFFFFF" stroke-width="7" />
    <circle cx="3544.8" cy="1693.2" r="18" fill="#0F172A" stroke="#FFFFFF" stroke-width="7" />
    <circle cx="2148.2" cy="690.4" r="18" fill="#0F172A" stroke="#FFFFFF" stroke-width="7" />
    <circle cx="3265.4" cy="697.9" r="18" fill="#0F172A" stroke="#FFFFFF" stroke-width="7" />
    <circle cx="2719.5" cy="695.8" r="18" fill="#0F172A" stroke="#FFFFFF" stroke-width="7" />
    <circle cx="2324.6" cy="647.3" r="18" fill="#0F172A" stroke="#FFFFFF" stroke-width="7" />
    <circle cx="761.5" cy="1819.5" r="18" fill="#0F172A" stroke="#FFFFFF" stroke-width="7" />
    <circle cx="654.7" cy="1469.6" r="18" fill="#0F172A" stroke="#FFFFFF" stroke-width="7" />
    <circle cx="1328.0" cy="987.7" r="18" fill="#0F172A" stroke="#FFFFFF" stroke-width="7" />
    <circle cx="2980.7" cy="1341.9" r="18" fill="#0F172A" stroke="#FFFFFF" stroke-width="7" />
    <circle cx="3045.7" cy="689.1" r="18" fill="#0F172A" stroke="#FFFFFF" stroke-width="7" />
    <circle cx="507.7" cy="1974.3" r="18" fill="#0F172A" stroke="#FFFFFF" stroke-width="7" />
    <circle cx="582.2" cy="833.4" r="18" fill="#0F172A" stroke="#FFFFFF" stroke-width="7" />
    <circle cx="3225.8" cy="1758.5" r="18" fill="#0F172A" stroke="#FFFFFF" stroke-width="7" />
    <circle cx="3184.8" cy="944.7" r="18" fill="#0F172A" stroke="#FFFFFF" stroke-width="7" />
    <circle cx="3351.7" cy="583.0" r="18" fill="#0F172A" stroke="#FFFFFF" stroke-width="7" />
    <circle cx="333.7" cy="777.2" r="18" fill="#0F172A" stroke="#FFFFFF" stroke-width="7" />
    <circle cx="1528.0" cy="1270.5" r="18" fill="#0F172A" stroke="#FFFFFF" stroke-width="7" />
    <circle cx="1031.0" cy="1211.4" r="18" fill="#0F172A" stroke="#FFFFFF" stroke-width="7" />
    <circle cx="2763.1" cy="1843.4" r="18" fill="#0F172A" stroke="#FFFFFF" stroke-width="7" />
    <circle cx="1482.4" cy="1118.0" r="18" fill="#0F172A" stroke="#FFFFFF" stroke-width="7" />
    <circle cx="3043.0" cy="1856.5" r="18" fill="#0F172A" stroke="#FFFFFF" stroke-width="7" />
    <circle cx="3488.4" cy="1935.5" r="18" fill="#0F172A" stroke="#FFFFFF" stroke-width="7" />
    <circle cx="987.9" cy="1576.6" r="18" fill="#0F172A" stroke="#FFFFFF" stroke-width="7" />
    <circle cx="777.2" cy="1380.0" r="18" fill="#0F172A" stroke="#FFFFFF" stroke-width="7" />
    <circle cx="1219.6" cy="637.5" r="18" fill="#0F172A" stroke="#FFFFFF" stroke-width="7" />
    <circle cx="2416.0" cy="1728.6" r="18" fill="#0F172A" stroke="#FFFFFF" stroke-width="7" />
    <circle cx="2831.1" cy="1294.1" r="18" fill="#0F172A" stroke="#FFFFFF" stroke-width="7" />
    <circle cx="1915.9" cy="835.9" r="18" fill="#0F172A" stroke="#FFFFFF" stroke-width="7" />
    <circle cx="3490.5" cy="1245.7" r="18" fill="#0F172A" stroke="#FFFFFF" stroke-width="7" />
    <circle cx="252.5" cy="1500.6" r="18" fill="#0F172A" stroke="#FFFFFF" stroke-width="7" />
    <circle cx="1335.1" cy="1884.4" r="18" fill="#0F172A" stroke="#FFFFFF" stroke-width="7" />
    <circle cx="1759.5" cy="1839.5" r="18" fill="#0F172A" stroke="#FFFFFF" stroke-width="7" />
    <circle cx="2707.2" cy="1564.4" r="18" fill="#0F172A" stroke="#FFFFFF" stroke-width="7" />
    <circle cx="2385.6" cy="878.2" r="18" fill="#0F172A" stroke="#FFFFFF" stroke-width="7" />
    <circle cx="3406.5" cy="1078.1" r="18" fill="#0F172A" stroke="#FFFFFF" stroke-width="7" />
    <circle cx="445.4" cy="1764.6" r="18" fill="#0F172A" stroke="#FFFFFF" stroke-width="7" />
    <circle cx="2252.6" cy="1770.4" r="18" fill="#0F172A" stroke="#FFFFFF" stroke-width="7" />
  </g>
  <g font-family="Arial, sans-serif" font-size="47" fill="#64748B"><text x="227" y="2205">Each region contains all points closest to its dark site marker.</text><text x="3083" y="2205">sites: 71</text></g>
</svg>
